<svg width="90" height="90" viewBox="0 0 90 90" fill="none" xmlns="http://www.w3.org/2000/svg">
<path fill-rule="evenodd" clip-rule="evenodd" d="M52.0312 22.5V56.25C52.0312 58.8607 50.9941 61.3645 49.1481 63.2106C47.302 65.0566 44.7982 66.0938 42.1875 66.0938H16.875C14.2643 66.0938 11.7605 65.0566 9.91442 63.2106C8.06836 61.3645 7.03125 58.8607 7.03125 56.25V52H9.84375V56.25C9.84375 58.1148 10.5845 59.9032 11.9032 61.2218C13.2218 62.5405 15.0102 63.2812 16.875 63.2812H42.1875C44.0523 63.2812 45.8407 62.5405 47.1593 61.2218C48.478 59.9032 49.2188 58.1148 49.2188 56.25V22.5C49.2188 20.6352 48.478 18.8468 47.1593 17.5282C45.8407 16.2095 44.0523 15.4688 42.1875 15.4688H16.875C15.0102 15.4688 13.2218 16.2095 11.9032 17.5282C10.5845 18.8468 9.84375 20.6352 9.84375 22.5V29H7.03125V22.5C7.03125 19.8893 8.06836 17.3855 9.91442 15.5394C11.7605 13.6934 14.2643 12.6562 16.875 12.6562H21.0938C21.0938 10.7914 21.8345 9.00302 23.1532 7.68441C24.4718 6.36579 26.2602 5.625 28.125 5.625H30.9375C32.8023 5.625 34.5907 6.36579 35.9093 7.68441C37.228 9.00302 37.9688 10.7914 37.9688 12.6562H42.1875C44.7982 12.6562 47.302 13.6934 49.1481 15.5394C50.9941 17.3855 52.0312 19.8893 52.0312 22.5ZM30.9375 8.4375H28.125C27.0061 8.4375 25.9331 8.88197 25.1419 9.67314C24.3507 10.4643 23.9062 11.5374 23.9062 12.6562H35.1562C35.1562 11.5374 34.7118 10.4643 33.9206 9.67314C33.1294 8.88197 32.0564 8.4375 30.9375 8.4375Z" fill="#00A1FF"/>
<path d="M77.3438 19.8281V12.6562C77.3438 12.6562 76.2792 12.6563 75.9062 12.6563C75.5332 12.6563 74.5312 12.6562 74.5312 12.6562V19.8281C72.9431 20.1523 71.5157 21.0153 70.4907 22.2709C69.4656 23.5266 68.9059 25.0978 68.9063 26.7187V35.1562C68.9063 35.5292 69.0544 35.8869 69.3181 36.1506C69.5819 36.4143 69.9395 36.5625 70.3125 36.5625H81.5625C81.9355 36.5625 82.2931 36.4143 82.5569 36.1506C82.8206 35.8869 82.9688 35.5292 82.9688 35.1562V26.7187C82.9691 25.0978 82.4094 23.5266 81.3843 22.2709C80.3593 21.0153 78.9319 20.1523 77.3438 19.8281ZM80.1562 33.75H71.7188V26.7187C71.7188 25.5999 72.1632 24.5268 72.9544 23.7356C73.7456 22.9445 74.8186 22.5 75.9375 22.5C77.0564 22.5 78.1294 22.9445 78.9206 23.7356C79.7118 24.5268 80.1562 25.5999 80.1562 26.7187V33.75Z" fill="#00A1FF"/>
<path d="M35.125 36.625H32.375V33.875C32.375 33.1125 32.0721 32.3812 31.5329 31.8421C30.9938 31.3029 30.2625 31 29.5 31C28.7375 31 28.0062 31.3029 27.4671 31.8421C26.9279 32.3812 26.625 33.1125 26.625 33.875V36.625H23.875C23.1125 36.625 22.3812 36.9279 21.8421 37.4671C21.3029 38.0062 21 38.7375 21 39.5C21 40.2625 21.3029 40.9938 21.8421 41.5329C22.3812 42.0721 23.1125 42.375 23.875 42.375H26.625V45.125C26.625 45.8875 26.9279 46.6188 27.4671 47.1579C28.0062 47.6971 28.7375 48 29.5 48C30.2625 48 30.9938 47.6971 31.5329 47.1579C32.0721 46.6188 32.375 45.8875 32.375 45.125V42.375H35.125C35.8875 42.375 36.6188 42.0721 37.1579 41.5329C37.6971 40.9938 38 40.2625 38 39.5C38 38.7375 37.6971 38.0062 37.1579 37.4671C36.6188 36.9279 35.8875 36.625 35.125 36.625Z" stroke="#00A1FF" stroke-width="2"/>
<path fill-rule="evenodd" clip-rule="evenodd" d="M74.5314 40.7812H75.8752H77.3439V77.3438C77.3445 79.1797 76.6269 80.943 75.3445 82.2569C74.0622 83.5707 72.3168 84.3309 70.4814 84.375H63.0002V81.5625H70.4814C71.5708 81.5189 72.601 81.0552 73.356 80.2687C74.1111 79.4823 74.5323 78.434 74.5314 77.3438L74.5314 40.7812ZM55.0002 81.5625H34.9877C33.8983 81.5189 32.8681 81.0552 32.1131 80.2687C31.358 79.4823 30.9368 78.434 30.9377 77.3438V74.5312C32.1719 74.5312 33.3843 74.2063 34.4532 73.5892C35.522 72.9721 36.4096 72.0845 37.0267 71.0156C37.0267 71.0156 36.3247 70.6865 36.0002 70.5C35.6757 70.3135 34.5799 69.6094 34.5799 69.6094C34.2106 70.249 33.6798 70.7805 33.0406 71.1507C32.4014 71.5209 31.6763 71.7168 30.9377 71.7188H28.1252C27.3866 71.7168 26.6614 71.5209 26.0222 71.1507C25.3831 70.7805 24.8523 70.249 24.483 69.6094C24.3907 69.4487 24.2676 69.3078 24.1208 69.1947L23.0002 70L22.0361 71.0156C22.6532 72.0845 23.5408 72.9721 24.6097 73.5892C25.6785 74.2063 26.891 74.5312 28.1252 74.5312V77.3438C28.1246 79.1797 28.8422 80.943 30.1246 82.2569C31.4069 83.5707 33.1523 84.3309 34.9877 84.375H55.0002V81.5625Z" fill="#00A1FF"/>
</svg>
