<svg width="77" height="77" viewBox="0 0 77 77" fill="none" xmlns="http://www.w3.org/2000/svg">
<path d="M63.7292 63.0317C63.5712 63.0317 63.4148 63.0006 63.2688 62.9402C63.1229 62.8797 62.9903 62.791 62.8787 62.6793L57.9678 57.7678C57.7494 57.5407 57.6288 57.2371 57.6319 56.9221C57.635 56.6071 57.7615 56.3059 57.9842 56.0832C58.207 55.8604 58.5082 55.7339 58.8232 55.7309C59.1382 55.7278 59.4418 55.8485 59.6688 56.0668L63.5911 59.9891L70.0109 51.2915C70.2028 51.0414 70.4851 50.8765 70.7973 50.8324C71.1094 50.7883 71.4264 50.8684 71.68 51.0556C71.9337 51.2428 72.1037 51.522 72.1536 51.8333C72.2035 52.1446 72.1292 52.463 71.9468 52.72L64.6971 62.5429C64.5852 62.6944 64.4394 62.8176 64.2713 62.9025C64.1032 62.9873 63.9175 63.0316 63.7292 63.0317Z" fill="#00A1FF"/>
<path d="M64.9519 51.9605C65.11 51.9611 65.2667 51.9303 65.4129 51.8701C65.5591 51.8098 65.6919 51.7212 65.8037 51.6094C65.9155 51.4976 66.0041 51.3648 66.0644 51.2186C66.1246 51.0724 66.1554 50.9157 66.1548 50.7576V13.9486C66.1557 12.9773 65.7711 12.0455 65.0855 11.3576C64.3999 10.6697 63.4692 10.282 62.498 10.2797H51.4313V6.57473C51.4313 6.2557 51.3045 5.94974 51.0789 5.72415C50.8534 5.49856 50.5474 5.37183 50.2284 5.37183C49.9093 5.37183 49.6034 5.49856 49.3778 5.72415C49.1522 5.94974 49.0254 6.2557 49.0254 6.57473V10.2797H36.6956V6.57473C36.6956 6.2557 36.5689 5.94974 36.3433 5.72415C36.1177 5.49856 35.8118 5.37183 35.4927 5.37183C35.1737 5.37183 34.8677 5.49856 34.6421 5.72415C34.4166 5.94974 34.2898 6.2557 34.2898 6.57473V10.2797H21.96V6.57473C21.96 6.2557 21.8333 5.94974 21.6077 5.72415C21.3821 5.49856 21.0762 5.37183 20.7571 5.37183C20.4381 5.37183 20.1321 5.49856 19.9065 5.72415C19.681 5.94974 19.5542 6.2557 19.5542 6.57473V10.2797H8.47541C7.50418 10.282 6.57357 10.6697 5.88793 11.3576C5.2023 12.0455 4.81771 12.9773 4.81861 13.9486V67.9712C4.82021 68.9405 5.206 69.8697 5.89143 70.5552C6.57687 71.2406 7.50606 71.6264 8.47541 71.628H62.498C63.4674 71.6264 64.3966 71.2406 65.082 70.5552C65.7674 69.8697 66.1532 68.9405 66.1548 67.9712V65.5292C66.1488 65.2142 66.0195 64.914 65.7945 64.6933C65.5696 64.4726 65.267 64.349 64.9519 64.349C64.6368 64.349 64.3342 64.4726 64.1093 64.6934C63.8843 64.9141 63.755 65.2142 63.749 65.5293V67.9712C63.7491 68.1355 63.7169 68.2982 63.654 68.4501C63.5912 68.6019 63.4991 68.7399 63.3829 68.856C63.2667 68.9722 63.1287 69.0644 62.9769 69.1272C62.8251 69.19 62.6623 69.2223 62.498 69.2222H8.47541C8.14417 69.2204 7.82701 69.088 7.59278 68.8538C7.35856 68.6196 7.22619 68.3024 7.22441 67.9712V27.0242H63.749V50.7576C63.7499 51.0763 63.877 51.3817 64.1024 51.6071C64.3277 51.8325 64.6332 51.9596 64.9519 51.9605ZM7.22441 24.6183V13.9486C7.2237 13.6155 7.35489 13.2956 7.58931 13.0589C7.82372 12.8223 8.1423 12.688 8.47541 12.6855H19.5542V16.4025C19.5602 16.7176 19.6896 17.0178 19.9145 17.2385C20.1395 17.4592 20.442 17.5828 20.7572 17.5828C21.0723 17.5828 21.3748 17.4591 21.5998 17.2384C21.8247 17.0177 21.9541 16.7176 21.96 16.4025V12.6855H34.2898V16.4025C34.2943 16.7186 34.423 17.0203 34.6481 17.2422C34.8732 17.4641 35.1766 17.5885 35.4928 17.5885C35.8089 17.5885 36.1123 17.4641 36.3374 17.2421C36.5625 17.0202 36.6912 16.7186 36.6956 16.4025V12.6855H49.0254V16.4025C49.0302 16.7184 49.1591 17.0197 49.3842 17.2414C49.6092 17.4631 49.9125 17.5873 50.2284 17.5873C50.5443 17.5873 50.8475 17.463 51.0726 17.2414C51.2976 17.0197 51.4265 16.7184 51.4313 16.4025V12.6855H62.498C62.6633 12.6857 62.8268 12.7186 62.9793 12.7823C63.1318 12.846 63.2701 12.9393 63.3864 13.0567C63.5027 13.1741 63.5946 13.3133 63.6568 13.4664C63.719 13.6195 63.7504 13.7833 63.749 13.9486V24.6183H7.22441Z" fill="#00A1FF"/>
<path d="M48.7234 60.7081C48.5654 60.7081 48.409 60.677 48.263 60.6166C48.117 60.5561 47.9844 60.4675 47.8727 60.3558C47.761 60.2441 47.6724 60.1115 47.612 59.9655C47.5515 59.8196 47.5204 59.6631 47.5205 59.5052V38.3509L44.7623 41.1091C44.6506 41.2208 44.518 41.3094 44.3721 41.3699C44.2261 41.4303 44.0697 41.4614 43.9118 41.4614C43.5928 41.4614 43.2868 41.3347 43.0613 41.1091C42.8357 40.8836 42.709 40.5776 42.709 40.2587C42.709 39.9397 42.8357 39.6337 43.0613 39.4082L47.8729 34.5965C48.0411 34.4283 48.2554 34.3137 48.4888 34.2673C48.7221 34.2208 48.964 34.2447 49.1838 34.3357C49.4036 34.4267 49.5914 34.5809 49.7236 34.7787C49.8558 34.9765 49.9263 35.2091 49.9263 35.447V59.5052C49.9263 59.6631 49.8953 59.8196 49.8348 59.9655C49.7744 60.1115 49.6858 60.2441 49.5741 60.3558C49.4624 60.4675 49.3297 60.5561 49.1838 60.6166C49.0378 60.677 48.8814 60.7081 48.7234 60.7081Z" fill="#00A1FF"/>
<path d="M36.6011 60.708H22.259C22.021 60.7042 21.7894 60.6303 21.5932 60.4955C21.397 60.3608 21.2448 60.1712 21.1557 59.9505C21.0666 59.7298 21.0445 59.4877 21.0922 59.2545C21.1399 59.0213 21.2552 58.8073 21.4239 58.6393L33.6849 46.8135C37.6549 43.1441 34.5395 36.4741 29.269 36.65C26.6664 36.523 24.7588 38.374 23.1067 40.0872C22.8757 40.3013 22.5699 40.4163 22.2551 40.4075C21.9402 40.3987 21.6414 40.2668 21.4227 40.0401C21.204 39.8134 21.083 39.51 21.0855 39.195C21.088 38.8801 21.2139 38.5787 21.4362 38.3555C23.5274 36.1177 25.992 34.1361 29.2692 34.2442C36.7064 34.083 40.8753 43.3597 35.3551 48.5451L25.2387 58.3022H36.6011C36.917 58.307 37.2183 58.4358 37.44 58.6609C37.6617 58.886 37.7859 59.1892 37.7859 59.5051C37.7859 59.821 37.6616 60.1243 37.44 60.3493C37.2183 60.5744 36.917 60.7032 36.6011 60.708Z" fill="#00A1FF"/>
</svg>
