<svg width="45" height="45" viewBox="0 0 45 45" fill="none" xmlns="http://www.w3.org/2000/svg">
<rect x="0.119141" y="0.765625" width="44" height="44" rx="22" fill="#00A1FF"/>
<path d="M29.1191 14.7656H15.1191C14.5669 14.7656 14.1191 15.2133 14.1191 15.7656V29.7656C14.1191 30.3179 14.5669 30.7656 15.1191 30.7656H29.1191C29.6714 30.7656 30.1191 30.3179 30.1191 29.7656V15.7656C30.1191 15.2133 29.6714 14.7656 29.1191 14.7656Z" stroke="white" stroke-width="2" stroke-linecap="round" stroke-linejoin="round"/>
<path d="M26.1191 26.7656H26.1211V26.7676H26.1191V26.7656Z" stroke="white" stroke-width="2" stroke-linecap="round" stroke-linejoin="round"/>
<path d="M22.1191 26.7656H22.1211V26.7676H22.1191V26.7656Z" stroke="white" stroke-width="2" stroke-linecap="round" stroke-linejoin="round"/>
<path d="M18.1191 26.7656H18.1211V26.7676H18.1191V26.7656Z" stroke="white" stroke-width="2" stroke-linecap="round" stroke-linejoin="round"/>
<path d="M26.1191 22.7656H26.1211V22.7676H26.1191V22.7656Z" stroke="white" stroke-width="2" stroke-linecap="round" stroke-linejoin="round"/>
<path d="M22.1191 22.7656H22.1211V22.7676H22.1191V22.7656Z" stroke="white" stroke-width="2" stroke-linecap="round" stroke-linejoin="round"/>
<path d="M18.1191 22.7656H18.1211V22.7676H18.1191V22.7656Z" stroke="white" stroke-width="2" stroke-linecap="round" stroke-linejoin="round"/>
<path d="M14.1191 18.7656H30.1191" stroke="white" stroke-width="2" stroke-linecap="round" stroke-linejoin="round"/>
<path d="M26.1191 12.7656V14.7656" stroke="white" stroke-width="2" stroke-linecap="round" stroke-linejoin="round"/>
<path d="M18.1191 12.7656V14.7656" stroke="white" stroke-width="2" stroke-linecap="round" stroke-linejoin="round"/>
</svg>
