<svg width="84" height="84" viewBox="0 0 84 84" fill="none" xmlns="http://www.w3.org/2000/svg">
<path d="M62.0786 54.107L51.4839 51.7522V48.4043C55.5782 45.4493 58.2581 40.6507 58.2581 35.2257V31.5718L60.4434 28.2932C62.5598 25.1202 63.6774 21.4268 63.6774 17.6131C63.6774 12.8142 60.094 8.83643 55.4631 8.21334C54.841 3.58344 50.8632 0 46.0643 0H37.9353C28.2239 0 20.3225 7.90143 20.3225 17.6129C20.3225 21.4268 21.4401 25.12 23.5564 28.293L25.7418 31.5716V35.2255C25.7418 40.6502 28.4217 45.4491 32.516 48.4041V51.7519L21.9213 54.1053C13.8004 55.9114 8.12891 62.9795 8.12891 71.2997V84H75.871V71.2997C75.8707 62.9798 70.1995 55.9116 62.0786 54.107ZM25.7432 26.6783C23.9708 23.9752 23.0319 20.8468 23.0319 17.6129C23.0319 9.39587 29.7181 2.70965 37.9351 2.70965H46.0641C49.7994 2.70965 52.8383 5.74853 52.8383 9.48391V10.8389H54.1933C57.9286 10.8389 60.9675 13.8777 60.9675 17.6131C60.9675 20.8471 60.0286 23.9755 58.2579 26.6783V23.0324H55.5482V26.2596L49.0937 23.0324H44.8884L47.598 27.097H44.3153C38.8552 27.097 33.3925 25.8547 28.4529 23.5229V23.0324H25.7432V26.6783ZM28.4514 35.2257V26.5073C33.4413 28.6683 38.8796 29.8064 44.3138 29.8064H52.661L50.6993 26.8636L55.5482 29.2887V35.2255C55.5482 42.696 49.4705 48.774 41.9997 48.774C34.5289 48.774 28.4514 42.6965 28.4514 35.2257ZM48.774 49.9868V53.2764L43.0944 55.5485H40.9064L35.2257 53.2764V49.9856C37.2903 50.9379 39.58 51.4839 41.9997 51.4839C44.4194 51.4839 46.7091 50.9379 48.774 49.9868ZM32.5158 56.4657C32.5158 55.8438 33.1906 55.3805 33.7732 55.6148L40.3848 58.2582H43.6161L50.225 55.6148C50.8156 55.3805 51.4836 55.8438 51.4836 56.4657V61.4056C51.4836 62.0274 50.8103 62.4908 50.2262 62.2564L43.6146 59.6131H40.3833L33.7744 62.2564C33.185 62.4896 32.5158 62.0274 32.5158 61.4056V56.4657ZM47.0356 63.8996L45.9885 68.6117C45.3315 71.5721 43.9616 74.302 41.9997 76.5905C40.038 74.3034 38.6682 71.5721 38.0109 68.6117L36.9638 63.8996L40.905 62.3225H43.093L47.0356 63.8996ZM23.0319 74.5163H21.6769V81.2906H10.8383V71.2999C10.8383 64.2616 15.6372 58.2787 22.509 56.753L24.3868 56.3343V73.1614C24.3868 73.9093 23.7786 74.5163 23.0319 74.5163ZM59.6126 81.2906H24.3868V76.9943C25.9639 76.4349 27.0965 74.9282 27.0965 73.1614V55.7326L30.0881 55.0674C29.9078 55.4983 29.8061 55.9697 29.8061 56.4655V61.4053C29.8061 63.4051 31.4332 65.0322 33.433 65.0322C33.7649 65.0322 34.0888 64.9712 34.4058 64.8817L35.3649 69.1982C36.2375 73.1219 38.1992 76.6973 41.0403 79.5384L41.9995 80.4963L42.9574 79.5384C45.7985 76.6973 47.7617 73.1231 48.6328 69.1982L49.5919 64.8817C49.9104 64.9712 50.234 65.0322 50.5659 65.0322C52.5657 65.0322 54.1928 63.4051 54.1928 61.4053V56.4655C54.1928 55.9697 54.0911 55.498 53.9109 55.0674L56.9024 55.7326V73.1614C56.9029 74.928 58.0357 76.4346 59.6126 76.9943V81.2906ZM73.1611 81.2904H62.3225V74.5161H60.9675C60.221 74.5161 59.6126 73.9091 59.6126 73.1611V56.334L61.4904 56.7513C68.3622 58.2784 73.1611 64.2616 73.1611 71.2999V81.2904Z" fill="#00A1FF"/>
</svg>
