<svg width="80" height="80" viewBox="0 0 80 80" fill="none" xmlns="http://www.w3.org/2000/svg">
<path d="M74.4686 23.536C74.4686 23.5313 74.4701 23.5266 74.4686 23.5219C74.4686 23.5188 74.467 23.5156 74.4654 23.5125C74.4654 23.5094 74.4654 23.5047 74.4639 23.5016C74.4623 23.4969 74.4592 23.4938 74.4592 23.4891C74.3154 22.6578 73.8623 21.9078 73.2107 21.3844C66.0498 10.4985 54.0092 4.00159 40.9795 4.00159C28.2998 4.00159 16.492 10.211 9.27481 20.6219C8.80918 20.575 8.34043 20.6203 7.89356 20.7672C6.45449 21.2313 5.4873 22.5641 5.4873 24.0813C5.4873 24.3641 5.52793 24.6656 5.60606 24.9656L9.60449 41.336L9.60606 41.3375L12.2248 52.0469C12.5076 53.0828 13.0342 54.0531 13.7451 54.8531L21.5873 63.6438C22.1639 64.2891 22.4154 65.15 22.2779 66.0016L20.8232 74.8969C20.7811 75.15 20.867 75.4078 21.0514 75.586C21.1982 75.7281 21.3936 75.8063 21.5951 75.8063C21.6467 75.8063 21.6967 75.8016 21.7482 75.7906L34.442 73.2641C34.7436 73.2047 34.9811 72.9734 35.0514 72.675L37.0889 63.9672C37.5561 62.025 37.2529 59.9969 36.2373 58.2578L28.8686 45.6735C29.8795 45.9 30.8686 46.0281 31.8264 46.0281C32.3982 46.0281 32.9607 45.9875 33.5107 45.9063C35.6467 45.5969 37.8467 44.6 39.8904 43.0313C39.9357 43.0328 39.9764 43.0422 40.0217 43.0422C40.0545 43.0422 40.0904 43.036 40.1232 43.0344C41.6045 44.1735 43.8389 45.5219 46.492 45.9063C47.0436 45.9875 47.6061 46.0281 48.1795 46.0281C49.1389 46.0281 50.1326 45.9 51.1467 45.6719L43.7764 58.2578C42.7639 59.9922 42.4576 62.0188 42.9139 63.9641L45.0404 73.025C45.1107 73.3266 45.3545 73.5578 45.6576 73.6156L58.3076 75.9844C58.3561 75.9938 58.4045 75.9985 58.4514 75.9985C58.6545 75.9985 58.8514 75.9203 58.9982 75.775C59.1811 75.5969 59.2654 75.3406 59.2232 75.0891L58.1264 68.3719V68.3703L57.7342 65.9985C57.5904 65.15 57.8389 64.2906 58.4186 63.6438L66.2607 54.8516C66.9857 54.036 67.5123 53.0641 67.7857 52.025L71.6717 36.125L74.3967 24.975C74.4764 24.6656 74.517 24.3625 74.517 24.0735C74.5139 23.8735 74.4967 23.7 74.4686 23.536ZM40.9795 5.56721C52.8139 5.56721 63.7951 11.1563 70.7623 20.6125C69.4279 20.725 68.2076 21.611 67.742 22.9563L67.0529 25.0391C61.2436 16.4328 51.4061 11.1453 40.9795 11.1453C29.5201 11.1453 19.2076 17.2156 13.6279 27.0969L12.2529 22.9485C11.9936 22.1922 11.4732 21.5594 10.8217 21.1485C17.7717 11.3813 28.9654 5.56721 40.9795 5.56721ZM64.4498 32.8969C64.242 32.6047 63.9982 32.3344 63.6904 32.1063C63.2264 31.7594 62.6795 31.5297 62.1201 31.4391C60.6951 31.1922 59.2061 31.9235 58.4107 33.261L54.3654 40.1688C53.5061 39.4891 52.4076 38.7516 51.1264 38.1594C51.6967 37.7375 52.2326 37.2875 52.7186 36.8031C57.517 31.9985 57.7154 24.5703 57.7217 24.2578C57.7248 24.0453 57.6436 23.8391 57.4936 23.6891C57.3436 23.5391 57.1311 23.4547 56.9248 23.4594C56.8154 23.461 54.2732 23.5219 51.2045 24.4985C50.8451 21.95 49.9451 20.0188 49.9029 19.9281C49.7357 19.5735 49.3326 19.4 48.9576 19.5156C48.8451 19.5516 46.4592 20.3297 44.1654 22.0953C44.1123 21.986 44.0701 21.8781 44.0139 21.7688C42.5123 18.7656 40.6623 16.8281 40.5842 16.7469C40.4373 16.5938 40.2326 16.5078 40.0201 16.5078C39.8076 16.5078 39.6045 16.5938 39.4561 16.7469C39.3639 16.8438 37.3623 18.9438 35.8357 22.1531C33.5201 20.3485 31.0779 19.5516 30.9639 19.5156C30.5889 19.4 30.1857 19.5719 30.0186 19.9281C29.9764 20.0188 29.0826 21.936 28.7232 24.475C25.6904 23.525 23.192 23.461 23.0764 23.4594C22.8451 23.4641 22.6576 23.5375 22.5076 23.6891C22.3576 23.8391 22.2748 24.0438 22.2779 24.2578C22.2842 24.5719 22.4811 32 27.2857 36.8031C27.7654 37.2828 28.3014 37.7344 28.8748 38.1578C27.5936 38.7485 26.4967 39.486 25.6373 40.1656L21.5889 33.261C20.8061 31.9235 19.3186 31.1938 17.8998 31.4375C17.3295 31.5266 16.7967 31.75 16.3092 32.1047C16.0014 32.3328 15.7561 32.6047 15.5498 32.8985L14.3061 29.1438C19.4186 19.0016 29.6045 12.7094 40.9795 12.7094C51.2967 12.7094 61.0076 18.1578 66.4217 26.9438L64.4498 32.8969ZM30.9389 37.6625C29.9748 37.0828 29.1186 36.4219 28.3936 35.6969C24.9451 32.2485 24.1061 27.1063 23.9061 25.086C24.9951 25.1922 26.9889 25.4828 29.1248 26.261C31.117 26.9938 32.7889 27.9906 34.1232 29.2094C34.1311 31.6344 34.792 34.1469 36.0889 36.6781C36.4576 37.4016 36.8873 38.1344 37.3639 38.8563C37.2076 39.1844 37.117 39.5391 37.0936 39.9078C35.3014 39.5641 33.0342 38.9141 30.9389 37.6625ZM30.2295 25.0094C30.4201 23.4156 30.8686 22.036 31.1607 21.2625C32.0576 21.6297 33.7029 22.4047 35.1951 23.6453C35.0779 23.9516 34.9717 24.2563 34.8732 24.561C34.8701 24.5719 34.867 24.5828 34.8639 24.5938C34.7311 25.0094 34.6217 25.425 34.5248 25.8375C34.5014 25.936 34.4779 26.036 34.4561 26.1344C34.3748 26.5125 34.3029 26.8891 34.2514 27.2625C34.2451 27.2578 34.2389 27.2547 34.2342 27.25C34.2201 27.2391 34.2029 27.2297 34.1889 27.2172C33.8154 26.9344 33.417 26.6688 33.0061 26.4141C32.8998 26.3485 32.7936 26.2844 32.6857 26.2203C32.2498 25.9641 31.8014 25.7156 31.3264 25.4906H31.3248C30.9717 25.3203 30.6061 25.1594 30.2295 25.0094ZM36.8514 23.7172C37.8451 21.311 39.2482 19.4203 40.0201 18.4828C40.6529 19.2531 41.7107 20.6656 42.617 22.4766C42.8217 22.8766 42.9998 23.2578 43.1608 23.65C43.9029 25.4063 44.3029 27.1531 44.3498 28.8547C44.3545 28.9563 44.3545 29.0625 44.3545 29.1641C44.3545 31.2344 43.817 33.3906 42.7607 35.5641L42.592 35.9047C42.2998 36.4766 41.9623 37.0516 41.6045 37.6219L41.542 37.5813C41.517 37.5641 41.4795 37.5438 41.442 37.525C41.3764 37.4875 41.3107 37.4547 41.2451 37.4266C41.2107 37.4094 41.1795 37.3938 41.1576 37.3844L41.0232 37.3313C40.942 37.3 40.8623 37.275 40.7748 37.2578C40.6514 37.2219 40.5154 37.1985 40.3607 37.1766C40.1389 37.1516 39.9186 37.15 39.6639 37.1781C39.4389 37.2078 39.2436 37.2516 39.0686 37.3156C39.0061 37.3375 38.9498 37.3594 38.9451 37.3641C38.8654 37.3891 38.8014 37.4203 38.7545 37.4469C38.6951 37.4719 38.6436 37.5 38.6123 37.5203C38.5514 37.5532 38.4982 37.5953 38.4404 37.6313C38.0904 37.0781 37.7639 36.5219 37.4826 35.9703C36.2904 33.6438 35.6857 31.3547 35.6857 29.1672C35.6857 29.0735 35.6857 28.9844 35.6904 28.8781C35.7014 28.4625 35.7326 28.0422 35.7873 27.6188C35.9467 26.3406 36.3045 25.0344 36.8514 23.7172ZM44.8186 23.5735C46.2857 22.3735 47.8826 21.6219 48.7607 21.2625C49.0561 22.0422 49.5076 23.4344 49.6982 25.0391C49.3342 25.186 48.9811 25.3422 48.6373 25.5063C48.1732 25.7281 47.7357 25.9703 47.3076 26.2219C47.2029 26.2844 47.0982 26.3469 46.9951 26.411C46.5904 26.6625 46.1967 26.9235 45.8279 27.2031C45.8154 27.2125 45.8029 27.2203 45.7904 27.2297C45.7889 27.2313 45.7857 27.2328 45.7857 27.2328C45.7326 26.8453 45.6561 26.4563 45.5717 26.0672C45.5514 25.9703 45.5279 25.875 45.5045 25.7781C45.4029 25.3531 45.2904 24.9281 45.1514 24.5016C45.1498 24.4969 45.1483 24.4922 45.1467 24.4875C45.0451 24.1844 44.9373 23.8781 44.8186 23.5735ZM39.7857 41.4578C39.3045 41.375 38.8998 41.0391 38.7232 40.5688C38.6701 40.4313 38.6404 40.2703 38.6404 40.1016C38.6404 39.8063 38.7326 39.5266 38.9076 39.2953C38.942 39.2516 38.9764 39.2063 38.9904 39.1891C38.9951 39.1844 38.9998 39.1797 39.0045 39.1735C39.0139 39.1641 39.0217 39.1547 39.0311 39.1453C39.1217 39.0438 39.2279 38.9594 39.3717 38.8797C39.4154 38.8625 39.4373 38.8531 39.4779 38.8297L39.592 38.786C39.6623 38.7594 39.7529 38.7406 39.8514 38.7281C39.9623 38.7156 40.1029 38.7188 40.1654 38.725C40.2326 38.7344 40.2998 38.7438 40.3607 38.7625C40.3889 38.7703 40.4264 38.7797 40.4545 38.786C40.4545 38.786 40.5154 38.811 40.5482 38.8219C40.5904 38.8453 40.6357 38.8688 40.6701 38.8813C40.6857 38.8906 40.7014 38.8985 40.7154 38.9063C40.7326 38.9172 40.7498 38.9297 40.7514 38.9313L40.7998 38.961C40.8482 38.9969 40.8904 39.0328 40.9873 39.1172C41.0092 39.1438 41.0326 39.1672 41.0576 39.1891C41.0889 39.2219 41.1139 39.2578 41.1326 39.2813C41.2561 39.4516 41.4045 39.7328 41.4045 40.1C41.4045 40.2578 41.3748 40.4156 41.3154 40.5766C41.1451 41.0422 40.7311 41.3813 40.2498 41.4563C40.0936 41.4797 39.9186 41.4797 39.7857 41.4578ZM42.9514 39.8985C42.9264 39.5391 42.8373 39.1891 42.6795 38.8563C43.1623 38.1172 43.6029 37.3641 43.9936 36.5985L44.1639 36.2531C45.3264 33.861 45.9154 31.4797 45.9186 29.175C47.2342 27.9813 48.8686 27.0047 50.8123 26.286C51.0311 26.2031 51.2482 26.1281 51.4654 26.0578C53.3732 25.4266 55.1092 25.1797 56.0967 25.0844C55.8998 27.1016 55.067 32.2391 51.6139 35.6953C50.8748 36.4297 50.017 37.0922 49.0639 37.6625C46.9623 38.9172 44.7186 39.5625 42.9514 39.8985ZM35.5654 63.6078L33.6404 71.8281L22.5482 74.0359L23.8217 66.2531C24.0342 64.9313 23.6451 63.6 22.7529 62.6016L14.9123 53.8125C14.3607 53.1922 13.9529 52.4391 13.7373 51.6563L11.1248 40.9672V40.9656L7.12168 24.5828C7.07481 24.4031 7.05137 24.2328 7.05137 24.0828C7.05137 23.2594 7.59512 22.5094 8.37793 22.2563C8.71543 22.1453 9.07324 22.1375 9.44512 22.2391C10.0576 22.3828 10.5654 22.8485 10.7717 23.4485L12.7154 29.3156C12.7186 29.3235 12.7201 29.3297 12.7232 29.3375L15.067 36.4125C15.0826 36.4578 15.1139 36.4922 15.1357 36.5328C15.2311 36.8781 15.3451 37.2313 15.5029 37.5969C16.0514 38.8391 17.4748 43.6516 17.942 45.2266C18.1186 45.8406 18.4248 46.411 18.8529 46.9235L22.4514 51.211C22.6061 51.3953 22.8279 51.4906 23.0514 51.4906C23.2295 51.4906 23.4076 51.4297 23.5545 51.3078C23.8857 51.0297 23.9279 50.536 23.6514 50.2063L20.0545 45.9203C19.7686 45.5766 19.5639 45.1985 19.4467 44.7891C18.6217 42.0047 17.4654 38.1641 16.9404 36.9735C16.5279 36.0156 16.0186 34.2719 17.2404 33.3688C17.5201 33.1656 17.8248 33.0375 18.1592 32.9844C18.9498 32.8485 19.7873 33.2781 20.2436 34.0547L26.4967 44.7203C26.5014 44.7313 26.5092 44.7391 26.5139 44.75L27.3795 46.2266L27.3811 46.2281L34.8889 59.0516C35.6967 60.4375 35.9389 62.0547 35.5654 63.6078ZM33.2811 44.3578C31.5686 44.611 29.7029 44.4016 27.7357 43.7422L26.4373 41.5281C27.4373 40.7156 28.8311 39.7844 30.4748 39.1922C32.942 40.5875 35.5545 41.2516 37.4717 41.5641C37.6482 41.8688 37.8732 42.1406 38.142 42.3641C36.8639 43.225 35.1857 44.0813 33.2811 44.3578ZM46.7154 44.3578C44.8279 44.0828 43.1592 43.2344 41.8857 42.3781C42.1639 42.1516 42.3967 41.8703 42.5764 41.5547C44.4701 41.2485 47.0576 40.5906 49.5248 39.1922C51.1701 39.7844 52.5654 40.7188 53.5654 41.5313L52.2732 43.7391C50.3014 44.4 48.4342 44.611 46.7154 44.3578ZM72.8748 24.5938L70.1482 35.7547L66.2654 51.6406C66.0576 52.4281 65.6498 53.1797 65.0873 53.811L57.2467 62.6016C56.3498 63.6047 55.9639 64.9375 56.1873 66.2563L56.5795 68.625V68.6266L57.4967 74.2406L46.4436 72.1703L44.4342 63.6063C44.0686 62.0531 44.3139 60.4344 45.1232 59.0485L52.6326 46.225L52.6342 46.2234L59.7576 34.0578C60.2217 33.2781 61.0654 32.8485 61.8623 32.9844C62.1842 33.036 62.492 33.1656 62.7576 33.3641C63.9936 34.2781 63.4795 36.0156 63.0623 36.9703C62.4092 38.475 60.7498 44.15 60.5654 44.7828C60.4357 45.2078 60.2311 45.5906 59.9576 45.9188L56.3498 50.2063C56.0717 50.536 56.1139 51.0297 56.4451 51.3094C56.592 51.4328 56.7701 51.4922 56.9482 51.4922C57.1717 51.4922 57.392 51.3969 57.5467 51.2125L61.1561 46.9235C61.5654 46.4313 61.8701 45.8656 62.0639 45.2297C62.6857 43.0922 63.9951 38.7469 64.4951 37.5953C64.6529 37.2344 64.7686 36.8844 64.8639 36.5406C64.8873 36.4985 64.9139 36.461 64.9295 36.4125L68.0217 27.0813L69.2217 23.4578C69.5607 22.475 70.6373 21.9406 71.6279 22.2594C71.817 22.3188 71.9889 22.4063 72.1389 22.5188C72.142 22.5203 72.1451 22.5203 72.1482 22.5235C72.1514 22.5266 72.1529 22.5297 72.1561 22.5313C72.5607 22.8203 72.8389 23.2719 72.9186 23.7703C72.9186 23.7735 72.9217 23.7766 72.9217 23.7797V23.7891C72.9389 23.8813 72.9436 23.9797 72.9436 24.0703C72.9482 24.2328 72.9248 24.3985 72.8748 24.5938Z" fill="#00A1FF"/>
</svg>
