<svg width="90" height="90" viewBox="0 0 90 90" fill="none" xmlns="http://www.w3.org/2000/svg">
<path d="M23.9063 66.0938C23.9063 59.0625 20.7281 54.4641 17.0156 53.0016C16.3402 52.7567 15.7426 52.3354 15.2851 51.7815C14.8276 51.2275 14.5268 50.5611 14.4141 49.8516C13.486 42.1875 7.03127 42.1875 7.03127 42.1875C6.28534 42.1875 5.56997 42.4838 5.04253 43.0113C4.51508 43.5387 4.21877 44.2541 4.21877 45V45.9281C4.21695 46.6297 4.37569 47.3224 4.68283 47.9531C6.08908 50.6109 9.75939 58.6266 10.6313 65.8828C11.4328 72.5484 13.4438 75.4594 15.75 76.9641C16.514 77.467 17.1438 78.1486 17.5849 78.9499C18.026 79.7512 18.265 80.648 18.2813 81.5625V85.7812" stroke="#00A1FF" stroke-width="2.5" stroke-linecap="square" stroke-linejoin="round"/>
<path d="M21.0938 22.5C21.0938 21.3811 20.6493 20.3081 19.8581 19.5169C19.0669 18.7257 17.9939 18.2812 16.875 18.2812C15.7561 18.2812 14.6831 18.7257 13.8919 19.5169C13.1007 20.3081 12.6562 21.3811 12.6562 22.5V45" stroke="#00A1FF" stroke-width="2.5" stroke-linecap="round" stroke-linejoin="round"/>
<path d="M21.0938 46.4062V15.4688C21.0938 14.3499 21.5382 13.2768 22.3294 12.4856C23.1206 11.6945 24.1936 11.25 25.3125 11.25C26.4314 11.25 27.5044 11.6945 28.2956 12.4856C29.0868 13.2768 29.5312 14.3499 29.5312 15.4688V45" stroke="#00A1FF" stroke-width="2.5" stroke-linecap="square" stroke-linejoin="round"/>
<path d="M45.0003 52.0312V70.3125C45.0867 71.7601 44.8343 73.2078 44.263 74.5407C43.6918 75.8736 42.8175 77.0549 41.7097 77.9906C40.9802 78.5038 40.3866 79.1867 39.9799 79.9805C39.5732 80.7743 39.3657 81.655 39.3753 82.5469V85.7812" stroke="#00A1FF" stroke-width="2.5" stroke-linecap="square" stroke-linejoin="round"/>
<path d="M29.5313 19.6875C29.53 18.8319 29.7889 17.9961 30.2737 17.291C30.7585 16.586 31.4463 16.045 32.2456 15.7399C33.045 15.4348 33.9183 15.38 34.7496 15.5827C35.5809 15.7854 36.3308 16.2361 36.9 16.875" stroke="#00A1FF" stroke-width="2.5" stroke-linecap="round" stroke-linejoin="round"/>
<path d="M66.0938 66.0938C66.0938 59.0625 69.2719 54.4641 72.9844 53.0016C73.6598 52.7567 74.2574 52.3354 74.7149 51.7815C75.1724 51.2275 75.4732 50.5611 75.5859 49.8516C76.5141 42.1875 82.9688 42.1875 82.9688 42.1875C83.7147 42.1875 84.43 42.4838 84.9575 43.0113C85.4849 43.5387 85.7812 44.2541 85.7812 45V45.9281C85.7831 46.6297 85.6243 47.3224 85.3172 47.9531C83.9109 50.6109 80.2406 58.6266 79.3687 65.8828C78.5672 72.5484 76.5562 75.4594 74.25 76.9641C73.486 77.467 72.8562 78.1486 72.4151 78.9499C71.974 79.7512 71.735 80.648 71.7188 81.5625V85.7812" stroke="#00A1FF" stroke-width="2.5" stroke-linecap="square" stroke-linejoin="round"/>
<path d="M68.9062 22.5C68.9062 21.3811 69.3507 20.3081 70.1419 19.5169C70.9331 18.7257 72.0061 18.2813 73.125 18.2812C74.2439 18.2812 75.3169 18.7257 76.1081 19.5169C76.8993 20.3081 77.3438 21.3811 77.3438 22.5V45" stroke="#00A1FF" stroke-width="2.5" stroke-linecap="round" stroke-linejoin="round"/>
<path d="M68.9062 46.4062V15.4688C68.9062 14.3499 68.4618 13.2768 67.6706 12.4856C66.8794 11.6945 65.8064 11.25 64.6875 11.25C63.5686 11.25 62.4956 11.6945 61.7044 12.4856C60.9132 13.2768 60.4688 14.3499 60.4688 15.4688V45" stroke="#00A1FF" stroke-width="2.5" stroke-linecap="square" stroke-linejoin="round"/>
<path d="M45 52.0312V70.3125C44.9136 71.7601 45.166 73.2078 45.7372 74.5407C46.3085 75.8736 47.1828 77.0549 48.2906 77.9906C49.02 78.5038 49.6137 79.1867 50.0204 79.9805C50.4271 80.7743 50.6346 81.655 50.625 82.5469V85.7812" stroke="#00A1FF" stroke-width="2.5" stroke-linecap="square" stroke-linejoin="round"/>
<path d="M60.4684 19.6875C60.4696 18.8318 60.2107 17.996 59.7259 17.291C59.2411 16.5859 58.5534 16.045 57.754 15.7399C56.9546 15.4347 56.0813 15.3799 55.25 15.5827C54.4188 15.7854 53.6688 16.2361 53.0996 16.875" stroke="#00A1FF" stroke-width="2.5" stroke-linecap="round" stroke-linejoin="round"/>
<path d="M52.0312 28.125V33.75H49.2188C48.8458 33.75 48.4881 33.8982 48.2244 34.1619C47.9607 34.4256 47.8125 34.7833 47.8125 35.1562V37.9688H42.1875V35.1562C42.1875 34.7833 42.0393 34.4256 41.7756 34.1619C41.5119 33.8982 41.1542 33.75 40.7812 33.75H37.9688V28.125H40.7812C41.1542 28.125 41.5119 27.9768 41.7756 27.7131C42.0393 27.4494 42.1875 27.0917 42.1875 26.7188V23.9062H47.8125V26.7188C47.8125 27.0917 47.9607 27.4494 48.2244 27.7131C48.4881 27.9768 48.8458 28.125 49.2188 28.125H52.0312Z" stroke="#00A1FF" stroke-width="2.5" stroke-linejoin="round"/>
<path fill-rule="evenodd" clip-rule="evenodd" d="M45 4.21875L46.0286 3.50842C45.7952 3.17049 45.4107 2.96875 45 2.96875C44.5893 2.96875 44.2048 3.17049 43.9714 3.50842L45 4.21875ZM50 46.8169C52.1734 46.066 54.1708 44.8281 55.8276 43.1713C58.6992 40.2997 60.3125 36.4049 60.3125 32.3438C60.3125 30.1192 59.3318 27.1809 58.0096 24.1716C56.6649 21.1109 54.8816 17.793 53.1125 14.7431C51.3411 11.6892 49.5714 8.88268 48.2456 6.84092C47.5824 5.8195 47.0293 4.98818 46.6416 4.41145C46.4477 4.12305 46.2951 3.89824 46.1907 3.74507C46.1384 3.66848 46.0982 3.60979 46.0709 3.57002L46.0398 3.52466L46.0316 3.51285L46.0294 3.50971L46.0288 3.50883C46.0287 3.50859 46.0286 3.50842 45 4.21875C43.9714 3.50842 43.9713 3.50859 43.9712 3.50883L43.9706 3.50971L43.9684 3.51285L43.9602 3.52466L43.9291 3.57002C43.9018 3.60979 43.8616 3.66848 43.8093 3.74507C43.7049 3.89824 43.5523 4.12305 43.3584 4.41145C42.9707 4.98818 42.4176 5.8195 41.7544 6.84092C40.4286 8.88268 38.6589 11.6892 36.8875 14.7431C35.1184 17.793 33.3351 21.1109 31.9904 24.1716C30.6682 27.1809 29.6875 30.1192 29.6875 32.3438C29.6875 36.4049 31.3008 40.2997 34.1724 43.1713C35.8292 44.8281 37.8266 46.066 40 46.8169V44.1404C38.4977 43.5036 37.1164 42.5797 35.9402 41.4036C33.5374 39.0007 32.1875 35.7418 32.1875 32.3438C32.1875 30.6871 32.9646 28.1691 34.2792 25.1772C35.5711 22.2367 37.3034 19.0086 39.05 15.9975C40.7942 12.9905 42.5402 10.2212 43.8511 8.20244C44.2883 7.52922 44.6766 6.94004 45 6.45399C45.3234 6.94004 45.7117 7.52922 46.1489 8.20244C47.4598 10.2212 49.2058 12.9905 50.95 15.9975C52.6966 19.0086 54.4289 22.2367 55.7208 25.1772C57.0354 28.1691 57.8125 30.6871 57.8125 32.3438C57.8125 35.7418 56.4626 39.0007 54.0598 41.4036C52.8836 42.5797 51.5023 43.5036 50 44.1404V46.8169Z" fill="#00A1FF"/>
</svg>
