<svg width="40" height="40" viewBox="0 0 40 40" fill="none" xmlns="http://www.w3.org/2000/svg">
<path d="M37.8207 17.4546L34.3666 14.7248L35.9825 10.5891C36.0259 10.4782 36.0163 10.3536 35.9563 10.2506C35.8965 10.1477 35.793 10.0777 35.6752 10.0604L31.3189 9.42328L30.6505 5.03375C30.6326 4.91609 30.5619 4.81297 30.4586 4.75375C30.3553 4.69453 30.2306 4.68555 30.12 4.72961L26.0289 6.35602L23.2553 2.88883C23.1811 2.79609 23.0688 2.74219 22.9503 2.74219C22.9499 2.74219 22.9495 2.74219 22.9491 2.74219C22.83 2.7425 22.7176 2.79719 22.6438 2.89063L19.9139 6.34469L15.7782 4.72875C15.6674 4.68547 15.5427 4.695 15.4398 4.75484C15.3369 4.81469 15.2668 4.9182 15.2495 5.03602L14.6124 9.39227L10.223 10.0607C10.1053 10.0786 10.0022 10.1492 9.94299 10.2526C9.88369 10.3559 9.87486 10.4805 9.91877 10.5912L11.5451 14.6823L8.07791 17.4559C7.98494 17.5303 7.93096 17.643 7.93127 17.7621C7.93166 17.8812 7.98627 17.9936 8.07963 18.0674L10.338 19.8523L9.71978 21.0241C9.57314 21.3023 9.38619 21.4964 9.11385 21.6537L3.81924 24.7106C2.99408 25.1871 2.40291 25.9595 2.15471 26.8857C1.9065 27.8119 2.03221 28.7765 2.50861 29.6016C2.98502 30.4268 3.75752 31.018 4.68377 31.2662C4.99447 31.3494 5.30939 31.3906 5.62189 31.3906C6.11267 31.3906 6.59697 31.2874 7.04994 31.0878L9.97392 36.1523C10.3832 36.8612 11.1283 37.258 11.8935 37.258C12.2685 37.258 12.6485 37.1627 12.9959 36.962C14.0523 36.352 14.4156 34.9964 13.8056 33.9399L10.8931 28.8953L12.6943 27.8554C12.9666 27.6981 13.2275 27.6337 13.5426 27.6454L14.8242 27.6944L15.2496 30.4883C15.2675 30.606 15.3382 30.7091 15.4415 30.7684C15.5447 30.8276 15.6695 30.8365 15.7801 30.7925L19.8713 29.1661L22.6449 32.6333C22.7191 32.726 22.8313 32.7799 22.9499 32.7799H22.9511C23.0702 32.7796 23.1826 32.7249 23.2564 32.6315L25.9862 29.1774L30.1219 30.7934C30.2327 30.8366 30.3574 30.827 30.4603 30.7673C30.5632 30.7074 30.6333 30.6039 30.6506 30.4861L31.2877 26.1298L35.6772 25.4614C35.7949 25.4435 35.898 25.3729 35.9572 25.2695C36.0165 25.1663 36.0253 25.0416 35.9814 24.9309L34.3551 20.8398L37.8223 18.0662C37.9153 17.9918 37.9692 17.8791 37.9689 17.76C37.9687 17.6409 37.9141 17.5284 37.8207 17.4546ZM13.1293 34.3305C13.5238 35.0139 13.2888 35.8909 12.6055 36.2854C11.9221 36.6798 11.0453 36.4449 10.6507 35.7616L7.73822 30.717L10.2169 29.2859L13.1293 34.3305ZM12.3039 27.1788L7.00931 30.2357C6.36478 30.6078 5.6108 30.7057 4.88619 30.5116C4.16158 30.3174 3.55752 29.8555 3.18541 29.2111C2.8133 28.5666 2.71525 27.8127 2.90955 27.088C3.10369 26.3634 3.56556 25.7593 4.21002 25.3872L9.50463 22.3303C9.90658 22.0982 10.1945 21.799 10.411 21.3887L12.0322 18.3152C12.222 17.9555 12.5642 17.7447 12.9708 17.737C13.3764 17.7299 13.7274 17.9268 13.9306 18.279L18.0255 25.3715C18.2289 25.7237 18.2251 26.1255 18.015 26.4738C17.805 26.822 17.4546 27.0132 17.0449 26.9974L13.5726 26.8648C13.1096 26.8471 12.7057 26.9469 12.3039 27.1788ZM33.6415 20.4103C33.5073 20.5177 33.459 20.7 33.5225 20.8596L35.0742 24.763L30.8845 25.4009C30.7146 25.4268 30.5817 25.5605 30.5568 25.7305L29.949 29.8868L26.0016 28.3445C25.8416 28.282 25.6595 28.3312 25.553 28.4661L22.9485 31.7616L20.3011 28.4522C20.1938 28.318 20.0114 28.2698 19.8518 28.3333L15.9484 29.885L15.6195 27.7248L17.0151 27.7781C17.7051 27.8047 18.328 27.4677 18.684 26.8773C19.0401 26.2869 19.0469 25.578 18.702 24.9809L14.6072 17.8884C14.2625 17.2913 13.647 16.9434 12.9558 16.9559C12.2665 16.9691 11.6629 17.341 11.3413 17.9508L10.7088 19.1496L8.94955 17.7592L12.2589 15.1119C12.3931 15.0045 12.4414 14.8222 12.3779 14.6626L10.8262 10.7592L15.0159 10.1212C15.1857 10.0954 15.3187 9.96164 15.3435 9.79164L15.9513 5.63531L19.8988 7.17773C20.0584 7.24016 20.2408 7.19094 20.3474 7.05609L22.9519 3.76055L25.5993 7.07C25.7067 7.20422 25.8891 7.25242 26.0486 7.18891L29.952 5.63719L30.5899 9.82687C30.6158 9.99672 30.7496 10.1297 30.9196 10.1545L35.0759 10.7623L33.5335 14.7098C33.471 14.8698 33.5204 15.0519 33.6552 15.1584L36.9508 17.763L33.6415 20.4103ZM26.2296 13.1429L21.2934 22.4612C21.2233 22.5935 21.0879 22.6691 20.9479 22.6691C20.8862 22.6691 20.8236 22.6544 20.7653 22.6235C20.5748 22.5225 20.502 22.2861 20.6031 22.0955L25.5393 12.7772C25.6403 12.5865 25.8767 12.514 26.0674 12.6148C26.2579 12.7159 26.3306 12.9523 26.2296 13.1429ZM21.3666 16.53C21.7966 16.0674 22.0207 15.465 21.9977 14.8338C21.9747 14.2026 21.7072 13.6182 21.2446 13.1882C20.782 12.7581 20.1803 12.5339 19.5485 12.557C18.9173 12.58 18.3328 12.8475 17.9028 13.3101C17.4728 13.7727 17.2487 14.3751 17.2717 15.0062C17.2947 15.6375 17.5622 16.2219 18.0248 16.6519C18.4658 17.0619 19.0337 17.2847 19.6325 17.2847C19.6619 17.2847 19.6914 17.2841 19.7209 17.283C20.352 17.26 20.9365 16.9926 21.3666 16.53ZM20.7943 15.9981C20.5063 16.3079 20.115 16.487 19.6924 16.5023C19.2697 16.5177 18.8664 16.3677 18.5567 16.0797C18.2469 15.7917 18.0678 15.4004 18.0524 14.9777C18.037 14.5551 18.1871 14.1517 18.475 13.842C18.7629 13.5322 19.1543 13.3531 19.5769 13.3377C19.5965 13.337 19.616 13.3366 19.6354 13.3366C20.482 13.3366 21.1859 14.0094 21.217 14.8623C21.2324 15.285 21.0823 15.6884 20.7943 15.9981ZM28.8081 18.5866C28.3455 18.1565 27.7442 17.933 27.1118 17.9554C25.8089 18.0029 24.7876 19.1016 24.835 20.4045C24.8815 21.6784 25.9325 22.683 27.1969 22.683C27.2259 22.683 27.2549 22.6825 27.2842 22.6814C27.9153 22.6584 28.4998 22.3909 28.9298 21.9284C29.3598 21.4658 29.5839 20.8634 29.561 20.2322C29.538 19.6011 29.2706 19.0166 28.8081 18.5866ZM28.3577 21.3965C28.0697 21.7062 27.6784 21.8853 27.2558 21.9007C26.3821 21.9332 25.6476 21.2486 25.6158 20.3761C25.584 19.5037 26.2679 18.768 27.1404 18.7361C27.5628 18.7206 27.9664 18.8709 28.2762 19.1588C28.586 19.4467 28.765 19.838 28.7804 20.2607C28.7958 20.6834 28.6456 21.0867 28.3577 21.3965Z" fill="#00A1FF"/>
</svg>
