<svg width="30" height="30" viewBox="0 0 30 30" fill="none" xmlns="http://www.w3.org/2000/svg">
<path d="M28.3658 13.091L25.7752 11.0436L26.9871 7.94186C27.0197 7.85865 27.0124 7.7652 26.9675 7.68797C26.9226 7.61074 26.845 7.55824 26.7566 7.54529L23.4894 7.06746L22.9881 3.77531C22.9747 3.68707 22.9217 3.60973 22.8442 3.56531C22.7667 3.5209 22.6732 3.51416 22.5903 3.54721L19.5219 4.76701L17.4417 2.16662C17.3861 2.09707 17.3019 2.05664 17.2129 2.05664C17.2126 2.05664 17.2123 2.05664 17.2121 2.05664C17.1228 2.05688 17.0384 2.09789 16.9831 2.16797L14.9357 4.75852L11.8339 3.54656C11.7508 3.5141 11.6572 3.52125 11.5801 3.56613C11.5029 3.61102 11.4504 3.68865 11.4374 3.77701L10.9596 7.0442L7.66748 7.54553C7.57918 7.55895 7.5019 7.61191 7.45748 7.68943C7.41301 7.76689 7.40639 7.86041 7.43932 7.94338L8.65907 11.0118L6.05868 13.092C5.98895 13.1477 5.94846 13.2323 5.9487 13.3216C5.94899 13.4109 5.98994 13.4952 6.05996 13.5506L7.75373 14.8892L7.29008 15.7681C7.1801 15.9767 7.03989 16.1223 6.83563 16.2403L2.86467 18.533C2.2458 18.8903 1.80243 19.4696 1.61627 20.1643C1.43012 20.8589 1.5244 21.5824 1.8817 22.2012C2.23901 22.8201 2.81838 23.2635 3.51307 23.4496C3.7461 23.512 3.98229 23.543 4.21666 23.543C4.58475 23.543 4.94797 23.4656 5.2877 23.3159L7.48069 27.1142C7.78766 27.6459 8.34647 27.9435 8.92039 27.9435C9.20164 27.9435 9.48659 27.872 9.74715 27.7215C10.5395 27.264 10.8119 26.2473 10.3545 25.4549L8.1701 21.6715L9.52098 20.8915C9.72518 20.7736 9.92088 20.7253 10.1572 20.734L11.1184 20.7708L11.4375 22.8662C11.4509 22.9545 11.5039 23.0319 11.5814 23.0763C11.6588 23.1207 11.7523 23.1274 11.8353 23.0944L14.9037 21.8746L16.9839 24.475C17.0396 24.5445 17.1238 24.5849 17.2127 24.5849H17.2136C17.3029 24.5847 17.3872 24.5437 17.4426 24.4736L19.4899 21.8831L22.5917 23.095C22.6747 23.1274 22.7683 23.1203 22.8455 23.0755C22.9227 23.0306 22.9752 22.9529 22.9882 22.8646L23.466 19.5974L26.7581 19.0961C26.8464 19.0826 26.9237 19.0297 26.9681 18.9522C27.0126 18.8747 27.0192 18.7812 26.9863 18.6982L25.7666 15.6298L28.367 13.5496C28.4367 13.4938 28.4772 13.4093 28.4769 13.32C28.4768 13.2306 28.4358 13.1463 28.3658 13.091ZM9.84723 25.7479C10.1431 26.2604 9.96688 26.9181 9.45436 27.214C8.94184 27.5099 8.28418 27.3337 7.98829 26.8212L5.80391 23.0377L7.66291 21.9645L9.84723 25.7479ZM9.22819 20.3841L5.25723 22.6768C4.77383 22.9559 4.20834 23.0293 3.66489 22.8837C3.12143 22.7381 2.66838 22.3917 2.3893 21.9083C2.11022 21.425 2.03668 20.8595 2.18241 20.316C2.32801 19.7725 2.67442 19.3195 3.15776 19.0404L7.12871 16.7477C7.43018 16.5737 7.64616 16.3492 7.80846 16.0415L9.0244 13.7364C9.16678 13.4667 9.42336 13.3085 9.72834 13.3027C10.0326 13.2974 10.2958 13.4451 10.4482 13.7092L13.5194 19.0286C13.6719 19.2928 13.6691 19.5941 13.5115 19.8553C13.354 20.1165 13.0912 20.2599 12.7839 20.2481L10.1797 20.1486C9.83246 20.1353 9.52953 20.2102 9.22819 20.3841ZM25.2314 15.3077C25.1307 15.3882 25.0945 15.525 25.1421 15.6447L26.3059 18.5722L23.1636 19.0507C23.0362 19.0701 22.9365 19.1704 22.9179 19.2979L22.462 22.4151L19.5014 21.2583C19.3814 21.2115 19.2448 21.2484 19.165 21.3496L17.2116 23.8212L15.2261 21.3391C15.1456 21.2385 15.0088 21.2024 14.8891 21.25L11.9615 22.4138L11.7148 20.7936L12.7616 20.8336C13.2791 20.8535 13.7462 20.6008 14.0132 20.158C14.2803 19.7152 14.2854 19.1835 14.0268 18.7357L10.9556 13.4163C10.6971 12.9685 10.2355 12.7075 9.71709 12.717C9.20012 12.7268 8.74743 13.0058 8.5062 13.4631L8.03188 14.3622L6.71241 13.3194L9.19444 11.3339C9.2951 11.2534 9.33131 11.1166 9.28368 10.9969L8.11989 8.06941L11.2622 7.59094C11.3895 7.57154 11.4893 7.47123 11.5079 7.34373L11.9638 4.22648L14.9243 5.3833C15.044 5.43012 15.1808 5.3932 15.2608 5.29207L17.2142 2.82041L19.1997 5.3025C19.2802 5.40316 19.4171 5.43932 19.5367 5.39168L22.4642 4.22789L22.9427 7.37016C22.9621 7.49754 23.0625 7.59727 23.19 7.6159L26.3072 8.07176L25.1504 11.0323C25.1035 11.1523 25.1406 11.2889 25.2416 11.3688L27.7133 13.3222L25.2314 15.3077ZM19.6725 9.85717L15.9703 16.8459C15.9177 16.9451 15.8162 17.0018 15.7112 17.0018C15.6649 17.0018 15.618 16.9908 15.5742 16.9676C15.4313 16.8919 15.3768 16.7146 15.4525 16.5716L19.1547 9.58289C19.2305 9.43986 19.4078 9.38549 19.5508 9.46113C19.6937 9.53689 19.7482 9.7142 19.6725 9.85717ZM16.0252 12.3975C16.3477 12.0506 16.5158 11.5988 16.4985 11.1254C16.4813 10.6519 16.2806 10.2137 15.9337 9.89115C15.5868 9.56859 15.1354 9.40043 14.6616 9.41777C14.1882 9.435 13.7499 9.63563 13.4274 9.98256C13.1049 10.3295 12.9368 10.7813 12.954 11.2547C12.9713 11.7281 13.1719 12.1664 13.5188 12.4889C13.8496 12.7964 14.2755 12.9635 14.7246 12.9635C14.7467 12.9635 14.7688 12.9631 14.7909 12.9623C15.2643 12.945 15.7026 12.7444 16.0252 12.3975ZM15.596 11.9986C15.38 12.2309 15.0865 12.3652 14.7695 12.3768C14.4525 12.3883 14.1501 12.2757 13.9177 12.0598C13.6854 11.8438 13.5511 11.5503 13.5395 11.2333C13.528 10.9163 13.6406 10.6138 13.8565 10.3815C14.0724 10.1491 14.366 10.0148 14.6829 10.0033C14.6976 10.0028 14.7122 10.0025 14.7268 10.0025C15.3617 10.0025 15.8897 10.507 15.913 11.1467C15.9246 11.4637 15.812 11.7663 15.596 11.9986ZM21.6063 13.9399C21.2594 13.6174 20.8084 13.4497 20.3341 13.4665C19.3569 13.5022 18.5909 14.3262 18.6265 15.3034C18.6614 16.2588 19.4496 17.0123 20.3979 17.0123C20.4197 17.0123 20.4414 17.0119 20.4634 17.0111C20.9367 16.9938 21.3751 16.7932 21.6976 16.4463C22.0201 16.0993 22.1882 15.6475 22.171 15.1741C22.1537 14.7008 21.9532 14.2625 21.6063 13.9399ZM21.2685 16.0474C21.0525 16.2797 20.759 16.414 20.4421 16.4255C19.7868 16.4499 19.2359 15.9364 19.2121 15.2821C19.1882 14.6278 19.7012 14.076 20.3556 14.0521C20.6723 14.0405 20.9751 14.1531 21.2074 14.3691C21.4397 14.585 21.574 14.8785 21.5856 15.1955C21.5971 15.5125 21.4844 15.815 21.2685 16.0474Z" fill="#00A1FF"/>
</svg>
