<svg width="90" height="90" viewBox="0 0 90 90" fill="none" xmlns="http://www.w3.org/2000/svg">
<path fill-rule="evenodd" clip-rule="evenodd" d="M43.7678 43.9425C41.2676 42.6618 40.0668 42.0468 38.9899 41.2619C37.9947 40.5365 37.1053 39.6661 35.394 37.9914C34.948 37.5549 34.4461 37.0637 33.8719 36.5063C33.2583 35.9449 32.4755 35.6035 31.6467 35.5357C30.8178 35.4679 29.9899 35.6775 29.2932 36.1316C28.5965 36.5857 28.0705 37.2585 27.7979 38.0442C27.5254 38.8299 27.5217 39.6839 27.7876 40.4719L28.0313 41.1375C29.0154 43.8202 30.7823 46.1455 33.1032 47.8125L33.9938 48.4594V84.7406C33.9938 84.7768 33.9959 84.8128 34 84.8484L34 84H35.8688V47.9531C35.8692 47.8052 35.8346 47.6593 35.7678 47.5273C35.701 47.3953 35.6039 47.281 35.4844 47.1938L34.2001 46.2563C32.1867 44.8051 30.6498 42.7886 29.7844 40.4625L29.5407 39.8063C29.4181 39.4157 29.4266 38.9957 29.5651 38.6104C29.7036 38.2251 29.9643 37.8958 30.3076 37.6726C30.6508 37.4495 31.0576 37.3448 31.4659 37.3746C31.8742 37.4044 32.2616 37.5669 32.5688 37.8375C33.0806 38.3349 33.5381 38.782 33.9519 39.1864C35.8649 41.056 36.844 42.0129 37.9407 42.8076C39.0905 43.6407 40.3694 44.2955 42.9893 45.6367C43.6565 45.9783 44.4107 46.3644 45.2719 46.8094C45.5399 46.9561 45.7458 47.1949 45.8516 47.4815C45.9573 47.7682 45.9558 48.0835 45.8472 48.3691C45.7387 48.6547 45.5305 48.8914 45.261 49.0355C44.9916 49.1796 44.6791 49.2214 44.3813 49.1531L42.1876 48.5906C42.0466 48.5541 41.899 48.551 41.7566 48.5815C41.6142 48.612 41.4808 48.6752 41.3671 48.7662C41.2533 48.8572 41.1624 48.9734 41.1014 49.1057C41.0404 49.2379 41.011 49.3826 41.0157 49.5281V84H42.8907V50.7094L43.9594 50.9813C44.7089 51.1846 45.5071 51.1022 46.1993 50.7501C46.8914 50.398 47.428 49.8013 47.7049 49.0757C47.9817 48.3502 47.9792 47.5477 47.6976 46.824C47.4161 46.1003 46.8757 45.507 46.1813 45.1594H46.1344C45.2324 44.6926 44.4515 44.2926 43.7678 43.9425Z" fill="#00A1FF"/>
<path d="M25.8473 59.9999L24.5254 38.9999C24.3308 35.9231 24.8931 32.8454 26.1629 30.036C27.4328 27.2267 29.3716 24.7712 31.8098 22.8843L58.5098 2.13744C58.5098 2.13744 58.1533 1.69643 58.0004 1.5C57.8475 1.30357 57.3566 0.65625 57.3566 0.65625L30.6566 21.3843C27.9786 23.4606 25.8496 26.161 24.4556 29.2496C23.0616 32.3383 22.4451 35.7212 22.6598 39.1031L23.8879 58.7437C21.7395 57.6501 19.34 57.1442 16.933 57.2772C14.5259 57.4102 12.1969 58.1775 10.1821 59.5012C8.16725 60.8249 6.53835 62.6579 5.4606 64.8143C4.38284 66.9707 3.89457 69.3738 4.0453 71.7798C4.19604 74.1858 4.98042 76.5092 6.31889 78.5142C7.65735 80.5192 9.50229 82.1346 11.6666 83.1964C13.8308 84.2583 16.2374 84.7289 18.6423 84.5605C21.0471 84.392 23.3646 83.5906 25.3598 82.2374L25.6973 87.6093L27.0004 87.5L27.5723 87.4874L27.1879 80.7843C28.6188 79.4107 29.7326 77.7411 30.4512 75.8923C31.1698 74.0434 31.4759 72.06 31.3483 70.0805C31.2206 68.1011 30.6621 66.1734 29.712 64.4322C28.7618 62.691 27.4428 61.1784 25.8473 59.9999ZM25.5566 79.6874C23.9095 81.1743 21.8766 82.1668 19.6912 82.5509C17.5057 82.9351 15.2562 82.6954 13.2008 81.8594C11.1453 81.0234 9.36714 79.625 8.07026 77.8244C6.77338 76.0239 6.01032 73.8942 5.86861 71.6798C5.7269 69.4654 6.2123 67.2559 7.2691 65.3047C8.3259 63.3536 9.91131 61.7398 11.8434 60.6487C13.7756 59.5575 15.9762 59.0331 18.1928 59.1355C20.4094 59.238 22.5522 59.9633 24.3754 61.2281C25.8339 62.2442 27.0445 63.5762 27.9171 65.1248C28.7897 66.6735 29.3018 68.3991 29.4153 70.173C29.5288 71.947 29.2408 73.7237 28.5728 75.371C27.9047 77.0183 26.8737 78.4937 25.5566 79.6874Z" fill="#00A1FF"/>
<path d="M23.4375 68.1562H20.4563V65.1469C20.4563 64.8982 20.3575 64.6598 20.1817 64.4839C20.0058 64.3081 19.7674 64.2094 19.5188 64.2094H15.8625C15.6139 64.2094 15.3754 64.3081 15.1996 64.4839C15.0238 64.6598 14.925 64.8982 14.925 65.1469V68.1562H11.9063C11.6576 68.1562 11.4192 68.255 11.2433 68.4308C11.0675 68.6066 10.9688 68.8451 10.9688 69.0937V72.75C10.9688 72.9986 11.0675 73.2371 11.2433 73.4129C11.4192 73.5887 11.6576 73.6875 11.9063 73.6875H14.925V76.7062C14.925 76.9549 15.0238 77.1933 15.1996 77.3691C15.3754 77.545 15.6139 77.6437 15.8625 77.6437H19.5188C19.7674 77.6437 20.0058 77.545 20.1817 77.3691C20.3575 77.1933 20.4563 76.9549 20.4563 76.7062V73.6875H23.4375C23.6861 73.6875 23.9246 73.5887 24.1004 73.4129C24.2762 73.2371 24.375 72.9986 24.375 72.75V69.0937C24.375 68.8451 24.2762 68.6066 24.1004 68.4308C23.9246 68.255 23.6861 68.1562 23.4375 68.1562ZM22.5 71.8125H19.5188C19.2701 71.8125 19.0317 71.9112 18.8558 72.0871C18.68 72.2629 18.5813 72.5013 18.5813 72.75V75.7687H16.8V72.75C16.8 72.5013 16.7012 72.2629 16.5254 72.0871C16.3496 71.9112 16.1111 71.8125 15.8625 71.8125H12.8438V70.0312H15.8625C16.1111 70.0312 16.3496 69.9325 16.5254 69.7566C16.7012 69.5808 16.8 69.3424 16.8 69.0937V66.0844H18.5813V69.0937C18.5813 69.3424 18.68 69.5808 18.8558 69.7566C19.0317 69.9325 19.2701 70.0312 19.5188 70.0312H22.5V71.8125Z" fill="#00A1FF"/>
<path fill-rule="evenodd" clip-rule="evenodd" d="M83.6207 20.4L58.4719 42.253C55.1685 45.1159 53.1049 49.149 52.7157 53.503L51.5572 66.0453L53.4328 66.2074L54.5907 53.6718C54.9446 49.8004 56.7821 46.216 59.7188 43.6687L84.9521 21.6715L83.6207 20.4ZM50.7944 74.3033L52.67 74.4653L51.5122 87H49.6216L50.7944 74.3033ZM50.1595 89.5C50.2206 89.5191 50.2858 89.5362 50.3344 89.5405C50.3742 89.5441 50.4224 89.5288 50.4762 89.5H50.1595Z" fill="#00A1FF"/>
<path fill-rule="evenodd" clip-rule="evenodd" d="M45.4504 26.9809L64.7731 7.64087L66.1392 8.9253L46.0504 28.9965C45.9531 29.0942 45.8354 29.1692 45.7058 29.2162C45.5762 29.2632 45.4378 29.281 45.3004 29.2684C44.8939 29.2297 44.7361 29.0222 44.5243 28.7437C44.4285 28.6176 44.3215 28.477 44.1754 28.3309C43.6866 27.8403 43.0748 27.4902 42.4042 27.3173C41.7336 27.1443 41.0288 27.1548 40.3637 27.3477C39.6985 27.5406 39.0975 27.9088 38.6235 28.4137C38.1494 28.9186 37.8199 29.5417 37.6694 30.2177C37.5188 30.8937 37.5528 31.5977 37.7677 32.2561C37.9826 32.9144 38.3706 33.5029 38.8911 33.9598C39.4115 34.4168 40.0452 34.7254 40.7258 34.8533C41.4065 34.9813 42.109 34.9239 42.7598 34.6872C42.9316 34.6147 43.1211 34.5951 43.3041 34.6309C43.4871 34.6667 43.6552 34.7562 43.787 34.8881C43.9189 35.0199 44.0084 35.1881 44.0442 35.371C44.08 35.554 44.0604 35.7435 43.9879 35.9153C43.7988 36.445 43.7276 37.0096 43.7794 37.5697C43.8311 38.1297 44.0046 38.6718 44.2876 39.1578C44.5706 39.6439 44.9564 40.0623 45.4179 40.3837C45.8794 40.7052 46.4056 40.922 46.9596 41.0189C47.5137 41.1159 48.0822 41.0907 48.6255 40.9451C49.1688 40.7994 49.6737 40.5369 50.105 40.1759C50.5362 39.8148 50.8834 39.3639 51.1223 38.8547C51.3612 38.3455 51.486 37.7902 51.4879 37.2278C51.4903 36.6034 51.3394 35.988 51.0484 35.4355C50.7575 34.883 50.3354 34.4104 49.8192 34.059C49.706 33.981 49.6114 33.8791 49.542 33.7605C49.4727 33.6419 49.4302 33.5094 49.4177 33.3726C49.4052 33.2357 49.4229 33.0978 49.4696 32.9685C49.5163 32.8393 49.5908 32.7219 49.6879 32.6247L70.436 11.9741L71.8027 13.259L51.7036 33.234C52.3691 33.9202 52.8522 34.7621 53.1091 35.6828C53.3659 36.6036 53.3882 37.5739 53.174 38.5055C52.9598 39.4371 52.5159 40.3003 51.8826 41.0164C51.2494 41.7325 50.4471 42.2787 49.5487 42.6053C48.6503 42.9319 47.6845 43.0285 46.7393 42.8862C45.794 42.744 44.8994 42.3675 44.1369 41.791C43.3744 41.2145 42.7683 40.4563 42.3739 39.5856C41.9794 38.7149 41.8092 37.7593 41.8786 36.8059C40.7141 36.887 39.5525 36.6116 38.5484 36.0162C37.5443 35.4209 36.7453 34.5339 36.2577 33.4733C35.7701 32.4126 35.6171 31.2287 35.819 30.0789C36.0209 28.9292 36.5682 27.8682 37.3879 27.0372C38.4556 25.9716 39.8993 25.3684 41.4077 25.3579C42.916 25.3474 44.3681 25.9303 45.4504 26.9809Z" fill="#00A1FF"/>
</svg>
