<svg width="40" height="40" viewBox="0 0 40 40" fill="none" xmlns="http://www.w3.org/2000/svg">
<path d="M20.6656 37.666C20.5262 37.6657 20.3919 37.6135 20.2887 37.5198L16.7281 34.3134L12.0509 35.3175C11.9148 35.3465 11.7728 35.3241 11.6523 35.2545C11.5317 35.1848 11.4413 35.073 11.3984 34.9406L9.93032 30.3898L5.39096 28.9188C5.25855 28.876 5.14674 28.7855 5.07713 28.665C5.00752 28.5445 4.98506 28.4024 5.01409 28.2663L6.01815 23.603L2.81191 20.0422C2.71863 19.9389 2.66699 19.8046 2.66699 19.6654C2.66699 19.5261 2.71863 19.3918 2.81191 19.2885L6.01815 15.7277L5.01409 11.0644C4.98506 10.9283 5.00752 10.7862 5.07713 10.6657C5.14674 10.5452 5.25855 10.4548 5.39096 10.4119L9.94157 8.94371L11.4125 4.3901C11.4554 4.25768 11.5458 4.14586 11.6663 4.07625C11.7868 4.00664 11.9289 3.98418 12.065 4.01321L16.7281 5.01731L20.2887 1.81094C20.3921 1.71765 20.5264 1.66602 20.6656 1.66602C20.8048 1.66602 20.9391 1.71765 21.0425 1.81094L24.6031 5.01731L29.2662 4.01321C29.4023 3.98418 29.5443 4.00664 29.6649 4.07625C29.7854 4.14586 29.8758 4.25768 29.9187 4.3901L31.3868 8.94089L35.9374 10.4091C36.0698 10.4519 36.1816 10.5424 36.2512 10.6629C36.3208 10.7834 36.3433 10.9255 36.3143 11.0616L35.313 15.7277L38.5221 19.2744C38.6154 19.3778 38.667 19.5121 38.667 19.6513C38.667 19.7905 38.6154 19.9248 38.5221 20.0282L35.313 23.603L36.3171 28.2804C36.3461 28.4165 36.3237 28.5585 36.254 28.6791C36.1844 28.7996 36.0726 28.89 35.9402 28.9329L31.3896 30.4011L29.9187 34.9406C29.8758 35.073 29.7854 35.1848 29.6649 35.2545C29.5443 35.3241 29.4023 35.3465 29.2662 35.3175L24.6031 34.3134L21.0425 37.5198C20.9393 37.6135 20.805 37.6657 20.6656 37.666ZM16.9053 33.1405C17.0447 33.1409 17.179 33.193 17.2822 33.2868L20.6656 36.3441L24.0406 33.284C24.1067 33.2243 24.1861 33.1812 24.2721 33.1583C24.3582 33.1353 24.4485 33.1331 24.5356 33.1518L28.9962 34.1109L30.4024 29.7682C30.4298 29.6833 30.477 29.6061 30.54 29.543C30.6031 29.4799 30.6803 29.4328 30.7652 29.4054L35.1077 27.9991L34.1655 23.5439C34.1468 23.4568 34.149 23.3666 34.172 23.2805C34.195 23.1944 34.2381 23.1151 34.2977 23.0489L37.3436 19.6654L34.2836 16.2902C34.224 16.2241 34.1809 16.1447 34.1579 16.0586C34.1349 15.9726 34.1327 15.8823 34.1515 15.7952L35.1105 11.3344L30.768 9.92812C30.6831 9.90075 30.6059 9.85357 30.5429 9.79048C30.4798 9.7274 30.4326 9.65021 30.4052 9.56529L28.999 5.22263L24.544 6.16485C24.4568 6.18687 24.3655 6.18763 24.2779 6.16707C24.1903 6.14652 24.1089 6.10525 24.0406 6.04672L20.6656 2.98661L17.2906 6.04672C17.2245 6.10638 17.1451 6.14947 17.059 6.17245C16.973 6.19543 16.8827 6.19765 16.7956 6.17892L12.3266 5.21982L10.9203 9.56248C10.8929 9.6474 10.8458 9.72458 10.7827 9.78767C10.7196 9.85076 10.6424 9.89793 10.5575 9.92531L6.21502 11.3316L7.16564 15.7868C7.18766 15.874 7.18842 15.9653 7.16786 16.0529C7.14731 16.1405 7.10604 16.2219 7.04752 16.2902L3.98753 19.6654L7.04752 23.0405C7.10604 23.1088 7.14731 23.1902 7.16786 23.2778C7.18842 23.3654 7.18766 23.4567 7.16564 23.5439L6.22065 28.0047L10.5631 29.411C10.648 29.4384 10.7252 29.4856 10.7883 29.5487C10.8514 29.6117 10.8986 29.6889 10.9259 29.7739L12.3322 34.1165L16.7872 33.1658C16.8255 33.1532 16.8651 33.1447 16.9053 33.1405Z" fill="#00A1FF"/>
<path d="M10.6634 24.0159V23.1091L13.4688 20.2023C13.7684 19.8865 14.0153 19.6099 14.2097 19.3724C14.4067 19.1322 14.5538 18.9041 14.6509 18.6882C14.7481 18.4723 14.7967 18.2429 14.7967 17.9999C14.7967 17.7247 14.7319 17.4871 14.6023 17.2874C14.4728 17.085 14.296 16.9298 14.072 16.8219C13.848 16.7112 13.5957 16.6559 13.315 16.6559C13.0181 16.6559 12.759 16.7166 12.5377 16.838C12.3164 16.9595 12.1464 17.1309 12.0276 17.3522C11.9089 17.5735 11.8495 17.8326 11.8495 18.1295H10.6553C10.6553 17.6248 10.7713 17.1835 11.0034 16.8057C11.2355 16.4278 11.554 16.135 11.9588 15.9271C12.3636 15.7166 12.8238 15.6114 13.3393 15.6114C13.8602 15.6114 14.319 15.7153 14.7157 15.9231C15.1151 16.1282 15.4268 16.4089 15.6508 16.7652C15.8749 17.1187 15.9869 17.5182 15.9869 17.9635C15.9869 18.2712 15.9288 18.5721 15.8128 18.8663C15.6994 19.1605 15.5011 19.4884 15.2177 19.8501C14.9343 20.209 14.5403 20.6449 14.0356 21.1577L12.3879 22.8824V22.9431H16.1204V24.0159H10.6634Z" fill="#00A1FF"/>
<path d="M19.8572 24.1536C19.2175 24.1509 18.671 23.9822 18.2176 23.6475C17.7642 23.3129 17.4174 22.8257 17.1772 22.186C16.937 21.5464 16.8169 20.7758 16.8169 19.8744C16.8169 18.9756 16.937 18.2078 17.1772 17.5708C17.4201 16.9339 17.7683 16.448 18.2217 16.1134C18.6778 15.7787 19.2229 15.6114 19.8572 15.6114C20.4914 15.6114 21.0352 15.7801 21.4886 16.1174C21.942 16.4521 22.2888 16.9379 22.529 17.5749C22.7719 18.2091 22.8934 18.9756 22.8934 19.8744C22.8934 20.7785 22.7733 21.5504 22.5331 22.1901C22.2929 22.827 21.9461 23.3142 21.4927 23.6516C21.0393 23.9862 20.4941 24.1536 19.8572 24.1536ZM19.8572 23.0726C20.4185 23.0726 20.8571 22.7987 21.1729 22.2508C21.4913 21.7029 21.6506 20.9108 21.6506 19.8744C21.6506 19.1861 21.5777 18.6045 21.4319 18.1295C21.2889 17.6518 21.0824 17.2901 20.8126 17.0445C20.5454 16.7962 20.2269 16.6721 19.8572 16.6721C19.2985 16.6721 18.8599 16.9474 18.5415 17.4979C18.223 18.0485 18.0624 18.8407 18.0597 19.8744C18.0597 20.5653 18.1313 21.1496 18.2743 21.6274C18.42 22.1024 18.6265 22.4627 18.8937 22.7083C19.1609 22.9512 19.482 23.0726 19.8572 23.0726Z" fill="#00A1FF"/>
<path d="M27.9731 22.4613V22.0241C27.9731 21.711 28.0379 21.4249 28.1674 21.1658C28.2997 20.904 28.4913 20.6949 28.7423 20.5383C28.996 20.3791 29.3023 20.2995 29.6612 20.2995C30.0283 20.2995 30.336 20.3777 30.5843 20.5343C30.8326 20.6908 31.0201 20.9 31.147 21.1618C31.2765 21.4236 31.3413 21.711 31.3413 22.0241V22.4613C31.3413 22.7744 31.2765 23.0619 31.147 23.3237C31.0174 23.5828 30.8272 23.7919 30.5762 23.9512C30.3279 24.1077 30.0229 24.186 29.6612 24.186C29.2969 24.186 28.9892 24.1077 28.7382 23.9512C28.4872 23.7919 28.297 23.5828 28.1674 23.3237C28.0379 23.0619 27.9731 22.7744 27.9731 22.4613ZM28.9164 22.0241V22.4613C28.9164 22.6934 28.9717 22.904 29.0823 23.0929C29.193 23.2818 29.386 23.3763 29.6612 23.3763C29.9338 23.3763 30.1241 23.2818 30.2321 23.0929C30.34 22.904 30.394 22.6934 30.394 22.4613V22.0241C30.394 21.792 30.3414 21.5815 30.2361 21.3925C30.1335 21.2036 29.9419 21.1092 29.6612 21.1092C29.3914 21.1092 29.1997 21.2036 29.0864 21.3925C28.973 21.5815 28.9164 21.792 28.9164 22.0241ZM23.8034 17.7166V17.2793C23.8034 16.9662 23.8682 16.6788 23.9977 16.417C24.13 16.1552 24.3216 15.946 24.5726 15.7895C24.8263 15.633 25.1326 15.5547 25.4915 15.5547C25.8586 15.5547 26.1662 15.633 26.4145 15.7895C26.6628 15.946 26.8504 16.1552 26.9772 16.417C27.1041 16.6788 27.1675 16.9662 27.1675 17.2793V17.7166C27.1675 18.0296 27.1027 18.3171 26.9732 18.5789C26.8463 18.838 26.6574 19.0471 26.4064 19.2064C26.1581 19.3629 25.8532 19.4412 25.4915 19.4412C25.1245 19.4412 24.8155 19.3629 24.5645 19.2064C24.3162 19.0471 24.1273 18.838 23.9977 18.5789C23.8682 18.3171 23.8034 18.0296 23.8034 17.7166ZM24.7507 17.2793V17.7166C24.7507 17.9487 24.8047 18.1592 24.9126 18.3481C25.0233 18.537 25.2162 18.6315 25.4915 18.6315C25.7614 18.6315 25.9503 18.537 26.0583 18.3481C26.1689 18.1592 26.2243 17.9487 26.2243 17.7166V17.2793C26.2243 17.0472 26.1716 16.8367 26.0664 16.6478C25.9611 16.4588 25.7695 16.3644 25.4915 16.3644C25.2216 16.3644 25.03 16.4588 24.9167 16.6478C24.806 16.8367 24.7507 17.0472 24.7507 17.2793ZM24.188 24.0159L29.888 15.7247H30.8555L25.1555 24.0159H24.188Z" fill="#00A1FF"/>
</svg>
