<svg width="80" height="80" viewBox="0 0 80 80" fill="none" xmlns="http://www.w3.org/2000/svg">
<path d="M39.998 79.9989C39.6882 79.9981 39.3897 79.8823 39.1605 79.6739L31.2478 72.5487L20.8538 74.78C20.5513 74.8445 20.2356 74.7946 19.9678 74.6399C19.7 74.4853 19.499 74.2368 19.4037 73.9425L16.1412 63.8298L6.05344 60.5609C5.75918 60.4657 5.51069 60.2647 5.356 59.9969C5.20131 59.7291 5.1514 59.4134 5.21592 59.1109L7.44722 48.7482L0.322056 40.8355C0.114751 40.6058 0 40.3074 0 39.998C0 39.6886 0.114751 39.3901 0.322056 39.1605L7.44722 31.2478L5.21592 20.885C5.1514 20.5825 5.20131 20.2669 5.356 19.9991C5.51069 19.7312 5.75918 19.5303 6.05344 19.435L16.1662 16.1724L19.435 6.05344C19.5303 5.75918 19.7312 5.51069 19.9991 5.356C20.2669 5.20131 20.5825 5.1514 20.885 5.21592L31.2478 7.44722L39.1605 0.322056C39.3901 0.114751 39.6886 0 39.998 0C40.3074 0 40.6058 0.114751 40.8355 0.322056L48.7482 7.44722L59.1109 5.21592C59.4134 5.1514 59.7291 5.20131 59.9969 5.356C60.2647 5.51069 60.4657 5.75918 60.5609 6.05344L63.8235 16.1662L73.9363 19.4287C74.2305 19.524 74.479 19.725 74.6337 19.9928C74.7884 20.2606 74.8383 20.5763 74.7738 20.8788L72.5487 31.2478L79.6801 39.1292C79.8874 39.3589 80.0022 39.6573 80.0022 39.9667C80.0022 40.2761 79.8874 40.5745 79.6801 40.8042L72.5487 48.7482L74.78 59.1422C74.8445 59.4446 74.7946 59.7603 74.6399 60.0281C74.4853 60.296 74.2368 60.4969 73.9425 60.5922L63.8298 63.8548L60.5609 73.9425C60.4657 74.2368 60.2647 74.4853 59.9969 74.6399C59.7291 74.7946 59.4134 74.8445 59.1109 74.78L48.7482 72.5487L40.8355 79.6739C40.6062 79.8823 40.3078 79.9981 39.998 79.9989ZM31.6415 69.9424C31.9513 69.9432 32.2498 70.059 32.479 70.2674L39.998 77.0613L47.4981 70.2612C47.6451 70.1286 47.8215 70.0329 48.0128 69.9818C48.204 69.9307 48.4047 69.9258 48.5982 69.9674L58.5109 72.0987L61.636 62.4485C61.6968 62.2598 61.8016 62.0883 61.9418 61.9481C62.082 61.8079 62.2535 61.703 62.4422 61.6422L72.0925 58.5171L69.9987 48.6169C69.957 48.4234 69.962 48.2228 70.013 48.0315C70.0641 47.8403 70.1599 47.6639 70.2924 47.5169L77.0613 39.998L70.2612 32.4978C70.1286 32.3508 70.0329 32.1744 69.9818 31.9832C69.9307 31.7919 69.9258 31.5913 69.9674 31.3978L72.0987 21.485L62.4485 18.36C62.2598 18.2991 62.0883 18.1943 61.9481 18.0541C61.8079 17.9139 61.703 17.7424 61.6422 17.5537L58.5171 7.90348L48.6169 9.99728C48.423 10.0462 48.2203 10.0479 48.0256 10.0022C47.8309 9.95653 47.65 9.86482 47.4981 9.73477L39.998 2.93462L32.4978 9.73477C32.3508 9.86734 32.1744 9.96309 31.9832 10.0142C31.7919 10.0652 31.5913 10.0702 31.3978 10.0285L21.4663 7.89723L18.3412 17.5475C18.2804 17.7362 18.1756 17.9077 18.0354 18.0479C17.8952 18.1881 17.7237 18.2929 17.535 18.3537L7.88473 21.4788L9.99728 31.379C10.0462 31.5729 10.0479 31.7757 10.0022 31.9704C9.95653 32.165 9.86482 32.3459 9.73477 32.4978L2.93462 39.998L9.73477 47.4981C9.86482 47.65 9.95653 47.8309 10.0022 48.0256C10.0479 48.2203 10.0462 48.423 9.99728 48.6169L7.89723 58.5297L17.5475 61.6547C17.7362 61.7155 17.9077 61.8204 18.0479 61.9606C18.1881 62.1008 18.2929 62.2723 18.3537 62.461L21.4788 72.1112L31.379 69.9987C31.4643 69.9705 31.5523 69.9517 31.6415 69.9424Z" fill="#00A1FF"/>
<path d="M23.4761 29.3308V50.6646H20.2469V32.5601H20.1219L15.0176 35.8935V32.8101L20.3406 29.3308H23.4761Z" fill="#00A1FF"/>
<path d="M34.5289 50.9563C33.2233 50.9563 32.0496 50.7063 31.0079 50.2063C29.9732 49.6993 29.1468 49.0049 28.5287 48.1229C27.9107 47.241 27.5808 46.234 27.5391 45.102H30.6642C30.7406 46.0187 31.1468 46.7722 31.883 47.3625C32.6191 47.9528 33.5011 48.2479 34.5289 48.2479C35.3483 48.2479 36.074 48.0604 36.706 47.6854C37.3449 47.3035 37.8449 46.7791 38.206 46.1125C38.5741 45.4458 38.7581 44.6853 38.7581 43.8312C38.7581 42.9631 38.5706 42.1888 38.1956 41.5082C37.8206 40.8276 37.3032 40.2929 36.6435 39.904C35.9907 39.5151 35.2407 39.3172 34.3934 39.3102C33.7476 39.3102 33.0983 39.4213 32.4455 39.6436C31.7927 39.8658 31.2649 40.1575 30.8621 40.5186L27.9141 40.0811L29.1121 29.3308H40.8415V32.0913H31.7892L31.1121 38.0602H31.2371C31.6538 37.6574 32.2059 37.3206 32.8934 37.0497C33.5879 36.7789 34.3309 36.6435 35.1226 36.6435C36.4213 36.6435 37.5775 36.9525 38.5915 37.5706C39.6123 38.1887 40.4144 39.0324 40.9978 40.1019C41.5881 41.1644 41.8797 42.3867 41.8728 43.7687C41.8797 45.1506 41.5672 46.3833 40.9353 47.4667C40.3102 48.55 39.4422 49.4042 38.331 50.0292C37.2268 50.6473 35.9595 50.9563 34.5289 50.9563Z" fill="#00A1FF"/>
<path d="M55.0532 46.6646V45.5395C55.0532 44.734 55.2199 43.9978 55.5532 43.3311C55.8935 42.6575 56.3866 42.1193 57.0324 41.7165C57.6852 41.3068 58.4734 41.1019 59.397 41.1019C60.3415 41.1019 61.1332 41.3033 61.7721 41.7061C62.411 42.1089 62.8937 42.6471 63.22 43.3207C63.5534 43.9944 63.7201 44.734 63.7201 45.5395V46.6646C63.7201 47.4701 63.5534 48.2097 63.22 48.8834C62.8867 49.55 62.3971 50.0882 61.7513 50.498C61.1124 50.9008 60.3276 51.1022 59.397 51.1022C58.4595 51.1022 57.6678 50.9008 57.022 50.498C56.3761 50.0882 55.8865 49.55 55.5532 48.8834C55.2199 48.2097 55.0532 47.4701 55.0532 46.6646ZM57.4803 45.5395V46.6646C57.4803 47.2618 57.6227 47.8035 57.9074 48.2896C58.1922 48.7757 58.6887 49.0188 59.397 49.0188C60.0984 49.0188 60.588 48.7757 60.8658 48.2896C61.1436 47.8035 61.2825 47.2618 61.2825 46.6646V45.5395C61.2825 44.9423 61.1471 44.4006 60.8762 43.9145C60.6123 43.4284 60.1193 43.1853 59.397 43.1853C58.7026 43.1853 58.2095 43.4284 57.9178 43.9145C57.6262 44.4006 57.4803 44.9423 57.4803 45.5395ZM44.3238 34.4559V33.3309C44.3238 32.5253 44.4904 31.7857 44.8238 31.1121C45.1641 30.4385 45.6571 29.9003 46.303 29.4975C46.9558 29.0947 47.744 28.8933 48.6676 28.8933C49.6121 28.8933 50.4038 29.0947 51.0427 29.4975C51.6816 29.9003 52.1642 30.4385 52.4906 31.1121C52.817 31.7857 52.9802 32.5253 52.9802 33.3309V34.4559C52.9802 35.2615 52.8136 36.0011 52.4802 36.6747C52.1538 37.3414 51.6677 37.8796 51.0218 38.2894C50.3829 38.6921 49.5982 38.8935 48.6676 38.8935C47.7232 38.8935 46.928 38.6921 46.2822 38.2894C45.6433 37.8796 45.1571 37.3414 44.8238 36.6747C44.4904 36.0011 44.3238 35.2615 44.3238 34.4559ZM46.7613 33.3309V34.4559C46.7613 35.0532 46.9002 35.5949 47.178 36.081C47.4627 36.5671 47.9593 36.8102 48.6676 36.8102C49.3621 36.8102 49.8482 36.5671 50.126 36.081C50.4107 35.5949 50.5531 35.0532 50.5531 34.4559V33.3309C50.5531 32.7337 50.4177 32.192 50.1468 31.7059C49.876 31.2198 49.3829 30.9767 48.6676 30.9767C47.9732 30.9767 47.4801 31.2198 47.1884 31.7059C46.9037 32.192 46.7613 32.7337 46.7613 33.3309ZM45.3134 50.6646L59.9804 29.3308H62.47L47.803 50.6646H45.3134Z" fill="#00A1FF"/>
</svg>
