<svg width="79" height="79" viewBox="0 0 79 79" fill="none" xmlns="http://www.w3.org/2000/svg">
<path d="M39.498 78.9989C39.1921 78.9981 38.8973 78.8837 38.6709 78.6779L30.8572 71.6419L20.5931 73.8453C20.2944 73.909 19.9827 73.8597 19.7182 73.7069C19.4537 73.5542 19.2553 73.3088 19.1612 73.0182L15.9394 63.0319L5.97777 59.8039C5.68719 59.7099 5.44181 59.5114 5.28905 59.2469C5.13629 58.9824 5.087 58.6707 5.15072 58.372L7.35413 48.1388L0.31803 40.325C0.113317 40.0982 0 39.8035 0 39.498C0 39.1924 0.113317 38.8978 0.31803 38.6709L7.35413 30.8572L5.15072 20.624C5.087 20.3253 5.13629 20.0135 5.28905 19.7491C5.44181 19.4846 5.68719 19.2861 5.97777 19.1921L15.9641 15.9703L19.1921 5.97777C19.2861 5.68719 19.4846 5.44181 19.7491 5.28905C20.0135 5.13629 20.3253 5.087 20.624 5.15072L30.8572 7.35413L38.6709 0.31803C38.8978 0.113317 39.1924 0 39.498 0C39.8035 0 40.0982 0.113317 40.325 0.31803L48.1388 7.35413L58.372 5.15072C58.6707 5.087 58.9824 5.13629 59.2469 5.28905C59.5114 5.44181 59.7099 5.68719 59.8039 5.97777L63.0257 15.9641L73.012 19.1859C73.3026 19.28 73.548 19.4784 73.7008 19.7429C73.8535 20.0074 73.9028 20.3191 73.8391 20.6178L71.6419 30.8572L78.6841 38.6401C78.8888 38.8669 79.0022 39.1616 79.0022 39.4671C79.0022 39.7727 78.8888 40.0674 78.6841 40.2942L71.6419 48.1388L73.8453 58.4029C73.909 58.7016 73.8597 59.0133 73.7069 59.2778C73.5542 59.5423 73.3088 59.7407 73.0182 59.8348L63.0319 63.0566L59.8039 73.0182C59.7099 73.3088 59.5114 73.5542 59.2469 73.7069C58.9824 73.8597 58.6707 73.909 58.372 73.8453L48.1388 71.6419L40.325 78.6779C40.0986 78.8837 39.8039 78.9981 39.498 78.9989ZM31.246 69.0681C31.5519 69.0689 31.8467 69.1833 32.0731 69.3891L39.498 76.098L46.9044 69.3829C47.0496 69.252 47.2237 69.1574 47.4126 69.107C47.6015 69.0566 47.7996 69.0517 47.9907 69.0928L57.7795 71.1975L60.8655 61.6679C60.9256 61.4815 61.0291 61.3121 61.1675 61.1737C61.306 61.0353 61.4754 60.9317 61.6617 60.8717L71.1913 57.7857L69.1237 48.0092C69.0826 47.8181 69.0874 47.62 69.1379 47.4311C69.1883 47.2423 69.2828 47.0681 69.4137 46.9229L76.098 39.498L69.3829 32.0916C69.252 31.9464 69.1574 31.7722 69.107 31.5834C69.0566 31.3945 69.0517 31.1964 69.0928 31.0053L71.1975 21.2165L61.6679 18.1305C61.4815 18.0704 61.3121 17.9669 61.1737 17.8284C61.0353 17.69 60.9317 17.5206 60.8717 17.3343L57.7857 7.80469L48.0092 9.87231C47.8177 9.92062 47.6175 9.92228 47.4253 9.87718C47.233 9.83207 47.0544 9.74151 46.9044 9.61309L39.498 2.89793L32.0916 9.61309C31.9464 9.74399 31.7722 9.83855 31.5834 9.88899C31.3945 9.93942 31.1964 9.94428 31.0053 9.90317L21.198 7.79851L18.112 17.3281C18.0519 17.5144 17.9484 17.6838 17.8099 17.8223C17.6715 17.9607 17.5021 18.0642 17.3158 18.1243L7.78617 21.2103L9.87231 30.9868C9.92062 31.1782 9.92228 31.3785 9.87718 31.5707C9.83207 31.763 9.74151 31.9416 9.61309 32.0916L2.89793 39.498L9.61309 46.9044C9.74151 47.0544 9.83207 47.233 9.87718 47.4253C9.92228 47.6175 9.92062 47.8177 9.87231 48.0092L7.79851 57.798L17.3281 60.884C17.5144 60.9441 17.6838 61.0476 17.8223 61.1861C17.9607 61.3245 18.0642 61.4939 18.1243 61.6802L21.2103 71.2098L30.9868 69.1237C31.0709 69.0959 31.1579 69.0773 31.246 69.0681Z" fill="#00A1FF"/>
<path d="M23.1831 28.964V50.0312H19.9942V32.1529H19.8708L14.8303 35.4446V32.3998L20.0868 28.964H23.1831Z" fill="#00A1FF"/>
<path d="M34.4783 50.3809C32.853 50.3741 31.4643 49.9455 30.3122 49.0951C29.1601 48.2447 28.2789 47.0069 27.6685 45.3816C27.0582 43.7563 26.753 41.7984 26.753 39.5079C26.753 37.2242 27.0582 35.2732 27.6685 33.6548C28.2857 32.0363 29.1704 30.8019 30.3225 29.9515C31.4815 29.1012 32.8667 28.676 34.4783 28.676C36.0899 28.676 37.4717 29.1046 38.6239 29.9618C39.776 30.8122 40.6572 32.0466 41.2675 33.665C41.8847 35.2766 42.1933 37.2242 42.1933 39.5079C42.1933 41.8052 41.8882 43.7666 41.2778 45.3919C40.6675 47.0103 39.7863 48.2481 38.6341 49.1054C37.482 49.9557 36.0968 50.3809 34.4783 50.3809ZM34.4783 47.6344C35.9047 47.6344 37.0191 46.9383 37.8215 45.5462C38.6307 44.154 39.0353 42.1413 39.0353 39.5079C39.0353 37.7591 38.8502 36.2813 38.4798 35.0743C38.1164 33.8605 37.5918 32.9415 36.906 32.3175C36.2271 31.6866 35.4178 31.3711 34.4783 31.3711C33.0588 31.3711 31.9444 32.0706 31.1351 33.4696C30.3259 34.8686 29.9179 36.8813 29.911 39.5079C29.911 41.2635 30.0928 42.7482 30.4562 43.962C30.8265 45.169 31.3512 46.0845 32.0301 46.7086C32.709 47.3258 33.5251 47.6344 34.4783 47.6344Z" fill="#00A1FF"/>
<path d="M55.101 46.0811V44.9701C55.101 44.1746 55.2656 43.4477 55.5947 42.7893C55.9308 42.1241 56.4177 41.5927 57.0555 41.1949C57.7001 40.7903 58.4784 40.588 59.3905 40.588C60.3232 40.588 61.105 40.7869 61.7359 41.1846C62.3668 41.5824 62.8434 42.1138 63.1657 42.7791C63.4949 43.4443 63.6595 44.1746 63.6595 44.9701V46.0811C63.6595 46.8766 63.4949 47.6069 63.1657 48.2721C62.8366 48.9305 62.3531 49.462 61.7153 49.8666C61.0844 50.2643 60.3095 50.4632 59.3905 50.4632C58.4647 50.4632 57.6829 50.2643 57.0452 49.8666C56.4074 49.462 55.9239 48.9305 55.5947 48.2721C55.2656 47.6069 55.101 46.8766 55.101 46.0811ZM57.4978 44.9701V46.0811C57.4978 46.6709 57.6384 47.2058 57.9195 47.6858C58.2007 48.1659 58.691 48.4059 59.3905 48.4059C60.0832 48.4059 60.5666 48.1659 60.841 47.6858C61.1153 47.2058 61.2524 46.6709 61.2524 46.0811V44.9701C61.2524 44.3804 61.1187 43.8454 60.8512 43.3654C60.5906 42.8854 60.1037 42.6453 59.3905 42.6453C58.7048 42.6453 58.2178 42.8854 57.9298 43.3654C57.6418 43.8454 57.4978 44.3804 57.4978 44.9701ZM44.5057 34.0251V32.9141C44.5057 32.1186 44.6703 31.3883 44.9994 30.723C45.3355 30.0578 45.8224 29.5264 46.4602 29.1286C47.1048 28.7309 47.8831 28.532 48.7952 28.532C49.7279 28.532 50.5097 28.7309 51.1406 29.1286C51.7715 29.5264 52.2481 30.0578 52.5705 30.723C52.8928 31.3883 53.0539 32.1186 53.0539 32.9141V34.0251C53.0539 34.8206 52.8893 35.5509 52.5602 36.2161C52.2379 36.8745 51.7578 37.406 51.12 37.8106C50.4891 38.2083 49.7142 38.4072 48.7952 38.4072C47.8626 38.4072 47.0774 38.2083 46.4396 37.8106C45.8087 37.406 45.3286 36.8745 44.9994 36.2161C44.6703 35.5509 44.5057 34.8206 44.5057 34.0251ZM46.9128 32.9141V34.0251C46.9128 34.6148 47.0499 35.1498 47.3242 35.6298C47.6054 36.1098 48.0957 36.3499 48.7952 36.3499C49.481 36.3499 49.9611 36.1098 50.2354 35.6298C50.5165 35.1498 50.6571 34.6148 50.6571 34.0251V32.9141C50.6571 32.3243 50.5234 31.7894 50.2559 31.3094C49.9885 30.8293 49.5016 30.5893 48.7952 30.5893C48.1095 30.5893 47.6226 30.8293 47.3345 31.3094C47.0534 31.7894 46.9128 32.3243 46.9128 32.9141ZM45.4829 50.0312L59.9666 28.964H62.4251L47.9414 50.0312H45.4829Z" fill="#00A1FF"/>
</svg>
