<svg width="85" height="85" viewBox="0 0 85 85" fill="none" xmlns="http://www.w3.org/2000/svg">
<path d="M61.7949 71.3044C61.4427 71.3044 61.1049 71.1645 60.8558 70.9154C60.6067 70.6663 60.4668 70.3285 60.4668 69.9763V32.2761C60.4668 31.9239 60.6067 31.5861 60.8558 31.337C61.1049 31.0879 61.4427 30.948 61.7949 30.948C62.1472 30.948 62.485 31.0879 62.734 31.337C62.9831 31.5861 63.123 31.9239 63.123 32.2761V69.9763C63.123 70.3285 62.9831 70.6663 62.734 70.9154C62.485 71.1645 62.1472 71.3044 61.7949 71.3044Z" fill="#00A1FF"/>
<path d="M71.36 81.26H13.6396C13.2874 81.26 12.9496 81.1201 12.7005 80.871C12.4514 80.622 12.3115 80.2841 12.3115 79.9319V32.2761C12.3115 31.9239 12.4514 31.5861 12.7005 31.337C12.9496 31.0879 13.2874 30.948 13.6396 30.948H71.36C71.7122 30.948 72.05 31.0879 72.2991 31.337C72.5482 31.5861 72.6881 31.9239 72.6881 32.2761V79.985C72.682 80.1413 72.6478 80.2951 72.5871 80.4392C72.5202 80.6013 72.4218 80.7484 72.2976 80.8722L72.2471 80.92C72.1322 81.0222 72.0012 81.1048 71.8593 81.1644C71.7209 81.2184 71.5747 81.2498 71.4264 81.2574H71.3626L71.36 81.26ZM55.3428 78.6038H68.2415L61.7948 71.8941L55.3428 78.6038ZM14.9678 78.6038H50.8962V33.6042H14.9678V78.6038ZM53.5525 33.6042V76.6355L60.8279 69.0625C60.9519 68.9332 61.1008 68.8303 61.2656 68.76C61.4304 68.6897 61.6077 68.6535 61.7868 68.6535C61.9655 68.6538 62.1424 68.6902 62.3067 68.7605C62.471 68.8308 62.6194 68.9335 62.7431 69.0625L70.0239 76.6382V33.6069L53.5525 33.6042Z" fill="#00A1FF"/>
<path d="M36.6162 33.5962C36.2786 33.597 35.9534 33.4691 35.7067 33.2387C35.46 33.0083 35.3103 32.6926 35.288 32.3558C34.2441 16.32 30.1216 6.39624 26.8996 6.39624C23.6776 6.39624 19.5604 16.32 18.5165 32.3558C18.4798 32.702 18.314 33.0218 18.0521 33.2512C17.7902 33.4806 17.4514 33.6029 17.1033 33.5936C16.7523 33.5704 16.4248 33.4088 16.1927 33.1444C15.9606 32.8799 15.843 32.5342 15.8655 32.1831C16.7208 19.0612 20.1155 3.73999 26.9049 3.73999C33.6943 3.73999 37.089 19.0612 37.9443 32.1831C37.9555 32.3572 37.9322 32.5317 37.8759 32.6968C37.8196 32.8619 37.7314 33.0143 37.6162 33.1453C37.501 33.2763 37.3611 33.3833 37.2046 33.4602C37.048 33.5371 36.8779 33.5824 36.7038 33.5936L36.6162 33.5962Z" fill="#00A1FF"/>
<path d="M25.0005 30.2812C24.7382 30.2806 24.482 30.2024 24.2642 30.0564C24.0463 29.9105 23.8765 29.7032 23.7762 29.4609C23.6759 29.2186 23.6496 28.952 23.7007 28.6948C23.7517 28.4375 23.8777 28.2011 24.0628 28.0154L27.8666 24.209C28.1171 23.9671 28.4526 23.8332 28.8008 23.8362C29.149 23.8393 29.4821 23.9789 29.7284 24.2252C29.9746 24.4714 30.1143 24.8045 30.1173 25.1528C30.1203 25.501 29.9865 25.8365 29.7445 26.087L25.9408 29.8907C25.8174 30.0145 25.6709 30.1126 25.5095 30.1796C25.3482 30.2466 25.1752 30.2812 25.0005 30.2812Z" fill="#00A1FF"/>
<path d="M24.4189 22.695C24.1567 22.6944 23.9005 22.6162 23.6826 22.4702C23.4647 22.3243 23.295 22.1171 23.1947 21.8747C23.0944 21.6324 23.0681 21.3658 23.1191 21.1086C23.1701 20.8513 23.2961 20.615 23.4813 20.4292L27.285 16.6228C27.5355 16.3809 27.871 16.247 28.2192 16.2501C28.5675 16.2531 28.9006 16.3928 29.1468 16.639C29.3931 16.8852 29.5327 17.2184 29.5358 17.5666C29.5388 17.9148 29.4049 18.2503 29.163 18.5008L25.3593 22.3125C25.1088 22.5595 24.7707 22.697 24.4189 22.695Z" fill="#00A1FF"/>
<path d="M53.4725 33.6041C53.2279 33.604 52.988 33.5364 52.7794 33.4086C52.5707 33.2808 52.4014 33.0979 52.2902 32.88C52.1789 32.6622 52.1299 32.4178 52.1488 32.1739C52.1676 31.9299 52.2534 31.6959 52.3968 31.4977C53.2928 30.0181 53.5723 28.2459 53.175 26.5624C53.0266 25.9666 52.7316 25.4174 52.3169 24.9646C51.9022 24.5118 51.3808 24.1699 50.8003 23.9699C50.0825 23.6859 49.3055 23.5844 48.5387 23.6743C47.772 23.7642 47.0396 24.0428 46.4069 24.4852C46.233 24.6068 46.0326 24.6849 45.8223 24.7131C45.612 24.7413 45.3981 24.7187 45.1983 24.6472C44.998 24.5761 44.8177 24.4579 44.6726 24.3026C44.5274 24.1472 44.4217 23.9594 44.3643 23.7547C44.0778 22.7917 43.5273 21.9282 42.7752 21.2621C42.0231 20.5959 41.0995 20.1537 40.1089 19.9855C39.3881 19.8545 38.6444 19.9457 37.9765 20.2469C37.3086 20.5481 36.748 21.0452 36.3689 21.6722C36.2751 21.8201 36.153 21.9479 36.0096 22.0484C35.8662 22.1488 35.7043 22.2199 35.5333 22.2576C35.3623 22.2953 35.1855 22.2988 35.0132 22.2679C34.8408 22.237 34.6763 22.1723 34.529 22.0776C34.3818 21.9828 34.2547 21.8599 34.1551 21.7159C34.0555 21.5719 33.9854 21.4096 33.9488 21.2383C33.9122 21.0671 33.9098 20.8903 33.9417 20.7182C33.9737 20.546 34.0394 20.3819 34.135 20.2352C34.7908 19.1758 35.7477 18.3361 36.8834 17.8236C38.0191 17.3112 39.2818 17.1492 40.51 17.3585C41.7335 17.5561 42.8945 18.0342 43.9024 18.7554C44.9102 19.4766 45.7374 20.4213 46.3193 21.5155C48.063 20.8064 50.0126 20.795 51.7646 21.4836C52.754 21.8444 53.6387 22.4446 54.3396 23.2307C55.0404 24.0169 55.5356 24.9644 55.7808 25.9886C56.0554 27.1884 56.0891 28.4308 55.8798 29.6437C55.6705 30.8566 55.2224 32.0159 54.5616 33.0543C54.4372 33.2263 54.2734 33.366 54.0839 33.4616C53.8944 33.5573 53.6848 33.6061 53.4725 33.6041Z" fill="#00A1FF"/>
<path d="M45.6476 24.719C45.3151 24.721 44.9942 24.5966 44.7498 24.3711C44.4897 24.1339 44.3343 23.8032 44.3179 23.4516C44.3014 23.0999 44.4253 22.7561 44.6622 22.4958C45.653 21.363 46.3909 20.0319 46.8265 18.5913C47.2621 17.1508 47.3854 15.6339 47.1882 14.1418C47.1413 13.9681 47.1302 13.7866 47.1556 13.6084C47.181 13.4302 47.2423 13.2591 47.3358 13.1053C47.4294 12.9516 47.5532 12.8184 47.6998 12.714C47.8464 12.6095 48.0127 12.536 48.1885 12.4978C48.3644 12.4596 48.5462 12.4575 48.7229 12.4917C48.8996 12.526 49.0675 12.5957 49.2164 12.6968C49.3653 12.7979 49.4922 12.9282 49.5892 13.0798C49.6862 13.2314 49.7513 13.4012 49.7807 13.5787C50.0759 15.4867 49.9458 17.4364 49.3998 19.2883C48.8539 21.1402 47.9055 22.8486 46.6225 24.2914C46.4983 24.426 46.3475 24.5336 46.1798 24.6072C46.012 24.6807 45.8308 24.7188 45.6476 24.719Z" fill="#00A1FF"/>
<path d="M51.5313 24.172C51.179 24.172 50.8412 24.0321 50.5921 23.783C50.3431 23.5339 50.2031 23.1961 50.2031 22.8439V21.2049C50.2014 19.5892 50.6603 18.0064 51.5259 16.6421C52.3915 15.2778 53.6281 14.1885 55.0906 13.5018V9.46167C55.0906 9.10943 55.2306 8.77162 55.4796 8.52254C55.7287 8.27347 56.0665 8.13354 56.4188 8.13354C56.771 8.13354 57.1088 8.27347 57.3579 8.52254C57.607 8.77162 57.7469 9.10943 57.7469 9.46167V14.3731C57.7467 14.6314 57.6713 14.884 57.5298 15.1001C57.3882 15.3162 57.1867 15.4863 56.95 15.5896L56.3656 15.8553C55.3245 16.3097 54.4383 17.0577 53.8156 18.0078C53.1929 18.9579 52.8606 20.0689 52.8594 21.2049V22.8439C52.8594 23.1961 52.7195 23.5339 52.4704 23.783C52.2213 24.0321 51.8835 24.172 51.5313 24.172Z" fill="#00A1FF"/>
<path d="M67.8084 33.5964C67.4562 33.5964 67.1183 33.4564 66.8693 33.2074C66.6202 32.9583 66.4803 32.6205 66.4803 32.2682V21.205C66.4808 20.0679 66.1497 18.9554 65.5274 18.0037C64.905 17.0521 64.0186 16.3026 62.9767 15.8473L62.3897 15.5817C62.1529 15.4783 61.9514 15.3082 61.8099 15.0922C61.6684 14.8761 61.5929 14.6234 61.5928 14.3651V9.46167C61.5928 9.10943 61.7327 8.77162 61.9818 8.52254C62.2308 8.27347 62.5687 8.13354 62.9209 8.13354C63.2731 8.13354 63.611 8.27347 63.86 8.52254C64.1091 8.77162 64.249 9.10943 64.249 9.46167V13.5071C65.7116 14.1938 66.9481 15.2832 67.8138 16.6475C68.6794 18.0118 69.1382 19.5945 69.1365 21.2103V32.2735C69.1351 32.6249 68.9946 32.9613 68.7457 33.2092C68.4967 33.4572 68.1597 33.5964 67.8084 33.5964Z" fill="#00A1FF"/>
<path d="M63.8905 10.7897H55.4463C55.094 10.7897 54.7562 10.6498 54.5072 10.4007C54.2581 10.1516 54.1182 9.81379 54.1182 9.46155V5.06812C54.1182 4.71587 54.2581 4.37806 54.5072 4.12899C54.7562 3.87992 55.094 3.73999 55.4463 3.73999H63.8905C64.2427 3.73999 64.5806 3.87992 64.8296 4.12899C65.0787 4.37806 65.2186 4.71587 65.2186 5.06812V9.46155C65.2186 9.81379 65.0787 10.1516 64.8296 10.4007C64.5806 10.6498 64.2427 10.7897 63.8905 10.7897ZM56.7744 8.13343H62.5624V6.39624H56.7744V8.13343Z" fill="#00A1FF"/>
</svg>
