<svg width="16" height="16" viewBox="0 0 16 16" fill="none" xmlns="http://www.w3.org/2000/svg">
<rect width="16" height="16" rx="8" fill="#008ed3"/>
<path d="M8.36914 9.48633H7.0625C7.06641 9.12305 7.09766 8.81836 7.15625 8.57227C7.21484 8.32227 7.3125 8.0957 7.44922 7.89258C7.58984 7.68945 7.77539 7.47461 8.00586 7.24805C8.18555 7.07617 8.34766 6.91406 8.49219 6.76172C8.63672 6.60547 8.75195 6.44141 8.83789 6.26953C8.92383 6.09375 8.9668 5.89258 8.9668 5.66602C8.9668 5.41992 8.92578 5.21094 8.84375 5.03906C8.76172 4.86719 8.64062 4.73633 8.48047 4.64648C8.32422 4.55664 8.12891 4.51172 7.89453 4.51172C7.69922 4.51172 7.51562 4.55078 7.34375 4.62891C7.17188 4.70312 7.0332 4.82031 6.92773 4.98047C6.82227 5.13672 6.76562 5.34375 6.75781 5.60156H5.3457C5.35352 5.10938 5.4707 4.69531 5.69727 4.35938C5.92383 4.02344 6.22852 3.77148 6.61133 3.60352C6.99414 3.43555 7.42188 3.35156 7.89453 3.35156C8.41797 3.35156 8.86523 3.44141 9.23633 3.62109C9.60742 3.79688 9.89062 4.05469 10.0859 4.39453C10.2852 4.73047 10.3848 5.13672 10.3848 5.61328C10.3848 5.95703 10.3164 6.26953 10.1797 6.55078C10.043 6.82812 9.86523 7.08789 9.64648 7.33008C9.42773 7.56836 9.19141 7.80664 8.9375 8.04492C8.71875 8.24414 8.57031 8.46094 8.49219 8.69531C8.41406 8.92578 8.37305 9.18945 8.36914 9.48633ZM6.94531 11.3145C6.94531 11.1035 7.01758 10.9258 7.16211 10.7812C7.30664 10.6328 7.50391 10.5586 7.75391 10.5586C8.00391 10.5586 8.20117 10.6328 8.3457 10.7812C8.49023 10.9258 8.5625 11.1035 8.5625 11.3145C8.5625 11.5254 8.49023 11.7051 8.3457 11.8535C8.20117 11.998 8.00391 12.0703 7.75391 12.0703C7.50391 12.0703 7.30664 11.998 7.16211 11.8535C7.01758 11.7051 6.94531 11.5254 6.94531 11.3145Z" fill="white"/>
</svg>
