<svg width="82" height="82" viewBox="0 0 82 82" fill="none" xmlns="http://www.w3.org/2000/svg">
<g clip-path="url(#clip0_4500_14020)">
<path d="M79.1945 25.7677H75.9169V19.0386C75.9169 15.7228 73.2192 13.0249 69.9032 13.0249H62.24C61.5766 13.0249 61.0388 13.5626 61.0388 14.2261C61.0388 14.8896 61.5766 15.4273 62.24 15.4273H69.9032C71.8946 15.4273 73.5146 17.0473 73.5146 19.0386V25.7677H73.1158C69.7997 25.7677 67.102 28.4655 67.102 31.7814V39.6517H42.2967V19.0386C42.2967 17.0473 43.9167 15.4273 45.9081 15.4273H56.9564C57.6198 15.4273 58.1576 14.8896 58.1576 14.2261C58.1576 13.5626 57.6198 13.0249 56.9564 13.0249H45.9081C43.942 13.0249 42.1936 13.9734 41.0955 15.4367C39.9975 13.9735 38.2491 13.0249 36.283 13.0249H12.2877C8.97169 13.0249 6.274 15.7228 6.274 19.0386V25.7677H2.80547C1.25852 25.7677 0 27.026 0 28.573V36.2054C0 36.8689 0.537808 37.4066 1.20118 37.4066C1.86455 37.4066 2.40236 36.8689 2.40236 36.2054V28.573C2.40236 28.3508 2.58318 28.17 2.80547 28.17H8.88424C10.8756 28.17 12.4956 29.79 12.4956 31.7814V40.062C10.2541 40.9368 8.66098 43.118 8.66098 45.6654V50.6855C8.66098 52.2323 9.9195 53.491 11.4663 53.491H12.4956V58.9077C12.4956 59.13 12.3148 59.3108 12.0927 59.3108H2.80547C2.58318 59.3108 2.40236 59.13 2.40236 58.9077V41.489C2.40236 40.8255 1.86455 40.2878 1.20118 40.2878C0.537808 40.2878 0 40.8255 0 41.489V58.9075C0 60.4543 1.25852 61.713 2.80547 61.713H3.79156V66.1209C3.79156 67.6947 5.07202 68.9752 6.64588 68.9752H8.32081C9.08348 68.9752 9.80018 68.6782 10.3393 68.1392L16.7656 61.7128H65.4255L71.8518 68.139C72.3909 68.6781 73.1077 68.9752 73.8704 68.9752H75.5452C77.1192 68.9752 78.3997 67.6947 78.3997 66.1209V61.713H79.1948C80.7416 61.713 82.0002 60.4545 82.0002 58.9075V28.573C82 27.026 80.7415 25.7677 79.1945 25.7677ZM8.88424 25.7677H8.67636V19.0386C8.67636 17.0473 10.2965 15.4273 12.2877 15.4273H36.283C38.2744 15.4273 39.8944 17.0473 39.8944 19.0386V39.6515H14.898V31.7812C14.898 28.4655 12.2001 25.7677 8.88424 25.7677ZM14.898 58.9075V53.4909H52.2215C52.8849 53.4909 53.4227 52.9532 53.4227 52.2897C53.4227 51.6262 52.8849 51.0885 52.2215 51.0885H11.4661C11.244 51.0885 11.0632 50.9077 11.0632 50.6854V45.6653C11.0632 43.6739 12.6832 42.0539 14.6746 42.0539H67.5163C69.5077 42.0539 71.1277 43.6739 71.1277 45.6653V50.6854C71.1277 50.9077 70.9469 51.0885 70.7248 51.0885H57.5052C56.8419 51.0885 56.3041 51.6262 56.3041 52.2897C56.3041 52.9532 56.8419 53.4909 57.5052 53.4909H67.102V58.9075C67.102 59.0448 67.1153 59.1787 67.1344 59.3107H14.8655C14.8847 59.1785 14.898 59.0448 14.898 58.9075ZM8.64032 66.4405C8.55512 66.5259 8.44156 66.5728 8.32081 66.5728H6.64588C6.39668 66.5728 6.19392 66.3701 6.19392 66.1209V61.713H13.3678L8.64032 66.4405ZM75.997 66.1209C75.997 66.3702 75.7942 66.5728 75.5449 66.5728H73.8701C73.7493 66.5728 73.6358 66.5259 73.5504 66.4404L68.8229 61.7128H75.997V66.1209ZM79.5976 58.9075C79.5976 59.1298 79.4168 59.3107 79.1947 59.3107H69.9075C69.6854 59.3107 69.5045 59.1298 69.5045 58.9075V53.4909H70.7249C72.2717 53.4909 73.5303 52.2323 73.5303 50.6854V45.6653C73.5303 43.0459 71.8464 40.8136 69.5045 39.9907V31.7812C69.5045 29.7898 71.1247 28.1698 73.1159 28.1698H79.1947C79.4168 28.1698 79.5976 28.3507 79.5976 28.5728V58.9075Z" fill="#00A1FF"/>
</g>
<defs>
<clipPath id="clip0_4500_14020">
<rect width="82" height="82" fill="white"/>
</clipPath>
</defs>
</svg>
