<svg width="90" height="90" viewBox="0 0 90 90" fill="none" xmlns="http://www.w3.org/2000/svg">
<g clip-path="url(#clip0_4500_13534)">
<path d="M41.25 29.4375V7.6875C41.25 5.41294 39.3996 3.5625 37.125 3.5625H4.125C1.85044 3.5625 0 5.41294 0 7.6875V29.4375C0 31.7121 1.85044 33.5625 4.125 33.5625H37.125C39.3996 33.5625 41.25 31.7121 41.25 29.4375ZM3 29.4375V27.1738L11.2262 21.6407C11.7154 21.3116 12.3551 21.3002 12.8558 21.6118L17.8511 24.72C19.4608 25.7214 21.5396 25.6028 23.025 24.4251L30.7037 18.3349C31.1719 17.9636 31.8148 17.9053 32.3417 18.1866C32.3417 18.1866 32.5206 17.5217 32.9104 16.791C33.3003 16.0601 33.7534 15.5396 33.7534 15.5396C32.2388 14.7761 30.2436 14.871 28.8394 15.9844L21.1607 22.0746C20.6657 22.4674 19.9727 22.5068 19.4361 22.1728L14.4407 19.0646C12.9382 18.1299 11.0194 18.1643 9.55181 19.1514L3 23.5583V7.6875C3 7.06706 3.50456 6.5625 4.125 6.5625H37.125C37.7454 6.5625 38.25 7.06706 38.25 7.6875V29.4375C38.25 30.0579 37.7454 30.5625 37.125 30.5625H4.125C3.50456 30.5625 3 30.0579 3 29.4375ZM20.625 10.5C19.0742 10.5 17.8125 11.7617 17.8125 13.3125C17.8125 14.8633 19.0742 16.125 20.625 16.125C22.1758 16.125 23.4375 14.8633 23.4375 13.3125C23.4375 11.7617 22.1758 10.5 20.625 10.5ZM20.4375 13.3125C20.4375 13.0646 20.8125 13.0646 20.8125 13.3125C20.8125 13.5604 20.4375 13.5604 20.4375 13.3125ZM90 66.7256V79.7121C90 83.4206 86.9829 86.4377 83.2746 86.4377H75.75C74.9216 86.4377 74.25 85.7661 74.25 84.9377V75.3752H42.1875C42.1875 75.3752 42.1875 74.7089 42.1875 73.8806C42.1875 73.0522 42.1875 72.3752 42.1875 72.3752H75.75C76.6357 72.3752 77.3514 73.1473 77.2371 74.0627C77.2573 74.2243 77.25 73.6232 77.25 83.4377H83.2746C85.3288 83.4377 87 81.7663 87 79.7121V66.7256C87 64.6714 85.3288 63 83.2746 63H80.9754C78.9212 63 77.25 64.6714 77.25 66.7256L77.2388 68.5074C77.2388 68.5074 76.7239 68.5074 75.8955 68.5074C75.0671 68.5074 74.25 68.5074 74.25 68.5074V66.7256C74.25 63.2623 76.8816 60.4028 80.25 60.0398V50.2194C80.25 47.4448 77.9927 45.1875 75.2181 45.1875H56.4375V61.791C56.4375 61.791 55.903 61.791 55.0746 61.791C54.2463 61.791 53.4375 61.791 53.4375 61.791V45.1875H34.2819C31.5073 45.1875 29.25 47.4448 29.25 50.2194V53.8125C29.25 53.8125 28.4767 53.8125 27.6483 53.8125C26.8199 53.8125 26.25 53.8125 26.25 53.8125V50.2194C26.25 45.7907 29.8532 42.1875 34.2819 42.1875H75.2181C79.6468 42.1875 83.25 45.7907 83.25 50.2194V60C87.0341 60 90 63.0583 90 66.7256ZM68.5075 85.2985C68.5075 85.9701 68.5075 86.6418 68.5075 86.6418C68.5075 86.6418 28.7308 86.4375 26.6004 86.4375C22.8921 86.4375 19.875 83.4204 19.875 79.7119V66.7256C19.875 63.0171 22.8921 60 26.6004 60H28.8996C32.6079 60 35.625 63.0171 35.625 66.7256V75.1875C35.625 75.1875 35.0821 75.2239 34.2537 75.2239C33.4254 75.2239 32.625 75.1875 32.625 75.1875V66.7256C32.625 64.6714 30.9538 63 28.8996 63H26.6004C24.5462 63 22.875 64.6714 22.875 66.7256V79.7121C22.875 81.7663 24.5462 83.4377 26.6004 83.4377H68.5075C68.5075 83.4377 68.5075 84.4701 68.5075 85.2985Z" fill="#00A1FF"/>
</g>
<defs>
<clipPath id="clip0_4500_13534">
<rect width="90" height="90" fill="white"/>
</clipPath>
</defs>
</svg>
