<svg width="85" height="85" viewBox="0 0 85 85" fill="none" xmlns="http://www.w3.org/2000/svg">
<path d="M26.5613 54.452H14.6088C14.2567 54.4517 13.9191 54.3116 13.6702 54.0627C13.4212 53.8137 13.2811 53.4761 13.2808 53.124V34.5313C13.2696 33.482 12.8449 32.4794 12.099 31.7414C11.353 31.0033 10.346 30.5893 9.29661 30.5894C8.24724 30.5894 7.24023 31.0034 6.49428 31.7414C5.74833 32.4795 5.32366 33.482 5.3125 34.5314V53.124C5.3133 54.6326 5.68149 56.1184 6.38524 57.4529C7.089 58.7873 8.10715 59.9304 9.35169 60.7831C9.27379 60.8569 6.69421 78.0552 6.65603 78.1554C6.60936 78.5004 6.70001 78.8499 6.90846 79.1287C7.11691 79.4075 7.42649 79.5933 7.77058 79.6462C8.11467 79.699 8.46574 79.6146 8.74825 79.4112C9.03075 79.2078 9.22209 78.9016 9.28108 78.5585L11.8294 61.9949C12.7288 62.2774 13.6661 62.4208 14.6088 62.4203H22.766L25.2488 78.5586C25.3081 78.9015 25.4995 79.2074 25.782 79.4106C26.0644 79.6138 26.4154 79.6981 26.7593 79.6452C27.1032 79.5923 27.4127 79.4066 27.6211 79.128C27.8295 78.8493 27.9202 78.5 27.8738 78.1552L25.453 62.4203H26.5613C27.6106 62.4091 28.6132 61.9845 29.3512 61.2385C30.0893 60.4926 30.5033 59.4855 30.5033 58.4362C30.5033 57.3868 30.0893 56.3798 29.3512 55.6338C28.6132 54.8879 27.6106 54.4632 26.5613 54.452ZM26.5613 59.7642H14.6088C12.8484 59.7621 11.1606 59.0619 9.91577 57.817C8.67093 56.5722 7.97067 54.8844 7.9686 53.124V34.5313C7.9686 34.1791 8.10852 33.8413 8.35758 33.5922C8.60664 33.3431 8.94443 33.2032 9.29665 33.2032C9.64887 33.2032 9.98666 33.3431 10.2357 33.5922C10.4848 33.8413 10.6247 34.1791 10.6247 34.5313V53.124C10.6258 54.1803 11.046 55.193 11.7929 55.9399C12.5398 56.6868 13.5525 57.107 14.6088 57.1081H26.5613C26.91 57.1134 27.2427 57.2556 27.4874 57.5041C27.7322 57.7526 27.8694 58.0874 27.8694 58.4362C27.8694 58.7849 27.7322 59.1197 27.4874 59.3682C27.2427 59.6167 26.91 59.7589 26.5613 59.7642Z" fill="#00A1FF"/>
<path d="M79.6834 53.124V34.5313C79.6722 33.482 79.2475 32.4794 78.5015 31.7414C77.7556 31.0033 76.7485 30.5893 75.6992 30.5894C74.6498 30.5894 73.6428 31.0034 72.8968 31.7414C72.1509 32.4795 71.7262 33.482 71.7151 34.5314V53.124C71.7147 53.4761 71.5747 53.8137 71.3257 54.0627C71.0767 54.3116 70.7391 54.4517 70.387 54.452H58.4346C57.3852 54.4632 56.3827 54.8879 55.6447 55.6339C54.9066 56.3799 54.4927 57.3869 54.4927 58.4362C54.4927 59.4856 54.9067 60.4926 55.6448 61.2386C56.3828 61.9845 57.3854 62.4092 58.4347 62.4203H59.5429L57.1221 78.1552C57.0754 78.5002 57.166 78.8497 57.3745 79.1285C57.5829 79.4073 57.8925 79.5932 58.2365 79.646C58.5806 79.6989 58.9317 79.6145 59.2142 79.4112C59.4967 79.2078 59.6881 78.9016 59.7471 78.5585L62.2299 62.4203H70.3871C71.3298 62.4208 72.2671 62.2774 73.1665 61.9949L75.7148 78.5586C75.7413 78.7309 75.8015 78.8964 75.8919 79.0455C75.9823 79.1946 76.1012 79.3244 76.2418 79.4276C76.3824 79.5307 76.542 79.6052 76.7113 79.6467C76.8807 79.6882 77.0566 79.6959 77.229 79.6694C77.4013 79.6429 77.5668 79.5828 77.7159 79.4923C77.865 79.4019 77.9948 79.283 78.098 79.1424C78.2011 79.0018 78.2756 78.8422 78.3171 78.6729C78.3585 78.5035 78.3663 78.3276 78.3398 78.1553L75.6836 60.8906C76.8916 59.9803 77.8786 58.8091 78.5711 57.4644C79.2637 56.1197 79.6438 54.636 79.6834 53.124ZM70.387 59.7642H58.4346C58.0869 59.7573 57.7558 59.6144 57.5123 59.3661C57.2689 59.1178 57.1325 58.7839 57.1325 58.4361C57.1325 58.0884 57.2689 57.7545 57.5124 57.5062C57.7558 57.2579 58.087 57.115 58.4346 57.1081H70.387C71.4433 57.107 72.456 56.6868 73.203 55.9399C73.9499 55.193 74.37 54.1803 74.3712 53.124V34.5313C74.3706 34.3565 74.4045 34.1834 74.471 34.0218C74.5375 33.8601 74.6353 33.7132 74.7586 33.5895C74.882 33.4657 75.0286 33.3675 75.19 33.3005C75.3514 33.2335 75.5244 33.199 75.6992 33.199C75.874 33.199 76.047 33.2335 76.2084 33.3005C76.3698 33.3675 76.5164 33.4657 76.6398 33.5895C76.7631 33.7132 76.8609 33.8601 76.9274 34.0218C76.9939 34.1834 77.0278 34.3565 77.0273 34.5313V53.124C77.0252 54.8844 76.3249 56.5722 75.0801 57.817C73.8352 59.0619 72.1475 59.7621 70.387 59.7642Z" fill="#00A1FF"/>
<path d="M49.1381 77.029H43.826V50.4681H58.4345C59.4912 50.4681 60.5045 50.0483 61.2517 49.3011C61.9989 48.5539 62.4186 47.5406 62.4186 46.4839C62.4186 45.4272 61.9989 44.4139 61.2517 43.6667C60.5045 42.9195 59.4912 42.4998 58.4345 42.4998H26.5613C25.5046 42.4998 24.4913 42.9195 23.7441 43.6667C22.9969 44.4139 22.5771 45.4272 22.5771 46.4839C22.5771 47.5406 22.9969 48.5539 23.7441 49.3011C24.4913 50.0483 25.5046 50.4681 26.5613 50.4681H41.1698V77.029H35.8577C35.6829 77.0285 35.5098 77.0624 35.3481 77.1289C35.1865 77.1954 35.0396 77.2932 34.9159 77.4165C34.7921 77.5399 34.6939 77.6865 34.6269 77.8479C34.5599 78.0093 34.5254 78.1823 34.5254 78.3571C34.5254 78.5318 34.5599 78.7049 34.6269 78.8663C34.6939 79.0277 34.7921 79.1743 34.9159 79.2977C35.0396 79.421 35.1865 79.5188 35.3481 79.5853C35.5098 79.6518 35.6829 79.6857 35.8577 79.6851H49.1381C49.4896 79.684 49.8264 79.5436 50.0745 79.2947C50.3227 79.0457 50.462 78.7086 50.462 78.3571C50.462 78.0056 50.3227 77.6684 50.0745 77.4195C49.8264 77.1706 49.4896 77.0302 49.1381 77.029ZM26.5614 47.812C26.2099 47.8108 25.8731 47.6704 25.625 47.4215C25.3768 47.1726 25.2375 46.8354 25.2375 46.4839C25.2375 46.1324 25.3768 45.7952 25.625 45.5463C25.8731 45.2974 26.2099 45.157 26.5614 45.1558H58.4345C58.6092 45.1553 58.7824 45.1892 58.944 45.2557C59.1056 45.3222 59.2525 45.42 59.3763 45.5433C59.5 45.6667 59.5983 45.8133 59.6653 45.9747C59.7323 46.1361 59.7668 46.3091 59.7668 46.4839C59.7668 46.6587 59.7323 46.8317 59.6653 46.9931C59.5983 47.1545 59.5 47.3011 59.3763 47.4245C59.2525 47.5478 59.1056 47.6456 58.944 47.7121C58.7824 47.7786 58.6092 47.8125 58.4345 47.812H26.5614Z" fill="#00A1FF"/>
</svg>
