<svg width="50" height="50" viewBox="0 0 50 50" fill="none" xmlns="http://www.w3.org/2000/svg">
<rect width="50" height="50" rx="16" fill="#00A1FF"/>
<rect width="50" height="50" rx="16" fill="#707187"/>
<path d="M22 25L24 27L28.5 22.5M30.9012 17.9985C31.1071 18.4965 31.5024 18.8924 32.0001 19.0991L33.7452 19.822C34.2433 20.0283 34.639 20.424 34.8453 20.9221C35.0516 21.4201 35.0516 21.9797 34.8453 22.4778L34.1229 24.2218C33.9165 24.7201 33.9162 25.2803 34.1236 25.7783L34.8447 27.5218C34.9469 27.7685 34.9996 28.0329 34.9996 28.2999C34.9997 28.567 34.9471 28.8314 34.8449 29.0781C34.7427 29.3249 34.5929 29.549 34.4041 29.7378C34.2152 29.9266 33.991 30.0764 33.7443 30.1785L32.0004 30.9009C31.5023 31.1068 31.1065 31.5021 30.8998 31.9998L30.1769 33.745C29.9706 34.2431 29.575 34.6388 29.0769 34.8451C28.5789 35.0514 28.0193 35.0514 27.5212 34.8451L25.7773 34.1227C25.2792 33.9169 24.7198 33.9173 24.2221 34.1239L22.4769 34.8458C21.9791 35.0516 21.42 35.0514 20.9224 34.8453C20.4247 34.6391 20.0293 34.2439 19.8228 33.7464L19.0997 32.0006C18.8938 31.5026 18.4985 31.1067 18.0008 30.9L16.2557 30.1771C15.7578 29.9709 15.3623 29.5754 15.1559 29.0777C14.9495 28.5799 14.9492 28.0205 15.1551 27.5225L15.8775 25.7786C16.0833 25.2805 16.0828 24.7211 15.8763 24.2233L15.155 22.4768C15.0527 22.2301 15 21.9657 15 21.6986C15 21.4316 15.0525 21.1672 15.1547 20.9204C15.2569 20.6737 15.4067 20.4496 15.5956 20.2608C15.7844 20.072 16.0086 19.9222 16.2554 19.8201L17.9993 19.0977C18.4969 18.892 18.8925 18.4972 19.0993 18.0001L19.8222 16.2548C20.0285 15.7567 20.4242 15.361 20.9222 15.1547C21.4203 14.9484 21.9799 14.9484 22.4779 15.1547L24.2218 15.8771C24.7199 16.0829 25.2793 16.0825 25.7771 15.8759L27.523 15.1558C28.021 14.9497 28.5804 14.9497 29.0784 15.156C29.5763 15.3622 29.972 15.7578 30.1783 16.2558L30.9014 18.0015L30.9012 17.9985Z" stroke="white" stroke-width="2" stroke-linecap="round" stroke-linejoin="round"/>
</svg>
