<svg width="50" height="50" viewBox="0 0 50 50" fill="none" xmlns="http://www.w3.org/2000/svg">
<rect width="50" height="50" rx="16" fill="#00A1FF"/>
<rect width="50" height="50" rx="16" fill="#0286C6"/>
<path d="M25 15L23.6985 20.206C23.4445 21.2218 23.3176 21.7298 23.0531 22.1431C22.8192 22.5087 22.5087 22.8192 22.1431 23.0531C21.7298 23.3176 21.2218 23.4445 20.206 23.6985L15 25L20.206 26.3015C21.2218 26.5555 21.7298 26.6824 22.1431 26.9469C22.5087 27.1808 22.8192 27.4913 23.0531 27.8569C23.3176 28.2702 23.4445 28.7782 23.6985 29.794L25 35L26.3015 29.794C26.5555 28.7782 26.6824 28.2702 26.9469 27.8569C27.1808 27.4913 27.4913 27.1808 27.8569 26.9469C28.2702 26.6824 28.7782 26.5555 29.794 26.3015L35 25L29.794 23.6985C28.7782 23.4445 28.2702 23.3176 27.8569 23.0531C27.4913 22.8192 27.1808 22.5087 26.9469 22.1431C26.6824 21.7298 26.5555 21.2218 26.3015 20.206L25 15Z" stroke="white" stroke-width="2" stroke-linecap="round" stroke-linejoin="round"/>
</svg>
