<svg width="50" height="50" viewBox="0 0 50 50" fill="none" xmlns="http://www.w3.org/2000/svg">
<rect width="50" height="50" rx="16" fill="#00A1FF"/>
<path fill-rule="evenodd" clip-rule="evenodd" d="M24.9932 18.1358C22.9938 15.7984 19.6597 15.1696 17.1547 17.31C14.6496 19.4504 14.297 23.029 16.2642 25.5604C17.8998 27.6651 22.8498 32.1041 24.4721 33.5408C24.6536 33.7016 24.7444 33.7819 24.8502 33.8135C24.9426 33.8411 25.0437 33.8411 25.1361 33.8135C25.2419 33.7819 25.3327 33.7016 25.5142 33.5408C27.1365 32.1041 32.0865 27.6651 33.7221 25.5604C35.6893 23.029 35.3797 19.4279 32.8316 17.31C30.2835 15.1922 26.9925 15.7984 24.9932 18.1358Z" stroke="white" stroke-width="2" stroke-linecap="round" stroke-linejoin="round"/>
</svg>
