<svg width="50" height="50" viewBox="0 0 50 50" fill="none" xmlns="http://www.w3.org/2000/svg">
<rect width="50" height="50" rx="16" fill="#00A1FF"/>
<rect width="50" height="50" rx="16" fill="#8AB43C"/>
<path d="M27.986 21.4743L25.4538 15.9844C25.2751 15.597 24.7244 15.597 24.5457 15.9844L22.0135 21.4743C21.9406 21.6322 21.791 21.741 21.6183 21.7614L15.6146 22.4733C15.1909 22.5235 15.0207 23.0472 15.334 23.3369L19.7727 27.4417C19.9004 27.5597 19.9575 27.7357 19.9236 27.9062L18.7454 33.8361C18.6622 34.2545 19.1077 34.5782 19.48 34.3698L24.7555 31.4168C24.9073 31.3319 25.0922 31.3319 25.244 31.4168L30.5195 34.3698C30.8918 34.5782 31.3373 34.2545 31.2541 33.8361L30.0759 27.9062C30.042 27.7357 30.0991 27.5597 30.2268 27.4417L34.6655 23.3369C34.9788 23.0472 34.8086 22.5235 34.3849 22.4733L28.3812 21.7614C28.2085 21.741 28.0589 21.6322 27.986 21.4743Z" stroke="white" stroke-width="2" stroke-linecap="round" stroke-linejoin="round"/>
</svg>
