<svg width="79" height="79" viewBox="0 0 79 79" fill="none" xmlns="http://www.w3.org/2000/svg">
<g clip-path="url(#clip0_4500_13303)">
<path d="M39.5 6.17188C32.6937 6.17188 27.1562 11.7093 27.1562 18.5156V23.4531C27.1562 30.2595 32.6937 35.7969 39.5 35.7969C46.3063 35.7969 51.8438 30.2595 51.8438 23.4531V18.5156C51.8438 11.7093 46.3063 6.17188 39.5 6.17188ZM49.375 23.4531C49.375 28.898 44.9448 33.3281 39.5 33.3281C34.0552 33.3281 29.625 28.898 29.625 23.4531V18.5156C29.625 13.0708 34.0552 8.64062 39.5 8.64062C44.9448 8.64062 49.375 13.0708 49.375 18.5156V23.4531Z" fill="#00A1FF"/>
<path d="M40.7344 60.4844H38.2656V62.9531H40.7344V60.4844Z" fill="#00A1FF"/>
<path d="M40.7344 65.4219H38.2656V67.8906H40.7344V65.4219Z" fill="#00A1FF"/>
<path d="M40.7344 70.3594H38.2656V72.8281H40.7344V70.3594Z" fill="#00A1FF"/>
<path d="M39.5 0C17.7195 0 0 17.7195 0 39.5C0 61.2805 17.7195 79 39.5 79C41.2047 79 42.9192 78.8901 44.5955 78.6741L44.2795 76.2264C42.7069 76.4288 41.0985 76.5312 39.5 76.5312C34.2354 76.5312 29.2263 75.4191 24.6875 73.4305V53.0781H22.2188V72.2381C19.5389 70.8173 17.0529 69.0806 14.8125 67.0722V54.3125C14.8125 46.826 20.9041 40.7344 28.3906 40.7344H30.2163L38.2656 52.2326V58.0156H40.7344V52.2326L48.7837 40.7344H50.6094C53.4731 40.7344 56.211 41.6145 58.5267 43.2809L59.9684 41.2763C57.2293 39.3062 53.994 38.2656 50.6094 38.2656H28.3906C19.5426 38.2656 12.3438 45.4645 12.3438 54.3125V64.6417C6.22125 58.0329 2.46875 49.1985 2.46875 39.5C2.46875 19.081 19.081 2.46875 39.5 2.46875C59.919 2.46875 76.5312 19.081 76.5312 39.5C76.5312 42.7402 76.1128 45.957 75.287 49.0578L77.673 49.6935C78.5532 46.3853 79 42.955 79 39.5C79 17.7195 61.2805 0 39.5 0ZM45.7706 40.7344L39.5 49.691L33.2306 40.7344H45.7706Z" fill="#00A1FF"/>
<path d="M60.4844 44.4375C50.955 44.4375 43.2031 52.1894 43.2031 61.7188C43.2031 71.2481 50.955 79 60.4844 79C70.0138 79 77.7656 71.2481 77.7656 61.7188C77.7656 52.1894 70.0138 44.4375 60.4844 44.4375ZM60.4844 76.5312C52.3165 76.5312 45.6719 69.8866 45.6719 61.7188C45.6719 53.5509 52.3165 46.9062 60.4844 46.9062C68.6522 46.9062 75.2969 53.5509 75.2969 61.7188C75.2969 69.8866 68.6522 76.5312 60.4844 76.5312Z" fill="#00A1FF"/>
<path d="M69.4863 54.6742L56.7809 67.3796L51.4817 62.0804L49.7363 63.8259L55.9082 69.9977C56.1489 70.2384 56.4649 70.3594 56.7809 70.3594C57.0969 70.3594 57.4129 70.2384 57.6536 69.9977L71.2317 56.4196L69.4863 54.6742Z" fill="#00A1FF"/>
</g>
<defs>
<clipPath id="clip0_4500_13303">
<rect width="79" height="79" fill="#00A1FF"/>
</clipPath>
</defs>
</svg>
