<svg width="80" height="85" viewBox="0 0 80 85" fill="none" xmlns="http://www.w3.org/2000/svg">
<path d="M55.262 71.3209C50.057 74.3957 43.9412 76 37.5651 76C17.3957 76 1 59.1551 1 38.4332C1 17.7112 17.3957 1 37.4349 1C57.4742 1 74 17.8449 74 38.5668C74 46.7219 71.3975 54.3422 67.1034 60.492" stroke="#00A1FF" stroke-width="2" stroke-miterlimit="10" stroke-linecap="round" stroke-linejoin="round"/>
<path d="M63 12C56.2895 17.52 47.2974 21 37.5 21C27.7026 21 18.7105 17.64 12 12" stroke="#00A1FF" stroke-width="2" stroke-miterlimit="10" stroke-linecap="round" stroke-linejoin="round"/>
<path d="M12 65C18.9328 59.48 28.2227 56 38.3445 56C40.563 56 42.7815 56.12 45 56.48" stroke="#00A1FF" stroke-width="2" stroke-miterlimit="10" stroke-linecap="round" stroke-linejoin="round"/>
<path d="M46.9091 71.9893C44.4511 74.5294 41.6049 76 38.5 76C28.2797 76 20 59.1551 20 38.4332C20 17.7112 28.4091 1 38.5 1C48.5909 1 57 17.8449 57 38.5668C57 40.9733 56.8706 43.246 56.7413 45.5187" stroke="#00A1FF" stroke-width="2" stroke-miterlimit="10" stroke-linecap="round" stroke-linejoin="round"/>
<path d="M74 39H1" stroke="#00A1FF" stroke-width="2" stroke-miterlimit="10" stroke-linecap="round" stroke-linejoin="round"/>
<path d="M37.5 75.5L37.5 2.5" stroke="#00A1FF" stroke-width="2" stroke-miterlimit="10" stroke-linecap="round" stroke-linejoin="round"/>
<path d="M79 68.7134L71.7389 72.6624L78.6178 79.5414L74.5414 83.6178L67.6624 76.7389L63.7134 84L59 64L79 68.7134Z" stroke="#00A1FF" stroke-width="2" stroke-miterlimit="10" stroke-linecap="round" stroke-linejoin="round"/>
<path d="M51 56L54 59" stroke="#00A1FF" stroke-width="2" stroke-miterlimit="10" stroke-linecap="round" stroke-linejoin="round"/>
<path d="M59 53V57" stroke="#00A1FF" stroke-width="2" stroke-miterlimit="10" stroke-linecap="round" stroke-linejoin="round"/>
<path d="M49 62L53 64" stroke="#00A1FF" stroke-width="2" stroke-miterlimit="10" stroke-linecap="round" stroke-linejoin="round"/>
</svg>
