<svg width="90" height="90" viewBox="0 0 90 90" fill="none" xmlns="http://www.w3.org/2000/svg">
<path d="M45.0003 10.3774C33.7525 10.3774 24.6016 19.5284 24.6016 30.7762C24.6016 42.024 33.7525 51.1749 45.0003 51.1749C56.2481 51.1749 65.399 42.024 65.399 30.7762C65.399 19.5284 56.2483 10.3774 45.0003 10.3774ZM45.0003 47.5753C35.7368 47.5753 28.2012 40.0394 28.2012 30.7762C28.2012 21.5129 35.7368 13.977 45.0003 13.977C54.2633 13.977 61.7994 21.5129 61.7994 30.7762C61.7994 40.0394 54.2633 47.5753 45.0003 47.5753Z" fill="#2F5752"/>
<path d="M45.0007 16.6028C37.1857 16.6028 30.8271 22.9609 30.8271 30.7764C30.8271 30.7764 31.5524 30.7764 32.5466 30.7764C33.5408 30.7764 34.4268 30.7764 34.4268 30.7764C34.4268 24.946 39.1701 20.2024 45.0007 20.2024C45.0007 20.2024 45.0008 19.2375 45.0008 18.2433C45.0008 17.2491 45.0007 16.6028 45.0007 16.6028Z" fill="#2F5752"/>
<path fill-rule="evenodd" clip-rule="evenodd" d="M77.1312 30.7762C77.1312 33.2582 75.1337 35.0299 73.3709 36.5934L73.3692 36.5948C72.3723 37.479 71.2429 38.4807 71.0016 39.2244C70.7362 40.0403 71.0676 41.5702 71.3601 42.9198C71.8487 45.1755 72.4021 47.7322 70.9946 49.6659C69.5759 51.615 66.9623 51.878 64.654 52.1086L66.1366 56.886L62.6985 57.9507L61.1178 52.8566C61.1005 52.8679 61.0816 52.8785 61.0657 52.8902C60.4087 53.3685 59.7939 54.7752 59.2515 56.0166C58.3156 58.1588 57.2545 60.5874 54.931 61.3419C54.502 61.481 54.0465 61.5516 53.5764 61.5516C51.8015 61.5516 50.1114 60.5667 48.4769 59.6138C48.2065 59.4561 47.9276 59.2939 47.6483 59.137L55.3335 83.9044L59.6535 76.9567C60.126 76.1974 61.0849 75.8999 61.9037 76.2584L69.3979 79.54L64.8612 64.9201L68.2993 63.8555L74.0032 82.2361C74.2117 82.9088 74.0087 83.6417 73.4834 84.1113C72.9583 84.5814 72.2067 84.7007 71.5622 84.418L61.8874 80.181L56.3109 89.1505C55.9795 89.683 55.3992 90 54.783 90C54.7067 90 54.6301 89.9954 54.5533 89.9854C53.8545 89.8959 53.2723 89.4066 53.0633 88.7337L45.0002 62.7495L36.9366 88.7337C36.7281 89.4066 36.1459 89.8959 35.4471 89.9854C35.3703 89.9954 35.2933 90 35.2174 90C34.6012 90 34.0204 89.6832 33.6895 89.1505L28.1125 80.181L18.438 84.418C17.7924 84.7007 17.0413 84.5809 16.5163 84.1113C15.991 83.6417 15.7879 82.909 15.997 82.2361L18.3346 74.7029L21.7422 75.867L20.6023 79.5405L28.096 76.2586C28.9152 75.8999 29.8742 76.197 30.3467 76.9569L34.6662 83.9047L42.3518 59.1377C42.072 59.2949 41.7937 59.4569 41.5232 59.6145L41.52 59.6164L41.52 59.6164C39.8865 60.568 38.1974 61.5521 36.4238 61.5521C35.9541 61.5521 35.4979 61.4815 35.0691 61.3421C32.7457 60.5881 31.6845 58.1596 30.7486 56.0171C30.2065 54.7757 29.5915 53.369 28.9344 52.8907C28.9255 52.8844 28.9159 52.8784 28.9064 52.8724L28.9063 52.8723L28.9062 52.8723C28.8981 52.8672 28.89 52.8621 28.8824 52.8569L23.9057 68.8947L20.4982 67.7306L25.3461 52.1079C23.0383 51.8775 20.4242 51.6145 19.0055 49.6655C17.5983 47.732 18.1519 45.1751 18.6408 42.9195L18.6415 42.9163C18.9333 41.5675 19.264 40.0394 18.9993 39.224C18.758 38.4809 17.6286 37.4793 16.6317 36.5951L16.63 36.5936C14.8672 35.0304 12.8691 33.2582 12.8691 30.7759C12.8691 28.2942 14.8667 26.5223 16.6294 24.9588L16.63 24.9582C16.7848 24.821 16.9428 24.6808 17.1001 24.5393L20.9193 25.8439C20.34 26.4786 19.6741 27.0692 19.0187 27.6506L19.0177 27.6515C17.8224 28.7114 16.468 29.913 16.468 30.7762C16.468 31.6393 17.8224 32.8406 19.0177 33.9008L19.0177 33.9009C20.424 35.1478 21.8782 36.4374 22.422 38.1124C22.987 39.8524 22.5655 41.7982 22.1579 43.68L22.1576 43.6817C21.8454 45.1235 21.4568 46.9178 21.9152 47.5477C22.3867 48.1951 24.2293 48.3792 25.7099 48.527C27.6167 48.7173 29.5879 48.9141 31.0522 49.9798C32.4992 51.0323 33.2861 52.8336 34.0468 54.5753L34.0477 54.5772L34.0477 54.5772C34.6489 55.9529 35.3966 57.6637 36.1809 57.9182C36.2512 57.9412 36.3304 57.9522 36.4238 57.9522C37.2259 57.9522 38.5455 57.1831 39.7097 56.5045L39.7102 56.5042L39.7128 56.5027L39.7128 56.5027C41.3957 55.5222 43.1356 54.5084 45 54.5084C46.8647 54.5084 48.6054 55.5229 50.2889 56.5041L50.2892 56.5042L50.2909 56.5052C51.4551 57.1836 52.7741 57.9522 53.5761 57.9522C53.6695 57.9522 53.7487 57.9412 53.819 57.9184C54.6031 57.6637 55.3505 55.9539 55.9516 54.5787L55.9531 54.5753C56.7138 52.8338 57.5009 51.0326 58.9477 49.9798C60.4111 48.9144 62.3817 48.7177 64.2873 48.5274H64.2873L64.289 48.5273C65.7697 48.3794 67.6129 48.1954 68.0845 47.5477C68.5428 46.9178 68.1543 45.1232 67.8416 43.6812L67.8416 43.6809C67.4341 41.7987 67.0128 39.8524 67.5776 38.1126C68.1214 36.4374 69.5759 35.1475 70.9824 33.9006L70.9841 33.8991L70.9841 33.8991C72.1783 32.8397 73.5316 31.6392 73.5316 30.7764C73.5316 29.9132 72.1772 28.7117 70.9824 27.6519C69.5757 26.4043 68.1214 25.1145 67.5776 23.439C67.0132 21.6999 67.4341 19.7542 67.8412 17.8724L67.8416 17.8706C68.1543 16.4291 68.5428 14.6346 68.0845 14.0046C67.6132 13.3569 65.7697 13.1729 64.289 13.0251C62.3827 12.8348 60.4116 12.638 58.9477 11.5727C57.5012 10.5202 56.7144 8.71953 55.9534 6.97793L55.9528 6.97676L55.9524 6.97566C55.3511 5.5996 54.6033 3.88823 53.8187 3.63368C53.7489 3.61089 53.6697 3.59961 53.5764 3.59961C52.775 3.59961 51.4576 4.36713 50.2939 5.0451L50.2892 5.04785L50.2878 5.04869C48.6046 6.02968 46.8643 7.04395 45 7.04395C43.1346 7.04395 41.3939 6.02934 39.7102 5.04785L39.7067 5.04579C38.543 4.36765 37.225 3.59961 36.4233 3.59961C36.3302 3.59961 36.2505 3.61089 36.1802 3.63344C35.3965 3.88813 34.649 5.59823 34.0478 6.97353L34.0478 6.97354L34.0466 6.97628C33.2859 8.71801 32.4988 10.5192 31.052 11.5725C29.588 12.6377 27.6177 12.8344 25.712 13.0247L25.7106 13.0248C24.2297 13.1726 22.3867 13.3567 21.9152 14.0044C21.4568 14.6343 21.8454 16.4284 22.158 17.8704L22.1585 17.8724C22.4418 19.1811 22.7317 20.5205 22.6922 21.8001L19.0098 20.5421C18.9211 19.9277 18.7771 19.2626 18.6416 18.636L18.6408 18.6323C18.1517 16.3768 17.5983 13.8201 19.0058 11.8864C20.4254 9.93515 23.0436 9.67358 25.3538 9.44297L25.3552 9.44282H25.3552C26.717 9.30679 28.2599 9.15267 28.9347 8.66185C29.5917 8.18359 30.2065 6.77662 30.7489 5.53523L30.7493 5.53431C31.6851 3.39229 32.7458 0.964346 35.0689 0.209977C35.4977 0.0707923 35.9532 0 36.4233 0C38.1984 0 39.8885 0.985092 41.523 1.93803L41.5264 1.94L41.5264 1.94001C42.7372 2.64553 44.1081 3.44434 45.0002 3.44434C45.8918 3.44434 47.2635 2.64508 48.4746 1.93942L48.4769 1.93803C50.1114 0.985092 51.8015 0 53.5764 0C54.046 0 54.5015 0.0707923 54.9305 0.209977C57.2538 0.963993 58.3145 3.39132 59.2507 5.53359L59.2515 5.53548C59.7936 6.77686 60.4082 8.18383 61.0657 8.66209C61.7401 9.15297 63.2834 9.30707 64.6457 9.44312L64.6466 9.44321C66.9564 9.67382 69.5745 9.93539 70.9946 11.8866C72.4021 13.8201 71.8485 16.377 71.3601 18.6325L71.3601 18.6325C71.0676 19.9821 70.7364 21.5117 71.0016 22.3274C71.243 23.0715 72.3733 24.074 73.3705 24.9584L73.3709 24.9587C75.1337 26.5221 77.1312 28.2941 77.1312 30.7762Z" fill="#2F5752"/>
</svg>
