<svg width="20" height="20" viewBox="0 0 20 20" fill="none" xmlns="http://www.w3.org/2000/svg">
<path d="M16.0938 2.49997H13.4375V2.18747C13.4375 2.01489 13.2976 1.87497 13.125 1.87497H11.5311C11.3584 1.02938 10.5329 0.483876 9.68734 0.656533C9.07375 0.781845 8.59422 1.26138 8.46895 1.87497H6.875C6.70242 1.87497 6.5625 2.01489 6.5625 2.18747V2.49997H3.90625C3.21621 2.50075 2.65703 3.05993 2.65625 3.74997V18.125C2.65703 18.815 3.21621 19.3742 3.90625 19.375H16.0938C16.7838 19.3742 17.343 18.815 17.3438 18.125V3.74997C17.343 3.05993 16.7838 2.50075 16.0938 2.49997ZM7.1875 2.49997H8.75C8.92258 2.49997 9.0625 2.36005 9.0625 2.18747C9.0625 1.6697 9.48223 1.24997 10 1.24997C10.5178 1.24997 10.9375 1.6697 10.9375 2.18747C10.9375 2.36005 11.0774 2.49997 11.25 2.49997H12.8125V3.74997H7.1875V2.49997ZM16.7188 18.125C16.7184 18.47 16.4388 18.7496 16.0938 18.75H3.90625C3.56121 18.7496 3.2816 18.47 3.28125 18.125V3.74997C3.2816 3.40493 3.56121 3.12532 3.90625 3.12497H6.5625V4.06247C6.5625 4.23505 6.70242 4.37497 6.875 4.37497H13.125C13.2976 4.37497 13.4375 4.23505 13.4375 4.06247V3.12497H16.0938C16.4388 3.12532 16.7184 3.40493 16.7188 3.74997V18.125Z" fill="#215B47"/>
<path d="M11.5586 16.5835H11.5589H11.5591H13.1891C13.5865 17.03 14.0528 17.4099 14.5704 17.7089C14.5929 17.7167 14.6283 17.7259 14.6723 17.725C14.7104 17.7242 14.7413 17.7162 14.7623 17.7089C15.0072 17.6422 16.1231 16.7324 16.2889 16.3768C16.5435 15.8292 16.3067 15.179 15.7596 14.9234C15.4038 14.7578 14.9865 14.7955 14.6662 15.0223C14.173 14.6735 13.4904 14.7905 13.1416 15.2837C13.0025 15.4805 12.9322 15.7177 12.9418 15.9585H11.8255L11.0397 11.047C11.0127 10.9016 10.8891 10.7934 10.7437 10.7864C10.6038 10.7797 10.4744 10.8681 10.4287 11.0028L9.45531 14.4877H8.44508L8.1707 12.4581C8.14516 12.3275 8.04398 12.2257 7.91758 12.2022C7.77672 12.1761 7.63141 12.2521 7.5691 12.388L6.12816 16.1488L5.87809 15.3483C5.87059 15.322 5.84684 15.2519 5.77809 15.1962C5.6957 15.1293 5.60473 15.1284 5.5798 15.129H3.9209C3.74832 15.129 3.6084 15.2689 3.6084 15.4415C3.6084 15.6141 3.74832 15.754 3.9209 15.754H5.35L5.8 17.1937C5.83652 17.3202 5.94781 17.4107 6.07668 17.4195C6.21344 17.4288 6.34227 17.3443 6.38977 17.2125L7.71477 13.7542L7.86188 14.8422C7.86461 14.8672 7.87738 14.9562 7.95324 15.0289C8.04152 15.1135 8.14977 15.1134 8.17098 15.1129H9.69117C9.72109 15.1112 9.80402 15.1027 9.88266 15.0406C9.95477 14.9837 9.98328 14.9134 9.9932 14.8845L10.6469 12.546L11.2506 16.3205C11.2557 16.349 11.2738 16.428 11.3433 16.4948C11.4294 16.5776 11.5336 16.583 11.5586 16.5835ZM15.7233 16.1109C15.4096 16.4664 15.0547 16.7834 14.6662 17.0552C14.2783 16.7837 13.9237 16.4673 13.61 16.1127C13.5005 15.8783 13.6017 15.5995 13.8361 15.49C14.0394 15.395 14.2814 15.4575 14.4134 15.639C14.5251 15.7787 14.7289 15.8014 14.8686 15.6896C14.8873 15.6747 14.9043 15.6577 14.9192 15.639C15.0712 15.4297 15.3642 15.3833 15.5735 15.5354C15.7544 15.6669 15.8172 15.9079 15.7233 16.1109V16.1109Z" fill="#215B47"/>
<path d="M4.50293 8.6261H5.44043V9.5636C5.44043 9.73618 5.58035 9.8761 5.75293 9.8761H7.00293C7.17551 9.8761 7.31543 9.73618 7.31543 9.5636V8.6261H8.25293C8.42551 8.6261 8.56543 8.48618 8.56543 8.3136V7.0636C8.56543 6.89102 8.42551 6.7511 8.25293 6.7511H7.31543V5.8136C7.31543 5.64102 7.17551 5.5011 7.00293 5.5011H5.75293C5.58035 5.5011 5.44043 5.64102 5.44043 5.8136V6.7511H4.50293C4.33035 6.7511 4.19043 6.89102 4.19043 7.0636V8.3136C4.19043 8.48618 4.33031 8.6261 4.50293 8.6261ZM4.81543 7.3761H5.75293C5.92551 7.3761 6.06543 7.23618 6.06543 7.0636V6.1261H6.69043V7.0636C6.69043 7.23618 6.83035 7.3761 7.00293 7.3761H7.94043V8.0011H7.00293C6.83035 8.0011 6.69043 8.14102 6.69043 8.3136V9.2511H6.06543V8.3136C6.06543 8.14102 5.92551 8.0011 5.75293 8.0011H4.81543V7.3761Z" fill="#215B47"/>
<path d="M10.8096 6.4386H15.4971C15.6696 6.4386 15.8096 6.29868 15.8096 6.1261C15.8096 5.95352 15.6696 5.8136 15.4971 5.8136H10.8096C10.637 5.8136 10.4971 5.95352 10.4971 6.1261C10.4971 6.29868 10.637 6.4386 10.8096 6.4386Z" fill="#215B47"/>
<path d="M10.8096 8.0011H15.4971C15.6696 8.0011 15.8096 7.86118 15.8096 7.6886C15.8096 7.51602 15.6696 7.3761 15.4971 7.3761H10.8096C10.637 7.3761 10.4971 7.51602 10.4971 7.6886C10.4971 7.86118 10.637 8.0011 10.8096 8.0011Z" fill="#215B47"/>
<path d="M10.8096 9.5636H15.4971C15.6696 9.5636 15.8096 9.42368 15.8096 9.2511C15.8096 9.07852 15.6696 8.9386 15.4971 8.9386H10.8096C10.637 8.9386 10.4971 9.07852 10.4971 9.2511C10.4971 9.42368 10.637 9.5636 10.8096 9.5636Z" fill="#215B47"/>
</svg>
