<svg width="87" height="87" viewBox="0 0 87 87" fill="none" xmlns="http://www.w3.org/2000/svg">
<path d="M78.1454 72.1172H70.0119C69.4783 72.1172 69.0452 71.6842 69.0452 71.1505C69.0452 70.6169 69.4783 70.1839 70.0119 70.1839H78.1454C81.434 70.1839 84.1078 67.8233 84.1078 64.9233V47.6915L75.4484 30.7999C73.9288 27.8342 72.618 25.2725 69.4705 25.2725H8.85472C5.56805 25.2725 2.89232 27.6331 2.89232 30.5331V64.9213C2.89232 67.8233 5.56612 70.182 8.85472 70.182H16.9883C17.5219 70.182 17.9549 70.615 17.9549 71.1486C17.9549 71.6822 17.5219 72.1153 16.9883 72.1153H8.85472C4.50085 72.1153 0.958984 68.8885 0.958984 64.9213V30.5312C0.958984 26.564 4.50085 23.3373 8.85472 23.3373H69.4686C73.7993 23.3373 75.5895 26.8327 77.1691 29.9164L85.9348 47.0148C86.0044 47.1521 86.0411 47.3029 86.0411 47.4556V64.9213C86.0411 68.8885 82.4993 72.1172 78.1454 72.1172ZM54.4969 72.1172H32.5033C31.9697 72.1172 31.5366 71.6842 31.5366 71.1505C31.5366 70.6169 31.9697 70.1839 32.5033 70.1839H54.4949C55.0285 70.1839 55.4616 70.6169 55.4616 71.1505C55.4616 71.6842 55.0305 72.1172 54.4969 72.1172Z" fill="white"/>
<path d="M62.2535 79.8737C57.4433 79.8737 53.5283 75.9607 53.5283 71.1486C53.5283 66.3385 57.4414 62.4235 62.2535 62.4235C67.0655 62.4235 70.9786 66.3365 70.9786 71.1486C70.9786 75.9607 67.0636 79.8737 62.2535 79.8737ZM62.2535 64.3587C58.5086 64.3587 55.4617 67.4057 55.4617 71.1505C55.4617 74.8954 58.5086 77.9423 62.2535 77.9423C65.9983 77.9423 69.0453 74.8954 69.0453 71.1505C69.0453 67.4057 65.9983 64.3587 62.2535 64.3587Z" fill="white"/>
<path d="M24.7466 79.8737C19.9365 79.8737 16.0215 75.9607 16.0215 71.1486C16.0215 66.3385 19.9346 62.4235 24.7466 62.4235C29.5587 62.4235 33.4718 66.3365 33.4718 71.1486C33.4698 75.9607 29.5568 79.8737 24.7466 79.8737ZM24.7466 64.3587C21.0018 64.3587 17.9548 67.4057 17.9548 71.1505C17.9548 74.8954 21.0018 77.9423 24.7466 77.9423C28.4915 77.9423 31.5384 74.8954 31.5384 71.1505C31.5384 67.4057 28.4915 64.3587 24.7466 64.3587Z" fill="white"/>
<path d="M24.7466 75.2047C22.5116 75.2047 20.6924 73.3854 20.6924 71.1505C20.6924 68.9156 22.5116 67.0963 24.7466 67.0963C26.9815 67.0963 28.8008 68.9156 28.8008 71.1505C28.8008 73.3854 26.9815 75.2047 24.7466 75.2047ZM24.7466 69.0277C23.5769 69.0277 22.6257 69.9789 22.6257 71.1486C22.6257 72.3183 23.5769 73.2695 24.7466 73.2695C25.9162 73.2695 26.8674 72.3183 26.8674 71.1486C26.8674 69.9789 25.9162 69.0277 24.7466 69.0277Z" fill="white"/>
<path d="M62.2534 75.2047C60.0185 75.2047 58.1992 73.3854 58.1992 71.1505C58.1992 68.9156 60.0185 67.0963 62.2534 67.0963C64.4884 67.0963 66.3076 68.9156 66.3076 71.1505C66.3076 73.3854 64.4903 75.2047 62.2534 75.2047ZM62.2534 69.0277C61.0838 69.0277 60.1326 69.9789 60.1326 71.1486C60.1326 72.3183 61.0838 73.2695 62.2534 73.2695C63.4231 73.2695 64.3743 72.3183 64.3743 71.1486C64.3743 69.9789 63.4231 69.0277 62.2534 69.0277Z" fill="white"/>
<path d="M78.3269 50.0521H8.67272C8.13912 50.0521 7.70605 49.619 7.70605 49.0854V31.0706C7.70605 30.6086 8.03279 30.2122 8.48519 30.1233C8.60699 30.0981 8.73652 30.0865 8.85445 30.0865H68.985C69.2963 30.0865 69.5901 30.2374 69.7719 30.4906C70.2281 31.1286 70.7521 32.1726 71.1001 32.8647C71.16 32.9846 71.2122 33.0871 71.2547 33.1702L79.1872 48.6446C79.3419 48.9443 79.3283 49.302 79.1524 49.59C78.9765 49.8781 78.6633 50.0521 78.3269 50.0521ZM9.63939 48.1187H76.7435L69.5321 34.0518C69.4877 33.9648 69.4335 33.8565 69.3697 33.7309C69.1358 33.2649 68.7781 32.5535 68.4591 32.0179H9.63939V48.1187Z" fill="white"/>
<path d="M23.9169 50.0521C23.3833 50.0521 22.9502 49.6191 22.9502 49.0855V31.0707C22.9502 30.5371 23.3833 30.104 23.9169 30.104C24.4505 30.104 24.8835 30.5371 24.8835 31.0707V49.0855C24.8835 49.6191 24.4505 50.0521 23.9169 50.0521Z" fill="white"/>
<path d="M39.162 50.0521C38.6284 50.0521 38.1953 49.6191 38.1953 49.0855V31.0707C38.1953 30.5371 38.6284 30.104 39.162 30.104C39.6956 30.104 40.1286 30.5371 40.1286 31.0707V49.0855C40.1286 49.6191 39.6956 50.0521 39.162 50.0521Z" fill="white"/>
<path d="M54.4061 50.0521C53.8725 50.0521 53.4395 49.6191 53.4395 49.0855V31.0707C53.4395 30.5371 53.8725 30.104 54.4061 30.104C54.9397 30.104 55.3728 30.5371 55.3728 31.0707V49.0855C55.3728 49.6191 54.9397 50.0521 54.4061 50.0521Z" fill="white"/>
<path d="M85.0741 63.2297H79.3495C78.8159 63.2297 78.3828 62.7966 78.3828 62.263V54.2803C78.3828 53.7467 78.8159 53.3136 79.3495 53.3136H85.0741C85.6077 53.3136 86.0407 53.7467 86.0407 54.2803C86.0407 54.8139 85.6077 55.2469 85.0741 55.2469H80.3161V61.2983H85.0741C85.6077 61.2983 86.0407 61.7313 86.0407 62.2649C86.0407 62.7985 85.6077 63.2297 85.0741 63.2297Z" fill="white"/>
<path d="M7.65025 63.2296H1.92565C1.39205 63.2296 0.958984 62.7966 0.958984 62.263C0.958984 61.7294 1.39205 61.2963 1.92565 61.2963H6.68358V55.245H1.92565C1.39205 55.245 0.958984 54.8119 0.958984 54.2783C0.958984 53.7447 1.39205 53.3116 1.92565 53.3116H7.65025C8.18385 53.3116 8.61692 53.7447 8.61692 54.2783V62.263C8.61692 62.7966 8.18385 63.2296 7.65025 63.2296Z" fill="white"/>
</svg>
