<svg width="20" height="20" viewBox="0 0 20 20" fill="none" xmlns="http://www.w3.org/2000/svg">
<g clip-path="url(#clip0_4500_13487)">
<path d="M18.5266 18.75H4.59845C4.20544 18.7467 3.82975 18.5878 3.5536 18.3082C3.27745 18.0285 3.12335 17.6508 3.12501 17.2578V13.4375C3.12501 13.3546 3.15794 13.2751 3.21654 13.2165C3.27515 13.1579 3.35463 13.125 3.43751 13.125C3.52039 13.125 3.59988 13.1579 3.65848 13.2165C3.71709 13.2751 3.75001 13.3546 3.75001 13.4375V17.2609C3.74876 17.4878 3.83725 17.7059 3.99619 17.8678C4.15512 18.0297 4.37162 18.1221 4.59845 18.125H18.5266C18.7541 18.1217 18.9711 18.0285 19.13 17.8657C19.289 17.7029 19.3771 17.4838 19.375 17.2563V8.99219C19.3767 8.76492 19.2884 8.54621 19.1295 8.38376C18.9706 8.22131 18.7538 8.12829 18.5266 8.125H17.8125C17.7296 8.125 17.6501 8.09208 17.5915 8.03347C17.5329 7.97487 17.5 7.89538 17.5 7.8125C17.5 7.72962 17.5329 7.65013 17.5915 7.59153C17.6501 7.53292 17.7296 7.5 17.8125 7.5H18.5281C18.9209 7.50371 19.2962 7.66276 19.572 7.94238C19.8478 8.222 20.0017 8.59944 20 8.99219V17.2578C20.0017 17.6508 19.8476 18.0285 19.5714 18.3082C19.2953 18.5878 18.9196 18.7467 18.5266 18.75Z" fill="#215B47"/>
<path d="M7.1875 16.25H5.9375C5.85462 16.25 5.77513 16.2171 5.71653 16.1585C5.65792 16.0999 5.625 16.0204 5.625 15.9375C5.625 15.8546 5.65792 15.7751 5.71653 15.7165C5.77513 15.6579 5.85462 15.625 5.9375 15.625H7.1875C7.27038 15.625 7.34987 15.6579 7.40847 15.7165C7.46708 15.7751 7.5 15.8546 7.5 15.9375C7.5 16.0204 7.46708 16.0999 7.40847 16.1585C7.34987 16.2171 7.27038 16.25 7.1875 16.25Z" fill="#215B47"/>
<path d="M10.625 16.25H9.375C9.29212 16.25 9.21263 16.2171 9.15403 16.1585C9.09542 16.0999 9.0625 16.0204 9.0625 15.9375C9.0625 15.8546 9.09542 15.7751 9.15403 15.7165C9.21263 15.6579 9.29212 15.625 9.375 15.625H10.625C10.7079 15.625 10.7874 15.6579 10.846 15.7165C10.9046 15.7751 10.9375 15.8546 10.9375 15.9375C10.9375 16.0204 10.9046 16.0999 10.846 16.1585C10.7874 16.2171 10.7079 16.25 10.625 16.25Z" fill="#215B47"/>
<path d="M13.75 16.25H12.5C12.4171 16.25 12.3376 16.2171 12.279 16.1585C12.2204 16.0999 12.1875 16.0204 12.1875 15.9375C12.1875 15.8546 12.2204 15.7751 12.279 15.7165C12.3376 15.6579 12.4171 15.625 12.5 15.625H13.75C13.8329 15.625 13.9124 15.6579 13.971 15.7165C14.0296 15.7751 14.0625 15.8546 14.0625 15.9375C14.0625 16.0204 14.0296 16.0999 13.971 16.1585C13.9124 16.2171 13.8329 16.25 13.75 16.25Z" fill="#215B47"/>
<path d="M17.1875 16.25H15.9375C15.8546 16.25 15.7751 16.2171 15.7165 16.1585C15.6579 16.0999 15.625 16.0204 15.625 15.9375C15.625 15.8546 15.6579 15.7751 15.7165 15.7165C15.7751 15.6579 15.8546 15.625 15.9375 15.625H17.1875C17.2704 15.625 17.3499 15.6579 17.4085 15.7165C17.4671 15.7751 17.5 15.8546 17.5 15.9375C17.5 16.0204 17.4671 16.0999 17.4085 16.1585C17.3499 16.2171 17.2704 16.25 17.1875 16.25Z" fill="#215B47"/>
<path d="M10.3125 10H2.8125C2.72962 10 2.65013 9.96708 2.59153 9.90847C2.53292 9.84987 2.5 9.77038 2.5 9.6875C2.5 9.60462 2.53292 9.52513 2.59153 9.46653C2.65013 9.40792 2.72962 9.375 2.8125 9.375H10.3125C10.3954 9.375 10.4749 9.40792 10.5335 9.46653C10.5921 9.52513 10.625 9.60462 10.625 9.6875C10.625 9.77038 10.5921 9.84987 10.5335 9.90847C10.4749 9.96708 10.3954 10 10.3125 10Z" fill="#215B47"/>
<path d="M14.0625 10H12.1875C12.1046 10 12.0251 9.96708 11.9665 9.90847C11.9079 9.84987 11.875 9.77038 11.875 9.6875C11.875 9.60462 11.9079 9.52513 11.9665 9.46653C12.0251 9.40792 12.1046 9.375 12.1875 9.375H14.0625C14.1454 9.375 14.2249 9.40792 14.2835 9.46653C14.3421 9.52513 14.375 9.60462 14.375 9.6875C14.375 9.77038 14.3421 9.84987 14.2835 9.90847C14.2249 9.96708 14.1454 10 14.0625 10Z" fill="#215B47"/>
<path d="M15.4016 1.25H1.47345C1.08044 1.2533 0.704746 1.41217 0.428599 1.69183C0.152452 1.97149 -0.00165359 2.34917 1.33843e-05 2.74219V11.0078C-0.00165359 11.4008 0.152452 11.7785 0.428599 12.0582C0.704746 12.3378 1.08044 12.4967 1.47345 12.5H15.4016C15.7946 12.4967 16.1703 12.3378 16.4464 12.0582C16.7226 11.7785 16.8767 11.4008 16.875 11.0078V2.74219C16.8767 2.34917 16.7226 1.97149 16.4464 1.69183C16.1703 1.41217 15.7946 1.2533 15.4016 1.25ZM15.4016 11.875H1.47345C1.2462 11.8717 1.02948 11.7787 0.870536 11.6162C0.711597 11.4538 0.62334 11.2351 0.625013 11.0078V2.74219C0.62334 2.51492 0.711597 2.29621 0.870536 2.13376C1.02948 1.97131 1.2462 1.87829 1.47345 1.875H15.4016C15.629 1.87788 15.8459 1.97077 16.0049 2.13331C16.164 2.29585 16.2521 2.5148 16.25 2.74219V11.0078C16.2521 11.2352 16.164 11.4541 16.0049 11.6167C15.8459 11.7792 15.629 11.8721 15.4016 11.875Z" fill="#215B47"/>
<path d="M4.99999 7.81249H4.06249C4.00017 7.81539 3.93793 7.80524 3.87974 7.78271C3.82156 7.76018 3.76872 7.72575 3.72461 7.68163C3.68049 7.63751 3.64606 7.58468 3.62353 7.52649C3.601 7.46831 3.59085 7.40607 3.59374 7.34374V6.71874H2.96874C2.90642 6.72164 2.84418 6.71149 2.78599 6.68896C2.72781 6.66643 2.67497 6.632 2.63086 6.58788C2.58674 6.54376 2.55231 6.49093 2.52978 6.43274C2.50725 6.37456 2.4971 6.31232 2.49999 6.24999V5.31249C2.4971 5.25017 2.50725 5.18793 2.52978 5.12974C2.55231 5.07156 2.58674 5.01872 2.63086 4.97461C2.67497 4.93049 2.72781 4.89606 2.78599 4.87353C2.84418 4.851 2.90642 4.84085 2.96874 4.84374H3.59374V4.21874C3.59085 4.15642 3.601 4.09418 3.62353 4.03599C3.64606 3.97781 3.68049 3.92497 3.72461 3.88086C3.76872 3.83674 3.82156 3.80231 3.87974 3.77978C3.93793 3.75725 4.00017 3.7471 4.06249 3.74999H4.99999C5.06232 3.7471 5.12456 3.75725 5.18274 3.77978C5.24093 3.80231 5.29376 3.83674 5.33788 3.88086C5.382 3.92497 5.41643 3.97781 5.43896 4.03599C5.46149 4.09418 5.47164 4.15642 5.46874 4.21874V4.84374H6.09374C6.15607 4.84085 6.21831 4.851 6.27649 4.87353C6.33468 4.89606 6.38751 4.93049 6.43163 4.97461C6.47575 5.01872 6.51018 5.07156 6.53271 5.12974C6.55524 5.18793 6.56539 5.25017 6.56249 5.31249V6.24999C6.56539 6.31232 6.55524 6.37456 6.53271 6.43274C6.51018 6.49093 6.47575 6.54376 6.43163 6.58788C6.38751 6.632 6.33468 6.66643 6.27649 6.68896C6.21831 6.71149 6.15607 6.72164 6.09374 6.71874H5.46874V7.34374C5.47164 7.40607 5.46149 7.46831 5.43896 7.52649C5.41643 7.58468 5.382 7.63751 5.33788 7.68163C5.29376 7.72575 5.24093 7.76018 5.18274 7.78271C5.12456 7.80524 5.06232 7.81539 4.99999 7.81249ZM4.21874 7.18749H4.84374V6.40624C4.84374 6.32336 4.87667 6.24388 4.93527 6.18527C4.99388 6.12667 5.07336 6.09374 5.15624 6.09374H5.93749V5.46874H5.15624C5.07336 5.46874 4.99388 5.43582 4.93527 5.37722C4.87667 5.31861 4.84374 5.23912 4.84374 5.15624V4.37499H4.21874V5.15624C4.21874 5.23912 4.18582 5.31861 4.12722 5.37722C4.06861 5.43582 3.98912 5.46874 3.90624 5.46874H3.12499V6.09374H3.90624C3.98912 6.09374 4.06861 6.12667 4.12722 6.18527C4.18582 6.24388 4.21874 6.32336 4.21874 6.40624V7.18749Z" fill="#215B47"/>
</g>
<defs>
<clipPath id="clip0_4500_13487">
<rect width="20" height="20" fill="white"/>
</clipPath>
</defs>
</svg>
