<svg width="30" height="30" viewBox="0 0 30 30" fill="none" xmlns="http://www.w3.org/2000/svg">
<path d="M14.9989 29.9989C14.8827 29.9986 14.7708 29.9552 14.6848 29.877L11.7176 27.2051L7.81999 28.0419C7.70656 28.0661 7.58819 28.0473 7.48775 27.9893C7.38732 27.9313 7.31196 27.8381 7.27624 27.7278L6.0528 23.9356L2.26999 22.7098C2.15964 22.6741 2.06646 22.5987 2.00845 22.4983C1.95044 22.3979 1.93173 22.2795 1.95592 22.1661L2.79264 18.2801L0.120768 15.313C0.0430308 15.2268 0 15.1149 0 14.9989C0 14.8829 0.0430308 14.771 0.120768 14.6848L2.79264 11.7176L1.95592 7.8317C1.93173 7.71828 1.95044 7.5999 2.00845 7.49947C2.06646 7.39904 2.15964 7.32368 2.26999 7.28796L6.06217 6.06452L7.28796 2.26999C7.32368 2.15964 7.39904 2.06646 7.49947 2.00845C7.5999 1.95044 7.71828 1.93173 7.83171 1.95592L11.7176 2.79264L14.6848 0.120768C14.771 0.0430308 14.8829 0 14.9989 0C15.1149 0 15.2268 0.0430308 15.313 0.120768L18.2801 2.79264L22.1661 1.95592C22.2795 1.93173 22.3979 1.95044 22.4983 2.00845C22.5987 2.06646 22.6741 2.15964 22.7098 2.26999L23.9333 6.06217L27.7255 7.28561C27.8358 7.32133 27.929 7.39669 27.987 7.49713C28.045 7.59756 28.0637 7.71593 28.0395 7.82936L27.2051 11.7176L29.8794 14.6731C29.9571 14.7592 30.0001 14.8711 30.0001 14.9872C30.0001 15.1032 29.9571 15.2151 29.8794 15.3012L27.2051 18.2801L28.0419 22.1778C28.0661 22.2912 28.0473 22.4096 27.9893 22.51C27.9313 22.6105 27.8381 22.6858 27.7278 22.7215L23.9356 23.945L22.7098 27.7278C22.6741 27.8381 22.5987 27.9313 22.4983 27.9893C22.3979 28.0473 22.2795 28.0661 22.1661 28.0419L18.2801 27.2051L15.313 29.877C15.227 29.9552 15.1151 29.9986 14.9989 29.9989ZM11.8653 26.2278C11.9815 26.2281 12.0934 26.2715 12.1794 26.3497L14.9989 28.8973L17.8114 26.3473C17.8665 26.2976 17.9327 26.2617 18.0044 26.2426C18.0761 26.2234 18.1513 26.2216 18.2239 26.2372L21.9411 27.0364L23.113 23.4176C23.1358 23.3469 23.1751 23.2826 23.2276 23.23C23.2802 23.1774 23.3445 23.1381 23.4153 23.1153L27.034 21.9434L26.2489 18.2309C26.2333 18.1584 26.2351 18.0831 26.2543 18.0114C26.2734 17.9397 26.3093 17.8735 26.359 17.8184L28.8973 14.9989L26.3473 12.1864C26.2976 12.1313 26.2617 12.0651 26.2426 11.9934C26.2234 11.9217 26.2216 11.8465 26.2372 11.7739L27.0364 8.05671L23.4176 6.88483C23.3469 6.86202 23.2826 6.82271 23.23 6.77014C23.1774 6.71757 23.1381 6.65325 23.1153 6.58249L21.9434 2.96374L18.2309 3.74889C18.1582 3.76724 18.0822 3.76787 18.0092 3.75074C17.9362 3.73361 17.8684 3.69922 17.8114 3.65046L14.9989 1.10046L12.1864 3.65046C12.1313 3.70017 12.0651 3.73607 11.9934 3.75522C11.9217 3.77438 11.8465 3.77622 11.7739 3.76061L8.04967 2.96139L6.8778 6.58014C6.85499 6.6509 6.81568 6.71523 6.76311 6.7678C6.71054 6.82037 6.64622 6.85968 6.57546 6.88249L2.95671 8.05436L3.74889 11.7669C3.76724 11.8396 3.76787 11.9156 3.75074 11.9886C3.73361 12.0616 3.69922 12.1294 3.65046 12.1864L1.10046 14.9989L3.65046 17.8114C3.69922 17.8683 3.73361 17.9362 3.75074 18.0092C3.76787 18.0822 3.76724 18.1582 3.74889 18.2309L2.96139 21.9481L6.58014 23.12C6.6509 23.1428 6.71523 23.1821 6.7678 23.2347C6.82037 23.2872 6.85968 23.3516 6.88249 23.4223L8.05436 27.0411L11.7669 26.2489C11.7988 26.2383 11.8318 26.2313 11.8653 26.2278Z" fill="#215B47"/>
</svg>
