<svg width="80" height="80" viewBox="0 0 80 80" fill="none" xmlns="http://www.w3.org/2000/svg">
<path d="M39.9969 80C39.6871 79.9992 39.3886 79.8834 39.1594 79.675L31.2469 72.5497L20.8532 74.7811C20.5507 74.8456 20.2351 74.7957 19.9673 74.641C19.6994 74.4863 19.4985 74.2378 19.4032 73.9435L16.1407 63.8307L6.05327 60.5618C5.75902 60.4665 5.51054 60.2656 5.35585 59.9977C5.20116 59.7299 5.15126 59.4142 5.21578 59.1117L7.44702 48.7488L0.322047 40.8361C0.114748 40.6064 0 40.3079 0 39.9985C0 39.6891 0.114748 39.3907 0.322047 39.161L7.44702 31.2482L5.21578 20.8853C5.15126 20.5828 5.20116 20.2672 5.35585 19.9993C5.51054 19.7315 5.75902 19.5305 6.05327 19.4353L16.1657 16.1726L19.4345 6.05352C19.5297 5.75926 19.7307 5.51077 19.9985 5.35607C20.2663 5.20138 20.582 5.15147 20.8845 5.21599L31.2469 7.44732L39.1594 0.322061C39.3891 0.114753 39.6875 0 39.9969 0C40.3063 0 40.6047 0.114753 40.8344 0.322061L48.7468 7.44732L59.1093 5.21599C59.4118 5.15147 59.7274 5.20138 59.9952 5.35607C60.2631 5.51077 60.464 5.75926 60.5593 6.05352L63.8218 16.1664L73.9342 19.429C74.2285 19.5243 74.477 19.7252 74.6316 19.9931C74.7863 20.2609 74.8362 20.5766 74.7717 20.8791L72.5467 31.2482L79.6779 39.1297C79.8852 39.3594 80 39.6579 80 39.9673C80 40.2767 79.8852 40.5751 79.6779 40.8048L72.5467 48.7488L74.778 59.143C74.8425 59.4455 74.7926 59.7611 74.6379 60.029C74.4832 60.2968 74.2347 60.4978 73.9405 60.593L63.828 63.8557L60.5593 73.9435C60.464 74.2378 60.2631 74.4863 59.9952 74.641C59.7274 74.7957 59.4118 74.8456 59.1093 74.7811L48.7468 72.5497L40.8344 79.675C40.6051 79.8834 40.3067 79.9992 39.9969 80ZM31.6407 69.9434C31.9505 69.9442 32.2489 70.06 32.4782 70.2684L39.9969 77.0624L47.4968 70.2621C47.6438 70.1296 47.8202 70.0338 48.0115 69.9827C48.2027 69.9317 48.4033 69.9268 48.5968 69.9684L58.5093 72.0997L61.6343 62.4494C61.6951 62.2606 61.7999 62.0891 61.9401 61.9489C62.0803 61.8087 62.2518 61.7039 62.4405 61.6431L72.0905 58.518L69.9967 48.6176C69.9551 48.4241 69.96 48.2234 70.0111 48.0322C70.0622 47.8409 70.1579 47.6646 70.2905 47.5176L77.0592 39.9985L70.2592 32.4982C70.1267 32.3512 70.0309 32.1749 69.9799 31.9836C69.9288 31.7924 69.9239 31.5917 69.9655 31.3982L72.0967 21.4853L62.4468 18.3602C62.2581 18.2994 62.0866 18.1946 61.9464 18.0544C61.8062 17.9142 61.7013 17.7426 61.6405 17.5539L58.5155 7.90359L48.6156 9.99742C48.4217 10.0463 48.2189 10.048 48.0243 10.0023C47.8296 9.95667 47.6487 9.86496 47.4968 9.73491L39.9969 2.93466L32.4969 9.73491C32.3499 9.86747 32.1735 9.96323 31.9823 10.0143C31.7911 10.0654 31.5904 10.0703 31.3969 10.0287L21.4657 7.89734L18.3407 17.5477C18.2799 17.7364 18.1751 17.9079 18.0349 18.0481C17.8947 18.1883 17.7232 18.2932 17.5345 18.354L7.88451 21.4791L9.997 31.3795C10.0459 31.5733 10.0476 31.7761 10.0019 31.9708C9.95626 32.1655 9.86455 32.3464 9.73451 32.4982L2.93454 39.9985L9.73451 47.4988C9.86455 47.6507 9.95626 47.8316 10.0019 48.0262C10.0476 48.2209 10.0459 48.4237 9.997 48.6176L7.89701 58.5305L17.547 61.6556C17.7357 61.7164 17.9072 61.8212 18.0474 61.9614C18.1876 62.1016 18.2924 62.2732 18.3532 62.4619L21.4782 72.1122L31.3782 69.9996C31.4634 69.9715 31.5514 69.9527 31.6407 69.9434Z" fill="white"/>
<path d="M17.769 49.6686V47.6534L24.0033 41.1939C24.669 40.4921 25.2178 39.8774 25.6496 39.3496C26.0874 38.8158 26.4143 38.309 26.6302 37.8292C26.8461 37.3494 26.9541 36.8395 26.9541 36.2998C26.9541 35.688 26.8101 35.1602 26.5222 34.7164C26.2344 34.2665 25.8415 33.9217 25.3437 33.6818C24.846 33.4359 24.2852 33.3129 23.6615 33.3129C23.0017 33.3129 22.426 33.4479 21.9342 33.7177C21.4424 33.9876 21.0646 34.3685 20.8007 34.8603C20.5368 35.3521 20.4048 35.9279 20.4048 36.5876H17.751C17.751 35.4661 18.0089 34.4855 18.5246 33.6458C19.0404 32.8061 19.7481 32.1553 20.6477 31.6935C21.5474 31.2257 22.5699 30.9918 23.7154 30.9918C24.8729 30.9918 25.8925 31.2227 26.7741 31.6845C27.6618 32.1404 28.3545 32.7641 28.8523 33.5558C29.35 34.3415 29.5989 35.2292 29.5989 36.2188C29.5989 36.9025 29.47 37.5713 29.2121 38.225C28.9602 38.8788 28.5194 39.6075 27.8897 40.4112C27.2599 41.2089 26.3843 42.1775 25.2628 43.3171L21.6013 47.1496V47.2845H29.8958V49.6686H17.769Z" fill="white"/>
<path d="M38.1996 49.9745C36.7782 49.9685 35.5638 49.5936 34.5562 48.8499C33.5486 48.1062 32.7779 47.0236 32.2442 45.6022C31.7104 44.1807 31.4435 42.4684 31.4435 40.4652C31.4435 38.4679 31.7104 36.7616 32.2442 35.3461C32.7839 33.9307 33.5576 32.8511 34.5652 32.1074C35.5788 31.3637 36.7902 30.9918 38.1996 30.9918C39.609 30.9918 40.8175 31.3667 41.8251 32.1164C42.8327 32.8601 43.6033 33.9397 44.1371 35.3551C44.6769 36.7646 44.9468 38.4679 44.9468 40.4652C44.9468 42.4744 44.6799 44.1897 44.1461 45.6112C43.6123 47.0266 42.8417 48.1092 41.8341 48.8589C40.8265 49.6026 39.615 49.9745 38.1996 49.9745ZM38.1996 47.5724C39.4471 47.5724 40.4217 46.9637 41.1234 45.7461C41.8311 44.5286 42.1849 42.7683 42.1849 40.4652C42.1849 38.9357 42.023 37.6432 41.6991 36.5876C41.3813 35.5261 40.9225 34.7224 40.3227 34.1766C39.729 33.6248 39.0213 33.3489 38.1996 33.3489C36.9582 33.3489 35.9836 33.9607 35.2759 35.1842C34.5682 36.4077 34.2113 38.168 34.2053 40.4652C34.2053 42.0006 34.3643 43.2991 34.6821 44.3607C35.006 45.4163 35.4648 46.2169 36.0585 46.7627C36.6523 47.3025 37.366 47.5724 38.1996 47.5724Z" fill="white"/>
<path d="M56.2351 46.2139V45.2423C56.2351 44.5466 56.379 43.9108 56.6669 43.3351C56.9608 42.7533 57.3866 42.2885 57.9443 41.9406C58.5081 41.5867 59.1888 41.4098 59.9865 41.4098C60.8021 41.4098 61.4858 41.5837 62.0376 41.9316C62.5894 42.2795 63.0062 42.7443 63.2881 43.3261C63.576 43.9078 63.7199 44.5466 63.7199 45.2423V46.2139C63.7199 46.9097 63.576 47.5484 63.2881 48.1302C63.0002 48.706 62.5774 49.1708 62.0196 49.5247C61.4678 49.8725 60.7901 50.0465 59.9865 50.0465C59.1768 50.0465 58.4931 49.8725 57.9353 49.5247C57.3776 49.1708 56.9548 48.706 56.6669 48.1302C56.379 47.5484 56.2351 46.9097 56.2351 46.2139ZM58.3312 45.2423V46.2139C58.3312 46.7298 58.4541 47.1976 58.7 47.6174C58.9459 48.0372 59.3747 48.2472 59.9865 48.2472C60.5922 48.2472 61.015 48.0372 61.2549 47.6174C61.4948 47.1976 61.6148 46.7298 61.6148 46.2139V45.2423C61.6148 44.7265 61.4978 44.2587 61.2639 43.8389C61.036 43.419 60.6102 43.2091 59.9865 43.2091C59.3867 43.2091 58.9609 43.419 58.709 43.8389C58.4571 44.2587 58.3312 44.7265 58.3312 45.2423ZM46.969 35.67V34.6984C46.969 34.0026 47.113 33.3639 47.4008 32.7821C47.6947 32.2003 48.1205 31.7355 48.6783 31.3876C49.242 31.0398 49.9228 30.8658 50.7204 30.8658C51.5361 30.8658 52.2198 31.0398 52.7715 31.3876C53.3233 31.7355 53.7401 32.2003 54.022 32.7821C54.3039 33.3639 54.4448 34.0026 54.4448 34.6984V35.67C54.4448 36.3657 54.3009 37.0045 54.013 37.5863C53.7311 38.162 53.3113 38.6269 52.7536 38.9807C52.2018 39.3286 51.5241 39.5025 50.7204 39.5025C49.9048 39.5025 49.2181 39.3286 48.6603 38.9807C48.1085 38.6269 47.6887 38.162 47.4008 37.5863C47.113 37.0045 46.969 36.3657 46.969 35.67ZM49.0741 34.6984V35.67C49.0741 36.1858 49.1941 36.6536 49.434 37.0735C49.6799 37.4933 50.1087 37.7032 50.7204 37.7032C51.3202 37.7032 51.74 37.4933 51.9799 37.0735C52.2258 36.6536 52.3487 36.1858 52.3487 35.67V34.6984C52.3487 34.1826 52.2318 33.7148 51.9979 33.2949C51.764 32.8751 51.3382 32.6652 50.7204 32.6652C50.1207 32.6652 49.6949 32.8751 49.443 33.2949C49.1971 33.7148 49.0741 34.1826 49.0741 34.6984ZM47.8237 49.6686L60.4903 31.2437H62.6403L49.9737 49.6686H47.8237Z" fill="white"/>
</svg>
