<svg width="90" height="90" viewBox="0 0 90 90" fill="none" xmlns="http://www.w3.org/2000/svg">
<path d="M65.0889 28.3006L44.7853 11.0801L24.8926 28.3006V88.5949H65.0889" stroke="white" stroke-width="2" stroke-linecap="round" stroke-linejoin="round"/>
<path d="M65.0889 88.5949V28.3005" stroke="white" stroke-width="2"/>
<path d="M49.2959 32.4098C51.6114 30.048 51.5732 26.2557 49.2107 23.9395C46.8482 21.6233 43.0559 21.6602 40.7404 24.022C38.425 26.3838 38.4631 30.1761 40.8256 32.4923C43.1881 34.8085 46.9805 34.7716 49.2959 32.4098Z" stroke="white" stroke-width="2" stroke-linecap="round" stroke-linejoin="round"/>
<path d="M46.0409 28.1643C49.2275 27.9138 52.2195 26.5324 54.4769 24.2694C56.7343 22.0065 58.1083 19.011 58.351 15.8238C58.5936 12.6367 57.6889 9.4678 55.8001 6.88918C53.9113 4.31056 51.1629 2.49202 48.051 1.76199C44.9391 1.03197 41.6688 1.43847 38.8303 2.90812C35.9918 4.37777 33.7722 6.81384 32.5722 9.77641" stroke="white" stroke-width="2" stroke-linecap="round" stroke-linejoin="round"/>
<path d="M38.1729 76.5044V49.2315V46.5042" stroke="white" stroke-width="2" stroke-linecap="round" stroke-linejoin="round"/>
<path d="M35.4453 68.3226H49.0818" stroke="white" stroke-width="2" stroke-linecap="round" stroke-linejoin="round"/>
<path d="M46.1309 46.5072C48.295 46.4479 50.3944 47.2489 51.9693 48.7345C53.5441 50.22 54.466 52.2692 54.5329 54.4332C54.5998 56.5971 53.8064 58.6992 52.3264 60.2793C50.8465 61.8593 48.8006 62.7885 46.6369 62.8631" stroke="white" stroke-width="2" stroke-linecap="round" stroke-linejoin="round"/>
<path d="M38.1729 46.5042H46.3547" stroke="white" stroke-width="2" stroke-linecap="round" stroke-linejoin="round"/>
<path d="M46.3545 62.8679H35.4453" stroke="white" stroke-width="2" stroke-linecap="round" stroke-linejoin="round"/>
</svg>
