<svg width="16" height="16" viewBox="0 0 16 16" fill="none" xmlns="http://www.w3.org/2000/svg">
<rect width="16" height="16" rx="8" fill="#9CBBAE"/>
<path d="M8.65137 8.99805H7.74316C7.74642 8.68555 7.77409 8.43001 7.82617 8.23145C7.88151 8.02962 7.97103 7.8457 8.09473 7.67969C8.21842 7.51367 8.38281 7.32487 8.58789 7.11328C8.73763 6.96029 8.87435 6.81706 8.99805 6.68359C9.125 6.54688 9.22754 6.40039 9.30566 6.24414C9.38379 6.08464 9.42285 5.89421 9.42285 5.67285C9.42285 5.44824 9.38216 5.25456 9.30078 5.0918C9.22266 4.92904 9.10547 4.80371 8.94922 4.71582C8.79622 4.62793 8.60579 4.58398 8.37793 4.58398C8.18913 4.58398 8.01009 4.61816 7.84082 4.68652C7.67155 4.75488 7.53483 4.86068 7.43066 5.00391C7.3265 5.14388 7.27279 5.3278 7.26953 5.55566H6.36621C6.37272 5.18783 6.46387 4.87207 6.63965 4.6084C6.81868 4.34473 7.05957 4.1429 7.3623 4.00293C7.66504 3.86296 8.00358 3.79297 8.37793 3.79297C8.79134 3.79297 9.1429 3.86784 9.43262 4.01758C9.72559 4.16732 9.94857 4.38216 10.1016 4.66211C10.2546 4.9388 10.3311 5.26758 10.3311 5.64844C10.3311 5.94141 10.2708 6.21159 10.1504 6.45898C10.0332 6.70312 9.88184 6.93262 9.69629 7.14746C9.51074 7.3623 9.3138 7.56738 9.10547 7.7627C8.92643 7.92871 8.80599 8.11589 8.74414 8.32422C8.68229 8.53255 8.65137 8.75716 8.65137 8.99805ZM7.7041 10.5459C7.7041 10.3994 7.74967 10.2757 7.84082 10.1748C7.93197 10.0739 8.0638 10.0234 8.23633 10.0234C8.41211 10.0234 8.54557 10.0739 8.63672 10.1748C8.72786 10.2757 8.77344 10.3994 8.77344 10.5459C8.77344 10.6859 8.72786 10.8063 8.63672 10.9072C8.54557 11.0081 8.41211 11.0586 8.23633 11.0586C8.0638 11.0586 7.93197 11.0081 7.84082 10.9072C7.74967 10.8063 7.7041 10.6859 7.7041 10.5459Z" fill="white"/>
</svg>
