<svg width="24" height="24" viewBox="0 0 24 24" fill="none" xmlns="http://www.w3.org/2000/svg">
<path d="M12.8652 2.99616C12.4799 2.33201 11.5207 2.33201 11.1354 2.99616L8.42131 7.67347C8.23094 8.00155 7.90189 8.22545 7.52683 8.28209L2.44051 9.05032C1.58623 9.17935 1.28657 10.2579 1.95188 10.8091L5.74097 13.9483C6.09171 14.2389 6.25663 14.6973 6.17143 15.1447L5.18026 20.3499C5.02357 21.1727 5.88736 21.812 6.62851 21.4218L11.4179 18.8999C11.7824 18.708 12.2181 18.708 12.5827 18.8999L17.3721 21.4218C18.1132 21.812 18.977 21.1727 18.8203 20.3499L17.8292 15.1447C17.744 14.6973 17.9089 14.2389 18.2596 13.9483L22.0487 10.8091C22.714 10.2579 22.4144 9.17935 21.5601 9.05032L16.4738 8.28209C16.0987 8.22545 15.7697 8.00155 15.5793 7.67347L12.8652 2.99616Z" fill="#FFC321"/>
</svg>
