<svg width="69" height="70" viewBox="0 0 69 70" fill="none" xmlns="http://www.w3.org/2000/svg">
<g clip-path="url(#clip0_236_76)">
<path d="M53.2324 5.56641C53.0325 5.56641 52.8371 5.62569 52.6709 5.73675C52.5047 5.84781 52.3751 6.00567 52.2986 6.19035C52.2221 6.37504 52.2021 6.57827 52.2411 6.77433C52.2801 6.9704 52.3764 7.1505 52.5177 7.29185C52.6591 7.43321 52.8392 7.52947 53.0352 7.56847C53.2313 7.60747 53.4345 7.58745 53.6192 7.51095C53.8039 7.43445 53.9618 7.3049 54.0728 7.13869C54.1839 6.97247 54.2432 6.77705 54.2432 6.57715C54.2432 6.30908 54.1367 6.052 53.9471 5.86245C53.7576 5.67289 53.5005 5.56641 53.2324 5.56641ZM64.7549 18.9082C64.2725 18.9087 63.8101 19.1006 63.469 19.4417C63.1279 19.7827 62.9361 20.2452 62.9355 20.7275V29.083C62.9361 29.5654 63.1279 30.0278 63.469 30.3689C63.8101 30.71 64.2725 30.9018 64.7549 30.9023H67.1807C67.663 30.9018 68.1255 30.71 68.4665 30.3689C68.8076 30.0278 68.9995 29.5654 69 29.083V20.7275C68.9995 20.2452 68.8076 19.7827 68.4665 19.4417C68.1255 19.1006 67.663 18.9087 67.1807 18.9082H66.9785V16.8193C66.9779 16.3013 66.7718 15.8046 66.4055 15.4382C66.0392 15.0719 65.5425 14.8658 65.0244 14.8652H60.3076V5.36426C60.3061 4.02439 59.7732 2.73983 58.8258 1.7924C57.8783 0.844969 56.5938 0.312045 55.2539 0.310547L13.7461 0.310547C12.4062 0.312045 11.1217 0.844969 10.1742 1.7924C9.2268 2.73983 8.69388 4.02439 8.69238 5.36426V14.8652H3.97559C3.45751 14.8658 2.96083 15.0719 2.5945 15.4382C2.22816 15.8046 2.02209 16.3013 2.02148 16.8193V18.9082H1.81934C1.33698 18.9087 0.874538 19.1006 0.533462 19.4417C0.192386 19.7827 0.000535057 20.2452 0 20.7275L0 29.083C0.000535057 29.5654 0.192386 30.0278 0.533462 30.3689C0.874538 30.71 1.33698 30.9018 1.81934 30.9023H4.24512C4.72747 30.9018 5.18992 30.71 5.53099 30.3689C5.87207 30.0278 6.06392 29.5654 6.06445 29.083V20.7275C6.06392 20.2452 5.87207 19.7827 5.53099 19.4417C5.18992 19.1006 4.72747 18.9087 4.24512 18.9082H4.04297V16.8867H8.69238V55.0928C8.69405 56.2806 9.1135 57.43 9.87728 58.3398C10.6411 59.2495 11.7005 59.8616 12.8701 60.0689V66.2783C12.87 66.6227 12.9288 66.9645 13.044 67.2891H1.01074C0.742677 67.2891 0.48559 67.3955 0.29604 67.5851C0.106489 67.7747 0 68.0317 0 68.2998C0 68.5679 0.106489 68.825 0.29604 69.0145C0.48559 69.2041 0.742677 69.3105 1.01074 69.3105H67.9893C68.2573 69.3105 68.5144 69.2041 68.704 69.0145C68.8935 68.825 69 68.5679 69 68.2998C69 68.0317 68.8935 67.7747 68.704 67.5851C68.5144 67.3955 68.2573 67.2891 67.9893 67.2891H55.956C56.0712 66.9645 56.13 66.6227 56.1299 66.2783V60.0689C57.2995 59.8616 58.3589 59.2495 59.1227 58.3398C59.8865 57.43 60.3059 56.2806 60.3076 55.0928V16.8867H64.957V18.9082H64.7549ZM4.04297 28.8809H2.02148V20.9297H4.04297V28.8809ZM10.7139 12.8438H33.4893V34.4062H10.7139V12.8438ZM21.7646 66.2783C21.7644 66.5463 21.6578 66.8032 21.4683 66.9927C21.2788 67.1822 21.0219 67.2888 20.7539 67.2891H15.9023C15.6344 67.2888 15.3774 67.1822 15.188 66.9927C14.9985 66.8032 14.8919 66.5463 14.8916 66.2783V60.1465H21.7646V66.2783ZM23.6123 67.2891C23.7275 66.9645 23.7863 66.6227 23.7861 66.2783V60.1465H45.2139V66.2783C45.2137 66.6227 45.2725 66.9645 45.3877 67.2891H23.6123ZM54.1084 66.2783C54.1081 66.5463 54.0015 66.8032 53.812 66.9927C53.6226 67.1822 53.3656 67.2888 53.0977 67.2891H48.2461C47.9781 67.2888 47.7212 67.1822 47.5317 66.9927C47.3422 66.8032 47.2356 66.5463 47.2354 66.2783V60.1465H54.1084V66.2783ZM58.2861 55.0928C58.2852 55.8967 57.9654 56.6674 57.397 57.2359C56.8285 57.8043 56.0578 58.1241 55.2539 58.125H13.7461C12.9422 58.1241 12.1715 57.8043 11.603 57.2359C11.0346 56.6674 10.7148 55.8967 10.7139 55.0928V43.5002C11.5874 44.159 12.652 44.5148 13.7461 44.5137H55.2539C56.348 44.5148 57.4126 44.159 58.2861 43.5002V55.0928ZM58.2861 39.46C58.2852 40.2639 57.9654 41.0346 57.397 41.603C56.8285 42.1715 56.0578 42.4913 55.2539 42.4922H13.7461C12.9422 42.4913 12.1715 42.1715 11.603 41.603C11.0346 41.0346 10.7148 40.2639 10.7139 39.46V36.4277H58.2861V39.46ZM58.2861 34.4062H35.5107V12.8438H58.2861V34.4062ZM58.2861 10.8223H10.7139V5.36426C10.7148 4.56035 11.0346 3.78963 11.603 3.22117C12.1715 2.65272 12.9422 2.33296 13.7461 2.33203H55.2539C56.0578 2.33296 56.8285 2.65272 57.397 3.22117C57.9654 3.78963 58.2852 4.56035 58.2861 5.36426V10.8223ZM66.9785 20.9297V28.8809H64.957V20.9297H66.9785ZM41.6426 46.5352H27.3574C26.5535 46.5361 25.7828 46.8558 25.2143 47.4243C24.6459 47.9927 24.3261 48.7635 24.3252 49.5674V53.0713C24.3261 53.8752 24.6459 54.6459 25.2143 55.2144C25.7828 55.7828 26.5535 56.1026 27.3574 56.1035H41.6426C42.4465 56.1026 43.2172 55.7828 43.7857 55.2144C44.3541 54.6459 44.6739 53.8752 44.6748 53.0713V49.5674C44.6739 48.7635 44.3541 47.9927 43.7857 47.4243C43.2172 46.8558 42.4465 46.5361 41.6426 46.5352ZM42.6533 53.0713C42.653 53.3393 42.5465 53.5962 42.357 53.7857C42.1675 53.9752 41.9106 54.0817 41.6426 54.082H27.3574C27.0894 54.0817 26.8325 53.9752 26.643 53.7857C26.4535 53.5962 26.347 53.3393 26.3467 53.0713V49.5674C26.347 49.2994 26.4535 49.0425 26.643 48.853C26.8325 48.6635 27.0894 48.5569 27.3574 48.5566H41.6426C41.9106 48.5569 42.1675 48.6635 42.357 48.853C42.5465 49.0425 42.653 49.2994 42.6533 49.5674V53.0713ZM17.5195 46.5352C16.5733 46.5352 15.6483 46.8157 14.8616 47.3414C14.0748 47.8671 13.4616 48.6143 13.0995 49.4885C12.7374 50.3627 12.6427 51.3246 12.8273 52.2527C13.0119 53.1807 13.4675 54.0332 14.1366 54.7023C14.8057 55.3713 15.6581 55.827 16.5862 56.0116C17.5142 56.1962 18.4762 56.1014 19.3504 55.7393C20.2246 55.3772 20.9717 54.764 21.4974 53.9773C22.0231 53.1905 22.3037 52.2656 22.3037 51.3193C22.3023 50.0509 21.7978 48.8349 20.9009 47.938C20.004 47.0411 18.7879 46.5366 17.5195 46.5352ZM17.5195 54.082C16.9731 54.082 16.439 53.92 15.9847 53.6164C15.5303 53.3129 15.1762 52.8814 14.9671 52.3766C14.758 51.8718 14.7033 51.3163 14.8099 50.7804C14.9165 50.2444 15.1796 49.7522 15.566 49.3658C15.9524 48.9794 16.4446 48.7163 16.9806 48.6097C17.5165 48.5031 18.072 48.5578 18.5768 48.7669C19.0816 48.976 19.5131 49.3301 19.8166 49.7845C20.1202 50.2388 20.2822 50.7729 20.2822 51.3193C20.2814 52.0518 19.9901 52.754 19.4721 53.2719C18.9542 53.7899 18.252 54.0812 17.5195 54.082ZM51.4805 46.5352C50.5342 46.5352 49.6093 46.8157 48.8225 47.3414C48.0358 47.8671 47.4226 48.6143 47.0605 49.4885C46.6984 50.3627 46.6036 51.3246 46.7882 52.2527C46.9728 53.1807 47.4285 54.0332 48.0975 54.7023C48.7666 55.3713 49.6191 55.827 50.5471 56.0116C51.4752 56.1962 52.4371 56.1014 53.3113 55.7393C54.1855 55.3772 54.9327 54.764 55.4584 53.9773C55.9841 53.1905 56.2646 52.2656 56.2646 51.3193C56.2632 50.0509 55.7587 48.8349 54.8618 47.938C53.9649 47.0411 52.7489 46.5366 51.4805 46.5352ZM51.4805 54.082C50.9341 54.082 50.3999 53.92 49.9456 53.6164C49.4913 53.3129 49.1372 52.8814 48.9281 52.3766C48.719 51.8718 48.6643 51.3163 48.7709 50.7804C48.8775 50.2444 49.1406 49.7522 49.5269 49.3658C49.9133 48.9794 50.4056 48.7163 50.9415 48.6097C51.4774 48.5031 52.0329 48.5578 52.5377 48.7669C53.0425 48.976 53.474 49.3301 53.7776 49.7845C54.0811 50.2388 54.2432 50.7729 54.2432 51.3193C54.2423 52.0518 53.951 52.754 53.4331 53.2719C52.9152 53.7899 52.2129 54.0812 51.4805 54.082ZM15.6966 5.56641C15.4967 5.56641 15.3012 5.62569 15.135 5.73675C14.9688 5.84781 14.8393 6.00567 14.7628 6.19035C14.6863 6.37504 14.6662 6.57827 14.7052 6.77433C14.7442 6.9704 14.8405 7.1505 14.9819 7.29185C15.1232 7.43321 15.3033 7.52947 15.4994 7.56847C15.6954 7.60747 15.8987 7.58745 16.0834 7.51095C16.268 7.43445 16.4259 7.3049 16.537 7.13869C16.648 6.97247 16.7073 6.77705 16.7073 6.57715C16.7073 6.30908 16.6008 6.052 16.4113 5.86245C16.2217 5.67289 15.9646 5.56641 15.6966 5.56641ZM47.707 5.56641H21.293C21.0249 5.56641 20.7678 5.67289 20.5783 5.86245C20.3887 6.052 20.2822 6.30908 20.2822 6.57715C20.2822 6.84521 20.3887 7.1023 20.5783 7.29185C20.7678 7.4814 21.0249 7.58789 21.293 7.58789H47.707C47.9751 7.58789 48.2322 7.4814 48.4217 7.29185C48.6113 7.1023 48.7178 6.84521 48.7178 6.57715C48.7178 6.30908 48.6113 6.052 48.4217 5.86245C48.2322 5.67289 47.9751 5.56641 47.707 5.56641Z" fill="#0098DB"/>
</g>
<defs>
<clipPath id="clip0_236_76">
<rect width="69" height="69" fill="white" transform="translate(0 0.310547)"/>
</clipPath>
</defs>
</svg>
