<svg width="75" height="76" viewBox="0 0 75 76" fill="none" xmlns="http://www.w3.org/2000/svg">
<path d="M14.205 71.5605C11.9374 71.6674 9.70144 70.9963 7.86749 69.6585C6.99912 68.9977 6.30528 68.1348 5.84623 67.1448C5.38719 66.1548 5.17685 65.0677 5.23349 63.978C6.39299 48.939 34.731 48.336 35.937 48.318H36.8017C38.025 48.3375 66.3615 48.9405 67.5165 63.9795C67.5735 65.0686 67.3639 66.1553 66.9058 67.1451C66.4477 68.1348 65.755 68.9979 64.8877 69.6592C62.8102 71.2882 58.7482 72.7027 51.1935 70.2067C45.9311 68.4605 40.9422 65.9787 36.375 62.835C31.809 65.9781 26.8213 68.4594 21.5602 70.2052C19.1958 71.0439 16.7131 71.5013 14.205 71.5605ZM38.43 61.3552C42.6156 64.1502 47.1557 66.3736 51.93 67.9665C57.0495 69.657 61.1347 69.6007 63.429 67.8015C63.9922 67.3817 64.4444 66.8307 64.7462 66.1963C65.048 65.562 65.1903 64.8636 65.1607 64.1617C64.1737 51.2542 37.0575 50.6805 36.7837 50.6752H35.9542C35.6985 50.6752 8.57924 51.2527 7.58624 64.158C7.55699 64.8604 7.69982 65.5593 8.00229 66.1939C8.30476 66.8285 8.75771 67.3796 9.32174 67.7992C11.6175 69.5992 15.7012 69.6577 20.823 67.9642C25.5974 66.3716 30.1376 64.1482 34.323 61.353C32.9221 60.3138 31.5922 59.1823 30.342 57.966C30.1301 57.7417 30.0145 57.4433 30.02 57.1348C30.0255 56.8263 30.1516 56.5322 30.3714 56.3156C30.5911 56.099 30.887 55.9771 31.1955 55.9761C31.5041 55.975 31.8008 56.0949 32.022 56.31C33.3867 57.6136 34.8413 58.8198 36.375 59.9197C37.9079 58.8206 39.3615 57.6149 40.725 56.3115C40.9462 56.0964 41.2429 55.9765 41.5514 55.9776C41.86 55.9786 42.1559 56.1005 42.3756 56.3171C42.5954 56.5337 42.7215 56.8278 42.727 57.1363C42.7325 57.4448 42.6169 57.7432 42.405 57.9675C41.1569 59.1835 39.8292 60.315 38.4307 61.3545L38.43 61.3552ZM54.3097 44.4105C53.9968 44.4105 53.6968 44.2862 53.4755 44.0649C53.2543 43.8437 53.13 43.5436 53.13 43.2307V36.5422C53.13 32.3969 51.4833 28.4213 48.5521 25.4902C45.6209 22.559 41.6453 20.9122 37.5 20.9122C33.3547 20.9122 29.3791 22.559 26.4479 25.4902C23.5167 28.4213 21.87 32.3969 21.87 36.5422V43.2307C21.87 43.5436 21.7457 43.8437 21.5244 44.0649C21.3032 44.2862 21.0031 44.4105 20.6902 44.4105C20.3773 44.4105 20.0773 44.2862 19.856 44.0649C19.6348 43.8437 19.5105 43.5436 19.5105 43.2307V36.5422C19.5105 31.7711 21.4058 27.1954 24.7795 23.8217C28.1532 20.4481 32.7289 18.5527 37.5 18.5527C42.2711 18.5527 46.8468 20.4481 50.2205 23.8217C53.5942 27.1954 55.4895 31.7711 55.4895 36.5422V43.2307C55.4895 43.5436 55.3652 43.8437 55.1439 44.0649C54.9227 44.2862 54.6226 44.4105 54.3097 44.4105Z" fill="#0098DB"/>
<path d="M13.5435 51.5573C11.3365 51.5543 9.22072 50.6763 7.66013 49.1157C6.09953 47.5551 5.22148 45.4393 5.21851 43.2323V40.9141C5.22627 40.6062 5.35401 40.3136 5.57448 40.0986C5.79495 39.8836 6.09069 39.7633 6.39863 39.7633C6.70657 39.7633 7.00231 39.8836 7.22278 40.0986C7.44325 40.3136 7.57099 40.6062 7.57876 40.9141V43.2308C7.59637 44.8017 8.23275 46.3022 9.34979 47.4068C10.4668 48.5114 11.9744 49.1309 13.5454 49.1309C15.1163 49.1309 16.6239 48.5114 17.741 47.4068C18.858 46.3022 19.4944 44.8017 19.512 43.2308V40.9141C19.512 40.6012 19.6363 40.3011 19.8575 40.0798C20.0788 39.8586 20.3789 39.7343 20.6918 39.7343C21.0046 39.7343 21.3047 39.8586 21.526 40.0798C21.7472 40.3011 21.8715 40.6012 21.8715 40.9141V43.2308C21.8689 45.4386 20.9906 47.5552 19.4293 49.1162C17.8681 50.6772 15.7513 51.5551 13.5435 51.5573ZM61.455 51.5573C59.2479 51.5545 57.132 50.6765 55.5714 49.1159C54.0108 47.5553 53.1328 45.4394 53.13 43.2323V40.9141C53.13 40.6012 53.2543 40.3011 53.4755 40.0798C53.6968 39.8586 53.9969 39.7343 54.3098 39.7343C54.6226 39.7343 54.9227 39.8586 55.144 40.0798C55.3652 40.3011 55.4895 40.6012 55.4895 40.9141V43.2308C55.5071 44.8017 56.1435 46.3022 57.2605 47.4068C58.3776 48.5114 59.8852 49.1309 61.4561 49.1309C63.0271 49.1309 64.5347 48.5114 65.6517 47.4068C66.7688 46.3022 67.4051 44.8017 67.4228 43.2308V40.9141C67.4305 40.6062 67.5583 40.3136 67.7787 40.0986C67.9992 39.8836 68.2949 39.7633 68.6029 39.7633C68.9108 39.7633 69.2066 39.8836 69.427 40.0986C69.6475 40.3136 69.7752 40.6062 69.783 40.9141V43.2308C69.7802 45.4385 68.9019 47.555 67.3406 49.116C65.7794 50.677 63.6627 51.5549 61.455 51.5573ZM38.0175 20.9131C36.3509 20.9128 34.7219 20.4183 33.3364 19.4921C31.9509 18.566 30.8711 17.2498 30.2336 15.71C29.5961 14.1702 29.4295 12.4759 29.755 10.8415C30.0804 9.20698 30.8832 7.7057 32.0618 6.52748C33.2404 5.34926 34.742 4.547 36.3766 4.22217C38.0112 3.89733 39.7054 4.0645 41.245 4.70253C42.7846 5.34057 44.1004 6.42082 45.026 7.80667C45.9516 9.19253 46.4455 10.8217 46.4453 12.4883C46.4421 14.7222 45.553 16.8637 43.9731 18.4431C42.3932 20.0224 40.2514 20.9107 38.0175 20.9131ZM38.0175 6.4208C36.8177 6.42095 35.6448 6.77687 34.6473 7.44355C33.6497 8.11023 32.8722 9.05773 32.4132 10.1663C31.9541 11.2748 31.834 12.4945 32.0681 13.6713C32.3022 14.8481 32.88 15.929 33.7284 16.7774C34.5768 17.6258 35.6577 18.2036 36.8345 18.4377C38.0113 18.6718 39.231 18.5517 40.3396 18.0926C41.4481 17.6336 42.3956 16.8561 43.0623 15.8585C43.7289 14.861 44.0849 13.6881 44.085 12.4883C44.083 10.8797 43.4431 9.33757 42.3057 8.20012C41.1682 7.06268 39.6261 6.42279 38.0175 6.4208ZM37.8255 44.5553C37.7115 44.5553 37.6005 44.5553 37.4828 44.5516C37.307 44.5489 37.134 44.507 36.9765 44.4288C36.819 44.3506 36.681 44.2382 36.5727 44.0997C36.4643 43.9613 36.3883 43.8004 36.3502 43.6287C36.3121 43.4571 36.3129 43.2791 36.3525 43.1078C36.3758 43.0118 38.7188 33.4328 49.3853 34.0006C49.5469 34.0087 49.7051 34.0501 49.8501 34.1221C49.995 34.1942 50.1235 34.2953 50.2276 34.4193C50.3317 34.5432 50.4091 34.6873 50.455 34.8425C50.501 34.9977 50.5144 35.1607 50.4945 35.3213C50.4832 35.4151 49.2293 44.5553 37.8255 44.5553ZM47.8005 36.3556C45.9637 36.3986 44.1776 36.9663 42.6532 37.9918C41.1287 39.0172 39.9295 40.4575 39.1973 42.1426C45.0053 41.6798 47.0813 38.2868 47.7968 36.3556H47.8005Z" fill="#0098DB"/>
<path d="M37.1768 44.5552C25.7685 44.5552 24.5153 35.4149 24.5018 35.3212C24.482 35.1605 24.4955 34.9975 24.5415 34.8423C24.5875 34.6871 24.665 34.5431 24.7692 34.4191C24.8733 34.2952 25.0019 34.1941 25.1469 34.122C25.2918 34.05 25.4501 34.0086 25.6118 34.0004C36.285 33.4079 38.625 43.0117 38.6498 43.1077C38.6895 43.279 38.6904 43.457 38.6524 43.6287C38.6144 43.8004 38.5384 43.9614 38.43 44.0999C38.3215 44.2384 38.1835 44.3508 38.0259 44.429C37.8684 44.5071 37.6953 44.549 37.5195 44.5514C37.4048 44.5537 37.2893 44.5552 37.1768 44.5552ZM27.2018 36.3555C27.9173 38.2845 29.9933 41.6805 35.8088 42.1425C35.0753 40.4575 33.8753 39.0174 32.3503 37.9921C30.8253 36.9667 29.0389 36.3989 27.2018 36.3555Z" fill="#0098DB"/>
<path d="M35.3917 40.4206C35.1428 40.4204 34.9004 40.3415 34.699 40.1952C34.4976 40.0489 34.3477 39.8427 34.2705 39.6061C33.5522 37.634 33.4241 35.4953 33.9019 33.4515C34.3796 31.4077 35.4426 29.5474 36.9607 28.0981C37.0825 27.9906 37.2257 27.9101 37.3808 27.862C37.536 27.8139 37.6995 27.7993 37.8607 27.8191C38.0214 27.8366 38.1767 27.8869 38.317 27.9668C38.4574 28.0468 38.5799 28.1548 38.6767 28.2841C41.9355 32.6341 41.76 36.6181 41.0385 39.1944C40.9545 39.4956 40.7542 39.7511 40.4817 39.9047C40.2093 40.0583 39.887 40.0974 39.5857 40.0134C39.2845 39.9293 39.029 39.729 38.8754 39.4566C38.7218 39.1842 38.6827 38.8619 38.7667 38.5606C39.1235 37.2756 39.2043 35.9297 39.004 34.6112C38.8036 33.2928 38.3266 32.0316 37.6042 30.9106C36.7875 32.0483 36.2611 33.3683 36.0707 34.7558C35.8804 36.1433 36.032 37.5563 36.5122 38.8719C36.5696 39.0489 36.5844 39.237 36.5554 39.4209C36.5263 39.6047 36.4542 39.7791 36.345 39.9299C36.2358 40.0806 36.0925 40.2034 35.9269 40.2883C35.7612 40.3732 35.5779 40.4177 35.3917 40.4184V40.4206Z" fill="#0098DB"/>
</svg>
