<svg width="85" height="86" viewBox="0 0 85 86" fill="none" xmlns="http://www.w3.org/2000/svg">
<path d="M55.5687 41.9871C56.2461 41.9871 56.8172 41.4558 56.857 40.7785C56.8703 40.5128 56.8836 40.2472 56.8836 39.9683C56.8836 32.6769 50.4289 26.7402 42.5 26.7402C34.5711 26.7402 28.1164 32.6769 28.1164 39.9683C28.1164 40.2472 28.1297 40.5128 28.143 40.7785C28.1828 41.4558 28.7539 41.9871 29.4312 41.9871H41.225V49.7566L33.4422 55.8128C33.173 56.0226 32.998 56.3306 32.9557 56.6693C32.9133 57.0079 33.0071 57.3495 33.2164 57.6191C33.6547 58.1769 34.4648 58.2832 35.0227 57.8449L42.5 52.0277L49.9773 57.8449C50.2164 58.0308 50.4953 58.1105 50.7609 58.1105C50.9571 58.1092 51.1506 58.0645 51.3274 57.9795C51.5042 57.8945 51.66 57.7715 51.7836 57.6191C51.9929 57.3495 52.0867 57.0079 52.0443 56.6693C52.002 56.3306 51.827 56.0226 51.5578 55.8128L43.7883 49.7699V41.9871H55.5687ZM42.5 29.33C48.7953 29.33 53.9617 33.8058 54.2938 39.4238H30.7063C31.0383 33.8058 36.2047 29.33 42.5 29.33ZM42.5 24.4425C44.3728 24.439 46.168 23.6935 47.4923 22.3692C48.8166 21.0449 49.5621 19.2497 49.5656 17.3769C49.5621 15.5041 48.8166 13.7089 47.4923 12.3846C46.168 11.0603 44.3728 10.3148 42.5 10.3113C40.6272 10.3148 38.832 11.0603 37.5077 12.3846C36.1834 13.7089 35.4379 15.5041 35.4344 17.3769C35.4344 21.2816 38.6086 24.4425 42.5 24.4425ZM42.5 12.8878C44.9703 12.8878 46.9891 14.9066 46.9891 17.3769C46.9891 19.8472 44.9703 21.866 42.5 21.866C40.0297 21.866 38.0109 19.8472 38.0109 17.3769C38.0109 14.9066 40.0297 12.8878 42.5 12.8878ZM14.3836 60.0628C6.45469 60.0628 0 65.9996 0 73.291C0 73.5699 0.0132812 73.8355 0.0265625 74.1011C0.0664062 74.7785 0.6375 75.3097 1.31484 75.3097H27.4523C28.1297 75.3097 28.7008 74.7785 28.7406 74.1011C28.7539 73.8355 28.7672 73.5699 28.7672 73.291C28.7672 65.9996 22.3125 60.0628 14.3836 60.0628ZM2.58984 72.7332C2.92188 67.1152 8.075 62.6394 14.3836 62.6394C20.6922 62.6394 25.8453 67.1152 26.1773 72.7332H2.58984ZM14.3836 57.7652C16.2564 57.7617 18.0516 57.0161 19.3759 55.6918C20.7002 54.3675 21.4457 52.5724 21.4492 50.6996C21.4457 48.8267 20.7002 47.0316 19.3759 45.7073C18.0516 44.383 16.2564 43.6374 14.3836 43.6339C12.5108 43.6374 10.7156 44.383 9.39132 45.7073C8.06702 47.0316 7.32148 48.8267 7.31797 50.6996C7.32148 52.5724 8.06702 54.3675 9.39132 55.6918C10.7156 57.0161 12.5108 57.7617 14.3836 57.7652ZM14.3836 46.2105C16.8539 46.2105 18.8727 48.2292 18.8727 50.6996C18.8727 53.1699 16.8539 55.1886 14.3836 55.1886C11.9133 55.1886 9.89453 53.1699 9.89453 50.6996C9.89453 48.216 11.9133 46.2105 14.3836 46.2105ZM70.6164 60.0628C62.6875 60.0628 56.2328 65.9996 56.2328 73.291C56.2328 73.5699 56.2461 73.8355 56.2594 74.1011C56.2992 74.7785 56.8703 75.3097 57.5477 75.3097H83.6852C84.3625 75.3097 84.9336 74.7785 84.9734 74.1011C84.9867 73.8355 85 73.5699 85 73.291C85 65.9996 78.5453 60.0628 70.6164 60.0628ZM58.8227 72.7332C59.1547 67.1152 64.3078 62.6394 70.6164 62.6394C76.9117 62.6394 82.0781 67.1152 82.4102 72.7332H58.8227ZM70.6164 57.7652C72.4892 57.7617 74.2844 57.0161 75.6087 55.6918C76.933 54.3675 77.6785 52.5724 77.682 50.6996C77.6785 48.8267 76.933 47.0316 75.6087 45.7073C74.2844 44.383 72.4892 43.6374 70.6164 43.6339C68.7436 43.6374 66.9484 44.383 65.6241 45.7073C64.2998 47.0316 63.5543 48.8267 63.5508 50.6996C63.5543 52.5724 64.2998 54.3675 65.6241 55.6918C66.9484 57.0161 68.7436 57.7617 70.6164 57.7652ZM70.6164 46.2105C73.0867 46.2105 75.1055 48.2292 75.1055 50.6996C75.1055 53.1699 73.0867 55.1886 70.6164 55.1886C68.1461 55.1886 66.1273 53.1699 66.1273 50.6996C66.1273 48.216 68.1461 46.2105 70.6164 46.2105Z" fill="#0098DB"/>
</svg>
