<svg width="75" height="76" viewBox="0 0 75 76" fill="none" xmlns="http://www.w3.org/2000/svg">
<path fill-rule="evenodd" clip-rule="evenodd" d="M9.37488 4.99805C6.8046 4.99805 4.68744 7.11521 4.68744 9.68549L4.68119 50.3162C4.68119 52.4021 7.80928 52.4021 7.80928 50.3162L7.8124 9.68549C7.8124 8.79331 8.48271 8.12301 9.37488 8.12301H53.1243C54.0165 8.12301 54.6868 8.79331 54.6868 9.68549V37.8101C54.6556 39.9226 57.843 39.9226 57.8118 37.8101V9.68549C57.8118 7.11521 55.6946 4.99805 53.1243 4.99805H9.37488ZM18.7498 17.4979C18.3354 17.4979 17.9379 17.6625 17.6449 17.9555C17.3519 18.2486 17.1873 18.646 17.1873 19.0604C17.1873 19.4748 17.3519 19.8722 17.6449 20.1652C17.9379 20.4582 18.3354 20.6229 18.7498 20.6229C19.1642 20.6229 19.5616 20.4582 19.8546 20.1652C20.1476 19.8722 20.3122 19.4748 20.3122 19.0604C20.3122 18.646 20.1476 18.2486 19.8546 17.9555C19.5616 17.6625 19.1642 17.4979 18.7498 17.4979ZM24.8434 17.501C22.8075 17.6416 22.9528 20.6791 24.9934 20.626H43.7495C45.7885 20.5822 45.7885 17.5448 43.7495 17.501H24.9934C24.9435 17.4987 24.8934 17.4987 24.8434 17.501ZM18.7498 26.8728C18.3354 26.8728 17.9379 27.0374 17.6449 27.3304C17.3519 27.6234 17.1873 28.0209 17.1873 28.4353C17.1873 28.8496 17.3519 29.2471 17.6449 29.5401C17.9379 29.8331 18.3354 29.9977 18.7498 29.9977C19.1642 29.9977 19.5616 29.8331 19.8546 29.5401C20.1476 29.2471 20.3122 28.8496 20.3122 28.4353C20.3122 28.0209 20.1476 27.6234 19.8546 27.3304C19.5616 27.0374 19.1642 26.8728 18.7498 26.8728ZM43.9213 26.8728C43.8635 26.8728 43.8057 26.8728 43.7495 26.879H24.9934C24.9435 26.8767 24.8934 26.8767 24.8434 26.879C22.9278 27.1165 23.0622 29.9384 24.9934 29.9915H43.7495C45.8947 30.1805 46.0744 26.9181 43.9213 26.8728ZM24.9934 36.2445C22.9544 36.2883 22.9544 39.3257 24.9934 39.3695H43.7495C45.8775 39.4164 45.8775 36.1977 43.7495 36.2445H24.9934ZM18.7498 36.2477C18.3354 36.2477 17.9379 36.4123 17.6449 36.7053C17.3519 36.9983 17.1873 37.3957 17.1873 37.8101C17.1873 38.2245 17.3519 38.622 17.6449 38.915C17.9379 39.208 18.3354 39.3726 18.7498 39.3726C19.1642 39.3726 19.5616 39.208 19.8546 38.915C20.1476 38.622 20.3122 38.2245 20.3122 37.8101C20.3122 37.3957 20.1476 36.9983 19.8546 36.7053C19.5616 36.4123 19.1642 36.2477 18.7498 36.2477ZM18.7498 45.6225C18.3354 45.6225 17.9379 45.7872 17.6449 46.0802C17.3519 46.3732 17.1873 46.7706 17.1873 47.185C17.1873 47.5994 17.3519 47.9968 17.6449 48.2899C17.9379 48.5829 18.3354 48.7475 18.7498 48.7475C19.1642 48.7475 19.5616 48.5829 19.8546 48.2899C20.1476 47.9968 20.3122 47.5994 20.3122 47.185C20.3122 46.7706 20.1476 46.3732 19.8546 46.0802C19.5616 45.7872 19.1642 45.6225 18.7498 45.6225ZM24.9934 45.6225C22.8653 45.5757 22.8653 48.7944 24.9934 48.7475H40.6214C42.7495 48.7944 42.7495 45.5757 40.6214 45.6225H24.9934ZM18.7498 54.9974C18.3354 54.9974 17.9379 55.162 17.6449 55.4551C17.3519 55.7481 17.1873 56.1455 17.1873 56.5599C17.1873 56.9743 17.3519 57.3717 17.6449 57.6647C17.9379 57.9578 18.3354 58.1224 18.7498 58.1224C19.1642 58.1224 19.5616 57.9578 19.8546 57.6647C20.1476 57.3717 20.3122 56.9743 20.3122 56.5599C20.3122 56.1455 20.1476 55.7481 19.8546 55.4551C19.5616 55.162 19.1642 54.9974 18.7498 54.9974ZM24.8434 54.9974C22.7591 55.0974 22.9075 58.2255 24.9934 58.1255H37.4964C39.5823 58.1255 39.5823 54.9974 37.4964 54.9974H24.9934C24.9435 54.9951 24.8934 54.9951 24.8434 54.9974ZM6.22805 56.5318C6.02152 56.5338 5.81745 56.5768 5.62762 56.6581C5.4378 56.7395 5.266 56.8577 5.12215 57.006C4.97831 57.1542 4.86527 57.3294 4.78958 57.5216C4.71389 57.7137 4.67705 57.919 4.68119 58.1255L4.68744 65.9348C4.68744 68.5051 6.8046 70.6222 9.37488 70.6222H40.6245C42.737 70.6535 42.737 67.466 40.6245 67.4973H9.37488C8.48271 67.4973 7.8124 66.827 7.8124 65.9348L7.80928 58.1255C7.81348 57.9161 7.77555 57.708 7.69773 57.5136C7.61991 57.3191 7.5038 57.1423 7.35629 56.9937C7.20879 56.845 7.0329 56.7275 6.83908 56.6481C6.64526 56.5688 6.43746 56.5292 6.22805 56.5318ZM56.2524 42.4944C48.5041 42.4944 42.1932 48.8084 42.1932 56.5568C42.1932 64.3051 48.5056 70.6285 56.2524 70.6285C64.0008 70.6285 70.3116 64.3051 70.3116 56.5568C70.3116 48.8084 63.9992 42.4944 56.2524 42.4944ZM56.2524 45.6225C57.6892 45.6192 59.1126 45.8998 60.4407 46.4481C61.7688 46.9965 62.9754 47.8018 63.9914 48.8178C65.0074 49.8337 65.8127 51.0404 66.361 52.3685C66.9094 53.6966 67.1899 55.1199 67.1867 56.5568C67.1902 57.9941 66.9098 59.418 66.3616 60.7467C65.8135 62.0754 65.0084 63.2828 63.9925 64.2996C62.9766 65.3163 61.7699 66.1225 60.4416 66.6718C59.1134 67.2211 57.6897 67.5027 56.2524 67.5004C54.8151 67.5027 53.3915 67.2211 52.0632 66.6718C50.735 66.1225 49.5283 65.3163 48.5124 64.2996C47.4965 63.2828 46.6913 62.0754 46.1432 60.7467C45.5951 59.418 45.3147 57.9941 45.3182 56.5568C45.3149 55.1199 45.5955 53.6966 46.1438 52.3685C46.6921 51.0404 47.4974 49.8337 48.5134 48.8178C49.5294 47.8018 50.7361 46.9965 52.0642 46.4481C53.3923 45.8998 54.8156 45.6192 56.2524 45.6225ZM61.1867 51.6772C60.7821 51.6903 60.3984 51.8601 60.1164 52.1506L54.5915 57.674L52.3884 55.4615C52.2435 55.3142 52.0709 55.197 51.8806 55.1167C51.6902 55.0364 51.4858 54.9946 51.2792 54.9936C51.0726 54.9927 50.8679 55.0327 50.6768 55.1112C50.4857 55.1898 50.3121 55.3054 50.1659 55.4514C50.0197 55.5974 49.9038 55.7709 49.825 55.9618C49.7461 56.1528 49.7059 56.3575 49.7065 56.5641C49.7072 56.7707 49.7487 56.9752 49.8287 57.1656C49.9088 57.3561 50.0257 57.5289 50.1728 57.674L53.4853 60.9848C53.6304 61.1301 53.8027 61.2454 53.9924 61.324C54.1821 61.4026 54.3854 61.4431 54.5907 61.4431C54.7961 61.4431 54.9994 61.4026 55.1891 61.324C55.3787 61.2454 55.5511 61.1301 55.6962 60.9848L62.332 54.3631C62.5599 54.1433 62.7156 53.8594 62.7786 53.5492C62.8415 53.2389 62.8088 52.9168 62.6846 52.6256C62.5604 52.3344 62.3507 52.0877 62.0832 51.9184C61.8157 51.749 61.5031 51.6649 61.1867 51.6772Z" fill="#0098DB"/>
</svg>
