<?xml version="1.0" encoding="UTF-8" standalone="no"?>
<!DOCTYPE svg PUBLIC "-//W3C//DTD SVG 1.1//EN" "http://www.w3.org/Graphics/SVG/1.1/DTD/svg11.dtd">
<svg width="100%" height="100%" viewBox="0 0 583 204" version="1.1" xmlns="http://www.w3.org/2000/svg" xmlns:xlink="http://www.w3.org/1999/xlink" xml:space="preserve" xmlns:serif="http://www.serif.com/" style="fill-rule:evenodd;clip-rule:evenodd;stroke-linejoin:round;stroke-miterlimit:2;">
    <g transform="matrix(1,0,0,1,-19.7802,-120.074)">
        <g>
            <g transform="matrix(1,0,0,1,-0.63425,-0.376568)">
                <path d="M124.69,277.103C92.025,282.865 56.191,294.743 20.415,324.447C152.422,198.118 260.651,195.069 403.07,240.329C492.75,268.835 565.777,226.785 602.299,199.801L602.548,200.232C515.592,271.557 447.73,318.96 359.719,307.024C327.772,302.689 299.196,296.204 272.315,290.103C220.813,278.414 175.533,268.138 124.69,277.103ZM396.242,165.058C360.63,169.841 332.56,173.611 270.434,135.257C387.745,225.431 495.8,244.203 602.774,173.306L602.854,173.272C545.795,196.098 521.729,185.302 497.299,174.342C484.463,168.584 471.527,162.781 453.652,161.785C430.311,160.483 412.491,162.876 396.242,165.058Z" style="fill:rgb(236,248,253);"/>
            </g>
            <path d="M543.102,142.144C539.273,149.264 530.269,151.793 523.001,147.781C515.728,143.774 512.934,134.74 516.764,127.62C520.598,120.494 529.597,117.971 536.87,121.977C544.137,125.99 546.931,135.013 543.102,142.144Z" style="fill:rgb(0,152,219);"/>
            <path d="M569.995,149.356C567.454,154.076 561.485,155.75 556.661,153.093C551.838,150.436 549.987,144.45 552.527,139.719C555.068,134.999 561.036,133.314 565.855,135.977C570.684,138.639 572.534,144.625 569.995,149.356Z" style="fill:rgb(0,152,219);"/>
            <path d="M583.874,156.664C582.572,159.092 579.505,159.95 577.027,158.587C574.549,157.223 573.592,154.143 574.899,151.709C576.207,149.285 579.279,148.421 581.752,149.791C584.236,151.159 585.183,154.24 583.874,156.664Z" style="fill:rgb(0,152,219);"/>
        </g>
    </g>
</svg>
