<svg width="218" height="336" viewBox="0 0 218 336" fill="none" xmlns="http://www.w3.org/2000/svg">
<path fill-rule="evenodd" clip-rule="evenodd" d="M117.683 319.558C382.165 51.7481 35.8065 -86.5737 26.2308 60.6036C21.4456 134.154 123.854 167.863 124.214 252.167C124.318 276.268 120.455 299.119 117.683 319.558Z" fill="url(#paint0_linear_220_1143)"/>
<path fill-rule="evenodd" clip-rule="evenodd" d="M17.6535 42.7608C13.7031 65.8681 17.5498 84.5067 23.268 100.221C36.8159 137.443 66.5744 157.806 95.5744 195.291C122.97 230.707 119.38 272.284 110.159 328.227H109.908C112.483 305.48 112.434 262.997 77.3832 231.029C21.7238 180.259 -4.22615 132.238 17.6535 42.7608Z" fill="#78B833"/>
<path fill-rule="evenodd" clip-rule="evenodd" d="M4.29648 199.606C51.4877 225.027 41.47 241.434 62.0619 272.911C76.4065 294.84 97.9478 288.38 104.686 335.156L104.681 335.113C108.669 270.538 73.2364 228.093 4.29648 199.606Z" fill="#78B833"/>
<path fill-rule="evenodd" clip-rule="evenodd" d="M49.7799 85.9529C39.1129 56.5763 58.2208 17.2421 89.6925 20.0685C102.902 21.2525 105.963 34.3803 96.862 40.1857C79.1292 51.4857 50.02 47.699 49.7799 85.9529Z" fill="#FEFEFE"/>
<path fill-rule="evenodd" clip-rule="evenodd" d="M14.1559 171.697C19.7758 170.552 25.243 174.311 26.3561 180.095C27.4746 185.878 23.8189 191.504 18.199 192.649C12.5736 193.795 7.11185 190.036 5.99332 184.252C4.88024 178.469 8.53046 172.849 14.1559 171.697Z" fill="#00A0E3"/>
<path fill-rule="evenodd" clip-rule="evenodd" d="M5.87326 153.764C9.59988 153.005 13.2228 155.499 13.9649 159.335C14.7069 163.17 12.2844 166.897 8.5523 167.661C4.82567 168.419 1.19721 165.931 0.460618 162.096C-0.281433 158.254 2.14117 154.528 5.87326 153.764Z" fill="#00A0E3"/>
<path fill-rule="evenodd" clip-rule="evenodd" d="M3.55441 142.878C5.46956 142.486 7.33014 143.768 7.71208 145.737C8.09402 147.707 6.85001 149.628 4.9294 150.021C3.01425 150.408 1.14821 149.126 0.771732 147.156C0.389794 145.181 1.63926 143.266 3.55441 142.878Z" fill="#00A0E3"/>
<defs>
<linearGradient id="paint0_linear_220_1143" x1="131.88" y1="202.014" x2="104.266" y2="48.9108" gradientUnits="userSpaceOnUse">
<stop stop-color="#A2D9F7"/>
<stop offset="1" stop-color="#00A0E3"/>
</linearGradient>
</defs>
</svg>
