<svg width="76" height="98" viewBox="0 0 76 98" fill="none" xmlns="http://www.w3.org/2000/svg">
<g id="icon" clip-path="url(#clip0_236_220)">
<path id="Vector" d="M55.2225 19.5H49.1358C49.3471 18.4738 49.1427 17.4056 48.5675 16.53C48.3699 16.3029 48.1243 16.1226 47.8484 16.0021C47.5726 15.8817 47.2734 15.824 46.9725 15.8333C44.0799 16.2554 41.3793 17.5322 39.2175 19.5H32.9475C30.7184 17.5036 27.9391 16.2258 24.9725 15.8333C24.6686 15.8216 24.366 15.8781 24.0869 15.9987C23.8077 16.1192 23.559 16.3008 23.3592 16.53C22.7907 17.4084 22.5929 18.4762 22.8092 19.5H16.7225C16.4794 19.5 16.2462 19.5965 16.0743 19.7684C15.9024 19.9403 15.8058 20.1735 15.8058 20.4166V27.75C15.8058 27.9931 15.9024 28.2262 16.0743 28.3981C16.2462 28.57 16.4794 28.6666 16.7225 28.6666H29.1708L28.1808 30.5H18.5558C18.3127 30.5 18.0796 30.5965 17.9077 30.7684C17.7358 30.9403 17.6392 31.1735 17.6392 31.4166V55.25C17.6392 55.4931 17.7358 55.7262 17.9077 55.8981C18.0796 56.07 18.3127 56.1666 18.5558 56.1666H33.2225C33.4656 56.1666 33.6988 56.07 33.8707 55.8981C34.0426 55.7262 34.1392 55.4931 34.1392 55.25V31.93L35.9725 28.2633L37.8058 33.0666V55.25C37.8058 55.4931 37.9024 55.7262 38.0743 55.8981C38.2462 56.07 38.4794 56.1666 38.7225 56.1666H53.3892C53.6323 56.1666 53.8655 56.07 54.0374 55.8981C54.2093 55.7262 54.3058 55.4931 54.3058 55.25V31.4166C54.3058 31.1735 54.2093 30.9403 54.0374 30.7684C53.8655 30.5965 53.6323 30.5 53.3892 30.5H43.1775L42.4442 28.6666H55.2775C55.5206 28.6666 55.7538 28.57 55.9257 28.3981C56.0976 28.2262 56.1942 27.9931 56.1942 27.75V20.4166C56.1944 20.2962 56.171 20.177 56.1251 20.0657C56.0793 19.9544 56.0119 19.8532 55.927 19.7679C55.842 19.6826 55.7411 19.6149 55.63 19.5686C55.5189 19.5223 55.3997 19.4984 55.2793 19.4981L55.2225 19.5ZM41.6925 31.7466L40.8125 31.4533C40.5816 31.3781 40.3302 31.3977 40.1136 31.5077C39.8971 31.6176 39.733 31.8091 39.6575 32.04L39.5292 32.4066L37.2008 26.54C37.617 26.3841 38.002 26.155 38.3375 25.8616L39.5842 26.4666L40.2075 28.025L41.6925 31.7466ZM31.7375 32.6816L31.2425 31.8566C31.1358 31.6756 30.9701 31.5367 30.7731 31.4633C30.5762 31.3899 30.3601 31.3863 30.1608 31.4533L29.6108 31.6366L32.3058 26.6316L33.6442 26.0266C33.932 26.2576 34.2547 26.4428 34.5975 26.5766L31.7375 32.6816ZM37.8058 23.1666C37.8058 23.6529 37.6127 24.1192 37.2689 24.463C36.9251 24.8068 36.4587 25 35.9725 25C35.4863 25 35.02 24.8068 34.6762 24.463C34.3323 24.1192 34.1392 23.6529 34.1392 23.1666C34.1392 22.6804 34.3323 22.2141 34.6762 21.8703C35.02 21.5264 35.4863 21.3333 35.9725 21.3333C36.4587 21.3333 36.9251 21.5264 37.2689 21.8703C37.6127 22.2141 37.8058 22.6804 37.8058 23.1666ZM47.1925 17.6666C47.4858 18.015 47.3392 19.3166 47.1925 20.215V20.5083C47.1925 20.8383 47.1008 21.15 47.0642 21.4433C47.0495 21.6875 47.0495 21.9324 47.0642 22.1766V22.7633C47.0642 23.8083 47.0642 25.9716 46.4958 26.6133C45.9275 27.255 43.1042 26.0816 40.7025 25L39.4375 24.4133C39.7693 23.5772 39.7693 22.646 39.4375 21.81C41.8575 19.5 45.1392 17.6666 46.9725 17.6666C47.0074 17.6521 47.0448 17.6446 47.0825 17.6446C47.1203 17.6446 47.1577 17.6521 47.1925 17.6666ZM24.7525 17.6666C24.7874 17.6521 24.8248 17.6446 24.8625 17.6446C24.9003 17.6446 24.9377 17.6521 24.9725 17.6666C27.878 18.1765 30.5548 19.5725 32.6358 21.6633C32.4443 22.1157 32.3457 22.602 32.3457 23.0933C32.3457 23.5846 32.4443 24.0709 32.6358 24.5233C29.9592 25.715 26.0542 27.2183 25.5225 26.6866C24.9908 26.155 24.9725 23.8816 24.9725 22.8366V22.25C24.9872 22.0057 24.9872 21.7608 24.9725 21.5166C24.9725 21.2233 24.9725 20.9116 24.8442 20.5816V20.2883C24.6058 19.3533 24.4592 18.07 24.7525 17.6666Z" fill="#0098DB"/>
<path id="Vector_2" fill-rule="evenodd" clip-rule="evenodd" d="M0.972397 75.7804C5.50495 72.0173 10.0447 70.5125 14.1831 69.7825C23.9863 68.0539 32.1571 71.9717 43.9588 73.5731C55.109 75.0853 63.7064 69.0798 74.7228 60.0437L74.6913 59.989C70.0643 63.4077 60.8125 68.735 49.451 65.1236C31.408 59.3896 17.6965 59.7758 0.972397 75.7804Z" fill="#ECF8FD"/>
<g id="Group 36">
<path id="Vector_3" fill-rule="evenodd" clip-rule="evenodd" d="M45.4451 6.5581C44.753 4.13385 46.2158 1.61082 48.7129 0.927586C51.2098 0.241962 53.7987 1.65399 54.4908 4.07824C55.183 6.50488 53.72 9.02552 51.2231 9.71115C48.726 10.3944 46.1397 8.98455 45.4451 6.5581Z" fill="#ECF8FD"/>
<path id="Vector_4" fill-rule="evenodd" clip-rule="evenodd" d="M37.8655 10.7931C37.4072 9.18554 38.3776 7.51352 40.0335 7.05871C41.6895 6.6039 43.4045 7.53967 43.8654 9.14945C44.3237 10.757 43.3559 12.4313 41.6998 12.8837C40.0414 13.3387 38.3264 12.4029 37.8655 10.7931Z" fill="#ECF8FD"/>
<path id="Vector_5" fill-rule="evenodd" clip-rule="evenodd" d="M33.1738 12.1773C32.9369 11.3513 33.436 10.4925 34.2863 10.2586C35.1367 10.0246 36.0204 10.5049 36.2575 11.3334C36.492 12.1596 35.9931 13.0207 35.1426 13.2523C34.2898 13.4864 33.4083 13.0035 33.1738 12.1773Z" fill="#ECF8FD"/>
</g>
</g>
<defs>
<clipPath id="clip0_236_220">
<rect width="75.5722" height="97.384" fill="white"/>
</clipPath>
</defs>
</svg>
