<svg width="27" height="20" viewBox="0 0 27 20" fill="none" xmlns="http://www.w3.org/2000/svg">
<g clip-path="url(#clip0_236_276)">
<path fill-rule="evenodd" clip-rule="evenodd" d="M12.3209 5.40936C13.1821 4.77848 14.2509 4.43046 15.3579 4.43046C15.6053 4.43046 15.8543 4.44822 16.0985 4.48377C16.0684 4.67481 16.0224 4.86438 15.9589 5.04801C15.7766 5.56486 15.4642 6.0358 15.0502 6.41788C14.833 6.33939 14.6014 6.29942 14.3683 6.29942C13.772 6.29942 13.2407 6.5571 12.8934 6.95992C13.0076 7.6219 12.9695 8.31498 12.7602 8.99474C13.0948 9.49678 13.6895 9.83146 14.3683 9.83146C15.2754 9.83146 16.0557 9.22873 16.2254 8.39792C17.2356 7.653 18.0476 6.51415 18.3362 5.33828C19.57 6.19723 20.298 7.55081 20.298 8.9888C20.298 9.56489 20.1806 10.1351 19.9522 10.6712L22.6197 13.1843L26.8873 17.1918C26.8873 17.1918 27.0031 18.4402 26.9999 19.2503L18.8373 11.6427L18.5852 11.8648L26.9793 19.6886C26.9793 19.7701 26.9571 19.8471 26.9143 19.9182C26.6939 20.124 24.5275 19.8856 23.936 19.8101L23.8789 19.7553L23.6252 17.913L21.6618 17.6553L21.6047 17.6005L21.3542 15.7582L19.3845 15.505L17.077 13.3443C16.5283 13.5338 15.9494 13.6316 15.3642 13.6316C13.8418 13.6316 12.4827 12.9859 11.5787 11.9744L9.87547 16.204C9.30613 17.6138 7.59812 18.3543 6.07884 17.8493L1.91745 16.4661C0.396583 15.9611 -0.382089 14.3928 0.185661 12.9829L2.94194 6.13947C3.87603 3.82031 6.56888 2.53485 9.09679 3.11538C9.20146 2.73033 9.36481 2.35861 9.58683 2.01207C10.8365 0.0646267 13.642 -0.585512 15.7242 0.578512C17.8018 1.73957 18.4773 4.25571 17.234 6.19575C16.6393 7.12282 15.6751 7.79368 14.5538 8.06025H14.5523C14.5094 8.06025 14.3905 8.14022 14.113 7.79812C13.9338 7.57746 14.2398 7.35237 14.5221 7.27091C15.2818 7.05321 15.9526 6.46231 16.3634 5.82106C16.8645 5.04208 17.0009 4.10317 16.7408 3.22645C16.495 2.41933 15.9288 1.72625 15.1565 1.29529C13.0346 0.107572 10.4416 1.27308 9.91194 3.37158C10.9697 3.79809 11.7976 4.5282 12.3209 5.40936ZM8.97151 4.36233C8.98895 4.61261 9.02701 4.85401 9.09679 5.0954C9.22049 5.52488 9.35371 5.80922 9.59 6.1839C9.70102 6.36457 9.82789 6.53784 9.96745 6.70075C9.72956 6.87402 9.42983 6.97769 9.10472 6.97769C8.32922 6.97769 7.70121 6.39123 7.70121 5.66705C7.70121 4.98433 8.25944 4.42453 8.97151 4.36233ZM10.4654 5.98693C10.337 5.81069 10.2291 5.63743 10.1356 5.44194C10.0658 5.29977 10.0071 5.15019 9.9611 4.99914C9.9167 4.85548 9.88181 4.70887 9.85961 4.56226C10.2497 4.79477 10.5082 5.20351 10.5082 5.66705C10.5082 5.77812 10.494 5.88474 10.4654 5.98693Z" fill="white"/>
</g>
<defs>
<clipPath id="clip0_236_276">
<rect width="27" height="20" fill="white"/>
</clipPath>
</defs>
</svg>
