<svg width="204" height="78" viewBox="0 0 204 78" fill="none" xmlns="http://www.w3.org/2000/svg">
<path d="M9.31867 76.1884C9.02987 76.77 8.6285 77.2161 8.11455 77.5259C7.6006 77.8356 7.01812 77.991 6.36613 77.991C5.3999 77.991 4.5952 77.6454 3.94909 76.9532C3.30298 76.262 2.97992 75.4245 2.97992 74.4425C2.97992 73.5033 3.31179 72.6907 3.9765 72.0025C4.64121 71.3133 5.43416 70.9697 6.35732 70.9697C7.74059 70.9697 8.72835 71.5921 9.31867 72.8371H8.37789C7.86687 72.124 7.19041 71.7674 6.34753 71.7674C5.6466 71.7674 5.04552 72.0353 4.54429 72.5701C4.04307 73.105 3.79147 73.7294 3.79147 74.4425C3.79147 75.1805 4.0323 75.8218 4.51199 76.3666C5.01615 76.9303 5.62506 77.2112 6.33872 77.2112C7.19922 77.2112 7.86981 76.8706 8.3495 76.1884H9.31867ZM17.118 77.8595H16.2869L15.5067 75.775H12.8253L12.0549 77.8595H11.2139L13.8062 71.1012H14.5257L17.118 77.8595ZM15.2257 75.043L14.186 72.2275L14.1586 72.2465L13.0955 75.043H15.2257ZM23.8944 77.8595H23.1102V74.7901H20.1205V77.8595H19.3363V71.1012H20.1205V74.0391H23.1102V71.1012H23.8944V77.8595ZM32.0079 77.8595H31.1758L30.3966 75.775H27.7142L26.9438 77.8595H26.1029L28.6952 71.1012H29.4157L32.0079 77.8595ZM30.1146 75.043L29.075 72.2275L29.0476 72.2465L27.9854 75.043H30.1146ZM37.2884 71.8332H35.9052V77.8595H35.1112V71.8332H33.727V71.1012H37.2884V71.8332ZM46.2792 74.4335C46.2792 75.4215 45.9493 76.263 45.2914 76.9582C44.6336 77.6524 43.822 77.9999 42.8558 77.9999C41.8964 77.9999 41.0888 77.6514 40.4338 76.9532C39.7789 76.2551 39.451 75.4185 39.451 74.4425C39.451 73.4974 39.7877 72.6827 40.4612 71.9975C41.1348 71.3123 41.9365 70.9697 42.8656 70.9697C43.8063 70.9697 44.6101 71.3073 45.2777 71.9836C45.9454 72.6588 46.2792 73.4754 46.2792 74.4335ZM45.4578 74.4236C45.4578 73.6975 45.2023 73.0691 44.6923 72.5373C44.1813 72.0055 43.5694 71.7395 42.8558 71.7395C42.1548 71.7395 41.5489 72.0114 41.0379 72.5562C40.5278 73.1 40.2723 73.7294 40.2723 74.4425C40.2723 75.1994 40.519 75.8477 41.0104 76.3855C41.5146 76.9423 42.1362 77.2211 42.8744 77.2211C43.6252 77.2211 44.2459 76.9423 44.7383 76.3855C45.218 75.8477 45.4578 75.1934 45.4578 74.4236ZM52.9165 73.0532C52.9165 73.7165 52.6943 74.2234 52.2518 74.574C51.8524 74.8926 51.3169 75.052 50.6463 75.052H49.7329V77.8595H48.9488V71.1012H50.6551C51.3326 71.1012 51.8671 71.2515 52.2606 71.5513C52.6982 71.883 52.9165 72.3839 52.9165 73.0532ZM52.104 73.1C52.104 72.2554 51.6076 71.8332 50.616 71.8332H49.7329V74.321H50.5817C51.5969 74.321 52.104 73.9137 52.104 73.1ZM60.6141 77.8595H59.8211V72.4028L56.3027 77.8595H55.5215V71.1012H56.3057V76.5549L59.8211 71.1012H60.6141V77.8595ZM67.547 69.3643C67.547 69.7457 67.4119 70.0624 67.1408 70.3124C66.8706 70.5624 66.5446 70.6878 66.1628 70.6878C65.7878 70.6878 65.4648 70.5624 65.1946 70.3124C64.9234 70.0624 64.7883 69.7457 64.7883 69.3643H65.4158C65.4158 69.5893 65.4853 69.7756 65.6234 69.923C65.7614 70.0704 65.9415 70.1431 66.1628 70.1431C66.3909 70.1431 66.571 70.0714 66.7032 69.928C66.8353 69.7835 66.9009 69.5963 66.9009 69.3643H67.547ZM68.6914 77.8595H67.8975V72.4058L64.3821 77.8595H63.5979V71.1012H64.3821V76.5748L67.9004 71.1012H68.6914V77.8595ZM80.3107 75.8408C80.3107 77.1863 79.5138 77.8595 77.921 77.8595H76.4174V71.1012H77.7458C79.2035 71.1012 79.9328 71.7017 79.9328 72.9028C79.9328 73.5412 79.6557 73.9824 79.1017 74.2264C79.9083 74.4773 80.3107 75.0151 80.3107 75.8408ZM79.1389 72.8839C79.1389 72.1837 78.6866 71.8332 77.783 71.8332H77.1829V74.0113H77.7458C78.6748 74.0113 79.1389 73.6348 79.1389 72.8839ZM79.5079 75.9443C79.5079 75.4693 79.3758 75.1307 79.1114 74.9305C78.8833 74.7612 78.527 74.6775 78.0405 74.6775H77.1829V77.1265H77.9768C78.9979 77.1265 79.5079 76.7331 79.5079 75.9443ZM91.7361 75.8408C91.7361 76.523 91.509 77.0389 91.0537 77.3894C90.6475 77.7032 90.1002 77.8595 89.411 77.8595H87.7321V71.1012H91.321V71.8332H88.5163V73.823H89.4022C90.1032 73.823 90.6543 73.9764 91.0537 74.2831C91.509 74.6337 91.7361 75.1526 91.7361 75.8408ZM90.9245 75.8408C90.9245 74.9843 90.4204 74.555 89.411 74.555H88.5163V77.1265H89.4022C90.4174 77.1265 90.9245 76.6983 90.9245 75.8408ZM97.8477 77.8595H94.4067V71.1012H97.8477V71.8332H95.1908V74.0581H97.6813V74.7901H95.1908V77.1265H97.8477V77.8595ZM105.648 77.8595H104.822L102.844 72.2275L102.807 72.2425L100.854 77.8595H100.019L102.464 71.1012H103.194L105.648 77.8595ZM114.407 74.4335C114.407 75.4215 114.078 76.263 113.42 76.9582C112.762 77.6524 111.95 77.9999 110.984 77.9999C110.024 77.9999 109.217 77.6514 108.562 76.9532C107.907 76.2551 107.58 75.4185 107.58 74.4425C107.58 73.4974 107.916 72.6827 108.59 71.9975C109.263 71.3123 110.064 70.9697 110.993 70.9697C111.934 70.9697 112.739 71.3073 113.406 71.9836C114.073 72.6588 114.407 73.4754 114.407 74.4335ZM113.585 74.4236C113.585 73.6975 113.331 73.0691 112.82 72.5373C112.31 72.0055 111.697 71.7395 110.984 71.7395C110.282 71.7395 109.676 72.0114 109.166 72.5562C108.655 73.1 108.401 73.7294 108.401 74.4425C108.401 75.1994 108.647 75.8477 109.139 76.3855C109.643 76.9423 110.264 77.2211 111.002 77.2211C111.753 77.2211 112.374 76.9423 112.866 76.3855C113.346 75.8477 113.585 75.1934 113.585 74.4236ZM121.633 71.1012L118.759 74.3847L121.674 77.8595H120.675L117.861 74.4335V77.8595H117.076V71.1012H117.861V74.3957L120.648 71.1012H121.633ZM129.028 71.1012L126.095 77.8595H125.287L125.819 76.6813L123.317 71.1012H124.147L126.213 75.7501L128.201 71.1012H129.028ZM135.288 73.0532C135.288 73.7165 135.067 74.2234 134.623 74.574C134.224 74.8926 133.688 75.052 133.018 75.052H132.104V77.8595H131.32V71.1012H133.028C133.704 71.1012 134.238 71.2515 134.632 71.5513C135.07 71.883 135.288 72.3839 135.288 73.0532ZM134.475 73.1C134.475 72.2554 133.979 71.8332 132.987 71.8332H132.104V74.321H132.953C133.968 74.321 134.475 73.9137 134.475 73.1ZM142.986 77.8595H142.193V72.4028L138.674 77.8595H137.893V71.1012H138.677V76.5549L142.193 71.1012H142.986V77.8595ZM150.767 77.8595H149.822L148.064 75.0839L146.288 77.8595H145.342L147.602 74.4515L145.398 71.1012H146.342L148.062 73.834L149.762 71.1012H150.721L148.507 74.4425L150.767 77.8595ZM156.574 77.8595H153.133V71.1012H156.574V71.8332H153.917V74.0581H156.408V74.7901H153.917V77.1265H156.574V77.8595Z" fill="#2B2A29"/>
<path d="M169.453 60.0972C169.453 60.9019 169.173 61.5881 168.615 62.1568C168.055 62.7245 167.379 63.0083 166.587 63.0083C165.811 63.0083 165.141 62.7205 164.576 62.1448C164.012 61.5682 163.731 60.886 163.731 60.0972C163.731 59.2985 164.01 58.6153 164.569 58.0466C165.128 57.4789 165.801 57.1951 166.587 57.1951C167.379 57.1951 168.055 57.4779 168.615 58.0426C169.173 58.6083 169.453 59.2935 169.453 60.0972ZM168.963 60.1131C168.963 59.425 168.737 58.8453 168.284 58.3742C167.831 57.9042 167.266 57.6691 166.587 57.6691C165.93 57.6691 165.37 57.9062 164.906 58.3782C164.443 58.8523 164.211 59.425 164.211 60.0972C164.211 60.7595 164.444 61.3312 164.91 61.8132C165.376 62.2932 165.933 62.5342 166.58 62.5342C167.242 62.5342 167.805 62.2992 168.268 61.8291C168.732 61.3571 168.963 60.7864 168.963 60.1131ZM167.822 61.618H167.1L166.23 60.3462V61.618H165.633V58.4908H166.673C167.009 58.4908 167.278 58.5794 167.481 58.7587C167.683 58.9379 167.783 59.1959 167.783 59.5325C167.783 59.7855 167.708 60.0016 167.558 60.1809C167.407 60.3591 167.212 60.4627 166.968 60.4886L167.822 61.618ZM167.193 59.5484C167.193 59.2118 166.976 59.0435 166.541 59.0435H166.23V60.0225H166.541C166.754 60.0225 166.906 59.9966 166.999 59.9438C167.128 59.8751 167.193 59.7436 167.193 59.5484Z" fill="#008DD2"/>
<path fill-rule="evenodd" clip-rule="evenodd" d="M157.241 62.0978V49.336C157.241 47.5742 156.908 45.8951 156.305 44.3683C155.702 42.8416 154.829 41.4662 153.751 40.3119C152.673 39.1576 151.389 38.2225 149.963 37.5771C146.703 36.1011 143.842 36.0075 142.676 36.0075C134.496 35.8143 128.464 38.2354 128.464 43.474C128.464 46.9 131.68 49.6866 138.079 50.6128C132.65 51.8557 128.373 55.4062 128.373 62.1755H133.669C133.669 56.7308 137.411 51.6824 142.938 51.6824H149.787V49.3609H142.658C136.915 49.3609 133.76 46.6779 133.76 43.474C133.76 40.2701 136.932 37.4267 142.676 37.6C148.202 37.6 151.945 43.8913 151.945 49.336V62.0978H157.241ZM64.4516 36.5742H76.3694H81.6656V36.6071H93.5834V39.4435H81.6656V62.0978H76.3694V39.4106H64.4516V36.5742ZM59.6694 40.7053L68.3821 62.0978H63.086L54.3732 40.7053C53.9004 39.2035 52.9949 37.9327 52.1207 37.9327C51.2455 37.9327 50.3399 39.2035 49.8671 40.7053L43.0829 57.3632C41.2033 61.9494 37.543 62.0928 36.9654 62.0978L35.916 61.9564L36.2655 61.0969L44.571 40.7053H44.568C46.3174 37.2106 49.2631 36.0075 52.1207 36.0075C54.9773 36.0075 57.923 37.2106 59.6733 40.7053H59.6694ZM17.2502 37.6C19.8082 37.6 21.9512 39.1576 23.028 40.3119C24.1059 41.4662 24.9791 42.8416 25.5821 44.3683C26.1852 45.8951 26.519 47.5742 26.519 49.336V53.7699V53.8476H26.52C26.5621 59.1718 30.9429 61.4953 34.0628 61.9923L34.6943 60.4426C33.0584 60.0243 31.8151 57.8711 31.8151 53.7699V49.336C31.8151 47.5742 31.4823 45.8951 30.8793 44.3683C30.2762 42.8416 29.403 41.4662 28.3252 40.3119C27.2473 39.1576 25.9629 38.2225 24.5376 37.5771C21.2767 36.1011 19.0035 36.0075 17.2502 36.0075C15.4969 36.0075 13.2238 36.1011 9.96287 37.5771C8.53751 38.2225 7.25312 39.1576 6.17529 40.3119C5.09746 41.4662 4.22423 42.8416 3.62119 44.3683C3.01815 45.8951 2.68433 47.5742 2.68433 49.336C2.68433 52.8606 4.01864 56.1571 6.17529 58.5722C9.6496 62.4643 14.3966 62.6645 17.2502 62.6645C19.4284 62.6645 22.6208 61.8678 25.0907 59.3999L24.3457 58.0185C18.3427 61.9933 7.98146 58.7864 7.98146 49.336C7.98146 47.5742 8.31529 45.8951 8.91832 44.3683C9.52038 42.8416 10.3946 41.4662 11.4724 40.3119C12.5493 39.1576 14.6922 37.6 17.2502 37.6ZM122.651 53.8476C122.651 58.4468 124.213 60.596 126.142 60.596V62.1755C123.106 62.1755 117.354 59.9914 117.354 53.8476V49.336C117.354 47.5742 117.021 45.8951 116.418 44.3683C115.815 42.8416 114.941 41.4662 113.863 40.3119C112.786 39.1576 110.644 37.6 108.086 37.6C105.528 37.6 103.385 39.1576 102.307 40.3119C101.229 41.4662 100.356 42.8416 99.7528 44.3683C99.1498 45.8951 98.8169 47.5742 98.8169 49.336C98.8169 58.7864 109.178 61.9933 115.181 58.0185L115.926 59.3999C113.456 61.8678 110.264 62.6645 108.086 62.6645C105.232 62.6645 100.485 62.4643 97.0107 58.5722C94.8541 56.1571 93.5198 52.8606 93.5198 49.336C93.5198 47.5742 93.8536 45.8951 94.4566 44.3683C95.0597 42.8416 95.9319 41.4662 97.0107 40.3119C98.0886 39.1576 99.373 38.2225 100.798 37.5771C104.059 36.1011 106.332 36.0075 108.086 36.0075C109.839 36.0075 112.112 36.1011 115.372 37.5771C116.797 38.2225 118.082 39.1576 119.161 40.3119C120.238 41.4662 121.112 42.8416 121.715 44.3683C122.317 45.8951 122.651 47.5742 122.651 49.336V53.8476Z" fill="#78B833"/>
<path fill-rule="evenodd" clip-rule="evenodd" d="M101.831 11.2839V13.5177V24.8922C101.831 28.5154 103.062 30.2085 104.58 30.2085V31.4524C102.188 31.4524 97.6578 29.7314 97.6578 24.8922V22.0847C95.1527 23.9082 92.2334 24.0188 90.3558 24.0188C88.7424 24.0188 86.4223 23.463 84.5339 21.7809L85.1272 20.6814C88.3704 22.4402 94.0239 21.6236 96.0944 18.6846C97.092 17.2664 97.6578 15.5385 97.6578 13.5177V11.2839H101.831ZM152.945 11.6444V11.2839H157.119V11.6444C157.119 14.421 156.067 17.0184 154.369 18.9206C153.079 20.3667 151.565 21.1654 150.091 21.6066C150.499 21.75 150.93 21.9213 151.384 22.1275C152.508 22.6364 153.519 23.3724 154.369 24.2827C155.218 25.192 155.906 26.2745 156.381 27.4776C156.855 28.6807 157.119 30.0033 157.119 31.3916H152.945C152.945 30.0033 152.683 28.6807 152.208 27.4776C151.732 26.2745 151.044 25.191 150.195 24.2827C149.347 23.3734 147.659 22.1454 145.643 22.1454C143.927 22.1454 141.412 21.517 139.466 19.573L140.053 18.4844C144.783 21.6156 152.945 19.0899 152.945 11.6444ZM21.5263 21.3377C21.5263 28.7833 13.3637 31.309 8.6344 28.1778L8.04703 29.2663C9.99319 31.2104 12.5081 31.8378 14.2242 31.8378C16.4729 31.8378 20.2125 31.6804 22.9497 28.614C24.6482 26.7118 25.6996 24.1134 25.6996 21.3377C25.6996 19.9494 25.4362 18.6268 24.9614 17.4237C24.4866 16.2207 23.7984 15.1381 22.9497 14.2278C22.1 13.3185 21.0887 12.5825 19.9648 12.0736C17.3961 10.9104 15.6056 10.8367 14.2242 10.8367C12.8429 10.8367 11.0524 10.9104 8.48364 12.0736C7.36078 12.5825 6.34854 13.3185 5.49978 14.2278C4.65005 15.1381 3.96282 16.2207 3.48704 17.4237C3.01225 18.6268 2.74989 19.9494 2.74989 21.3377V34.2987C2.74989 37.9219 1.51836 39.615 0 39.615V40.8589C2.39159 40.8589 6.9222 39.1389 6.9222 34.2987V21.3377C6.9222 19.9494 7.18554 18.6268 7.66034 17.4237C8.13513 16.2207 8.82334 15.1371 9.67209 14.2278C10.5209 13.3185 12.2096 12.0915 14.2242 12.0915C16.2399 12.0915 17.9276 13.3185 18.7764 14.2278C19.6251 15.1371 20.3134 16.2207 20.7891 17.4237C21.2639 18.6268 21.5263 19.9494 21.5263 21.3377ZM128.953 24.8922C128.953 28.5154 130.184 30.2085 131.703 30.2085V31.4524C129.311 31.4524 124.781 29.7314 124.781 24.8922V11.2839H128.953V24.8922ZM134.169 31.3916V11.2839H138.341V31.3916H134.169ZM111.219 21.3377C111.219 23.3585 111.784 25.0864 112.783 26.5036C114.991 29.6408 121.279 30.3588 124.368 28.113L124.76 29.2036C122.806 31.1964 120.256 31.8378 118.521 31.8378C116.273 31.8378 112.533 31.6804 109.796 28.614C108.097 26.7118 107.046 24.1134 107.046 21.3377V11.2839H111.219V21.3377ZM79.9436 31.3916V11.2839H84.1169V31.3916H79.9436ZM39.2601 30.5839C37.2454 30.5839 35.5567 29.3559 34.7079 28.4467C33.8592 27.5374 33.171 26.4538 32.6962 25.2507C32.2214 24.0486 31.958 22.7261 31.958 21.3377C31.958 19.9494 32.2214 18.6268 32.6962 17.4237C33.171 16.2207 33.8592 15.1371 34.7079 14.2278C35.5567 13.3185 37.2454 12.0915 39.2601 12.0915C41.2758 12.0915 42.9635 13.3185 43.8122 14.2278C44.662 15.1371 45.3502 16.2207 45.825 17.4237C46.2998 18.6268 46.5621 19.9494 46.5621 21.3377C46.5621 22.7261 46.2998 24.0486 45.825 25.2507C45.3502 26.4538 44.662 27.5374 43.8122 28.4467C42.9635 29.3559 41.2758 30.5839 39.2601 30.5839ZM27.7857 21.3377C27.7857 22.7261 28.0481 24.0486 28.5239 25.2507C28.9987 26.4538 29.6859 27.5374 30.5356 28.4467C31.3844 29.3559 32.3966 30.0929 33.5195 30.6009C36.0883 31.7641 37.8788 31.8378 39.2601 31.8378C40.6424 31.8378 42.4319 31.7641 45.0017 30.6009C46.1245 30.0929 47.1358 29.3559 47.9855 28.4467C48.8353 27.5374 49.5225 26.4538 49.9973 25.2507C50.4721 24.0486 50.7354 22.7261 50.7354 21.3377C50.7354 19.9494 50.4721 18.6268 49.9973 17.4237C49.5225 16.2207 48.8353 15.1381 47.9855 14.2278C47.1358 13.3185 46.1245 12.5825 45.0017 12.0736C42.4319 10.9104 40.6424 10.8367 39.2601 10.8367C37.8788 10.8367 36.0883 10.9104 33.5195 12.0736C32.3966 12.5825 31.3844 13.3185 30.5356 14.2278C29.6859 15.1381 28.9987 16.2207 28.5239 17.4237C28.0481 18.6268 27.7857 19.9494 27.7857 21.3377ZM56.9939 21.3377C56.9939 13.8922 65.1574 11.3655 69.8868 14.4977L70.4732 13.4082C68.528 11.4651 66.013 10.8367 64.2969 10.8367C62.0482 10.8367 58.3086 10.994 55.5715 14.0605C53.873 15.9637 52.8216 18.5611 52.8216 21.3377C52.8216 22.7261 53.0839 24.0486 53.5597 25.2507C54.0345 26.4538 54.7217 27.5374 55.5715 28.4467C56.4212 29.3559 57.4325 30.0929 58.5553 30.6009C61.1241 31.7641 62.9146 31.8378 64.2969 31.8378C65.6772 31.8378 67.4687 31.7641 70.0375 30.6009C71.1604 30.0929 72.1716 29.3559 73.0214 28.4467C73.8711 27.5374 74.5583 26.4538 75.0331 25.2507C75.5089 24.0486 75.7713 22.7261 75.7713 21.3377V15.1261C75.7713 12.4511 74.9489 9.28104 73.1829 6.88285C70.9156 3.80444 67.4315 2.23287 64.2969 1.33255C63.7174 1.16623 62.2127 0.901314 61.5323 0L60.9127 1.16723C61.7927 2.09842 63.5754 2.73482 64.2969 2.94097C66.6611 3.8393 68.4868 5.36506 69.7213 7.53419C70.9548 9.70431 71.599 12.3445 71.599 15.1261V21.3377C71.599 22.7261 71.3356 24.0486 70.8608 25.2507C70.386 26.4538 69.6978 27.5374 68.8491 28.4467C67.9993 29.3559 66.3116 30.5839 64.2969 30.5839C62.2812 30.5839 60.5935 29.3559 59.7438 28.4467C58.895 27.5374 58.2068 26.4538 57.732 25.2507C57.2572 24.0486 56.9939 22.7261 56.9939 21.3377Z" fill="#008DD2"/>
<path fill-rule="evenodd" clip-rule="evenodd" d="M186.18 63.6217C233.633 14.7387 171.49 -10.5091 169.772 16.3551C168.913 29.7801 187.287 35.933 187.352 51.321C187.37 55.7201 186.677 59.891 186.18 63.6217Z" fill="url(#paint0_linear_236_249)"/>
<path fill-rule="evenodd" clip-rule="evenodd" d="M168.233 13.0984C167.524 17.3161 168.214 20.7182 169.24 23.5865C171.671 30.3807 177.01 34.0975 182.213 40.9395C187.129 47.4041 186.484 54.993 184.83 65.2043H184.785C185.247 61.0523 185.238 53.298 178.949 47.4628C168.963 38.1957 164.307 29.4306 168.233 13.0984Z" fill="#78B833"/>
<path fill-rule="evenodd" clip-rule="evenodd" d="M165.836 41.7273C174.303 46.3673 172.506 49.3621 176.201 55.1076C178.774 59.1102 182.639 57.931 183.848 66.4691L183.847 66.4611C184.563 54.6743 178.205 46.927 165.836 41.7273Z" fill="#78B833"/>
<path fill-rule="evenodd" clip-rule="evenodd" d="M173.997 20.9821C172.083 15.62 175.511 8.44035 181.158 8.95624C183.528 9.17236 184.077 11.5686 182.444 12.6282C179.263 14.6908 174.04 13.9996 173.997 20.9821Z" fill="#FEFEFE"/>
<path fill-rule="evenodd" clip-rule="evenodd" d="M167.605 36.633C168.614 36.4238 169.595 37.11 169.794 38.1657C169.995 39.2214 169.339 40.2482 168.331 40.4573C167.321 40.6665 166.341 39.9803 166.141 38.9246C165.941 37.8689 166.596 36.8431 167.605 36.633Z" fill="#00A0E3"/>
<path fill-rule="evenodd" clip-rule="evenodd" d="M166.119 33.3598C166.788 33.2213 167.438 33.6765 167.571 34.3766C167.704 35.0767 167.269 35.757 166.6 35.8964C165.931 36.0348 165.28 35.5807 165.148 34.8805C165.015 34.1794 165.45 33.4992 166.119 33.3598Z" fill="#00A0E3"/>
<path fill-rule="evenodd" clip-rule="evenodd" d="M165.703 31.3728C166.047 31.3011 166.381 31.5351 166.449 31.8946C166.518 32.2542 166.294 32.6047 165.95 32.6765C165.606 32.7472 165.271 32.5131 165.204 32.1536C165.135 31.7931 165.36 31.4435 165.703 31.3728Z" fill="#00A0E3"/>
<defs>
<linearGradient id="paint0_linear_236_249" x1="188.727" y1="42.1665" x2="183.605" y2="14.2515" gradientUnits="userSpaceOnUse">
<stop stop-color="#A2D9F7"/>
<stop offset="1" stop-color="#00A0E3"/>
</linearGradient>
</defs>
</svg>
