<svg width="32" height="33" viewBox="0 0 32 33" fill="none" xmlns="http://www.w3.org/2000/svg">
<rect y="0.310547" width="32" height="32" rx="5" fill="#0098DB"/>
<path d="M15.0597 19.9872C13.6562 19.8406 12.3903 19.4922 11.3068 18.6388C11.1721 18.5325 11.0327 18.4298 10.9108 18.3116C10.436 17.8532 10.3883 17.3271 10.7642 16.7862C11.085 16.3224 11.624 16.1987 12.1841 16.4654C12.2922 16.5158 12.3949 16.5809 12.4948 16.6497C14.5143 18.0467 17.289 18.0852 19.3158 16.7129C19.5174 16.5571 19.7319 16.4306 19.9804 16.3664C20.4644 16.2417 20.9154 16.4205 21.1748 16.8467C21.4718 17.3326 21.4681 17.8092 21.1024 18.186C20.5423 18.7662 19.8676 19.1852 19.1187 19.4776C18.4101 19.7544 17.6337 19.8937 16.8664 19.9854C16.9819 20.1128 17.0369 20.1752 17.1094 20.2485C18.1516 21.3026 19.1994 22.3541 20.2389 23.4119C20.5927 23.7731 20.6669 24.2195 20.4717 24.6393C20.2581 25.0976 19.7814 25.3992 19.313 25.3671C19.0169 25.3461 18.7859 25.1976 18.5797 24.9895C17.7932 24.192 16.992 23.4091 16.2211 22.597C15.9965 22.3605 15.8884 22.4054 15.6904 22.6107C14.8993 23.4311 14.0953 24.2387 13.285 25.0426C12.922 25.4029 12.4893 25.468 12.0677 25.2626C11.6203 25.0426 11.3343 24.5834 11.3572 24.1205C11.3719 23.807 11.525 23.5686 11.7386 23.3541C12.7707 22.3165 13.7992 21.2761 14.8287 20.2375C14.8965 20.1678 14.9607 20.0945 15.0597 19.9872Z" fill="white"/>
<path d="M15.915 16.3737C13.4107 16.3645 11.3573 14.2746 11.3711 11.7482C11.3858 9.1944 13.4409 7.1374 15.97 7.14381C18.5037 7.15023 20.5378 9.2384 20.5259 11.8188C20.5121 14.3396 18.445 16.382 15.915 16.3737ZM18.1911 11.7537C18.1928 11.4585 18.1361 11.1659 18.0244 10.8927C17.9125 10.6194 17.7479 10.371 17.5398 10.1616C17.3316 9.95221 17.0842 9.78602 16.8117 9.67258C16.5392 9.55914 16.2469 9.50067 15.9517 9.50056C15.6537 9.50027 15.3586 9.55936 15.0837 9.67438C14.8088 9.7894 14.5596 9.95804 14.3506 10.1704C14.1416 10.3829 13.977 10.6348 13.8665 10.9115C13.7559 11.1882 13.7016 11.4842 13.7068 11.7821C13.7071 12.0775 13.7659 12.3698 13.8797 12.6423C13.9934 12.9148 14.16 13.1622 14.3698 13.3701C14.5795 13.5779 14.8283 13.7423 15.1019 13.8536C15.3754 13.965 15.6683 14.0211 15.9636 14.0188C16.2589 14.0177 16.5511 13.9582 16.8233 13.8436C17.0954 13.7289 17.3422 13.5616 17.5493 13.351C17.7564 13.1405 17.9198 12.891 18.0299 12.617C18.1401 12.343 18.1949 12.0499 18.1911 11.7546V11.7537Z" fill="white"/>
</svg>
