<svg width="17" height="18" viewBox="0 0 17 18" fill="none" xmlns="http://www.w3.org/2000/svg">
<g clip-path="url(#clip0_236_271)">
<path fill-rule="evenodd" clip-rule="evenodd" d="M16.9236 13.9119L16.8387 13.6559C16.64 13.0687 15.9829 12.4556 15.378 12.2904L13.1444 11.6859C12.5395 11.5236 11.676 11.7432 11.2312 12.1835L10.4237 12.9827C7.48678 12.1959 5.18377 9.91552 4.3907 7.00969L5.19825 6.20947C5.6411 5.77212 5.86204 4.91746 5.69802 4.31682L5.08922 2.10618C4.9252 1.50744 4.30193 0.857142 3.70761 0.660428L3.45386 0.576396C2.85761 0.378727 2.00761 0.578305 1.56476 1.01757L0.354884 2.21504C0.138766 2.42703 0.000797544 3.03723 0.000797544 3.03723C-0.0397246 6.83781 1.46538 10.498 4.18037 13.1871C6.88764 15.8675 10.5732 17.3553 14.4006 17.3219C14.4209 17.3219 15.0538 17.1891 15.269 16.9752L16.4788 15.7778C16.9217 15.3414 17.1214 14.5001 16.9236 13.9119Z" fill="#0098DB"/>
</g>
<defs>
<clipPath id="clip0_236_271">
<rect width="17" height="17" fill="white" transform="translate(0 0.5)"/>
</clipPath>
</defs>
</svg>
