<svg width="297" height="288" viewBox="0 0 297 288" fill="none" xmlns="http://www.w3.org/2000/svg">
<path fill-rule="evenodd" clip-rule="evenodd" d="M151.627 0.523109C107.161 17.3419 97.9597 33.3121 86.2865 53.5728C80.9601 62.8176 75.119 72.9558 65.178 84.4756C57.5656 93.2975 49.4334 97.6657 41.3645 102C26.0064 110.25 10.8778 118.376 -5.7056e-06 156.855L0.014412 156.8C5.9018 73.5111 58.5 25.2397 151.627 0.523109ZM160.698 12.4687C206.099 7.74616 243.369 46.5088 269.412 83.9486C293.137 118.056 304.708 160.986 291.369 200.321C279.674 234.809 244.097 250.705 210.656 265.646C209.53 266.149 208.407 266.651 207.287 267.153C174.596 281.792 140.474 294.187 106.395 283.152C65.5595 269.93 19.8399 246.532 12.923 204.22C8.11719 174.821 29.8818 153.158 52.0034 131.139C60.8754 122.308 69.8049 113.42 77.1008 103.953C84.7533 94.0228 91.3479 82.583 97.8965 71.2228C114.048 43.2043 129.92 15.6702 160.698 12.4687ZM29.7761 150.001C33.0079 146.631 33.096 139.213 29.7763 136.105C26.4507 132.996 20.6944 128.127 17.4625 131.497C14.2332 134.871 11.4972 148.211 14.8194 151.323C18.139 154.431 26.5467 153.375 29.7761 150.001ZM37.582 122.531C39.7824 124.592 39.8309 128.077 37.6893 130.315C35.5476 132.553 32.0248 132.695 29.8184 130.632C27.618 128.571 27.5634 125.085 29.7075 122.85C31.8527 120.61 35.3755 120.468 37.582 122.531ZM43.6193 120.041C44.7186 118.891 45.6907 116.034 44.5579 114.976C43.4286 113.916 40.6202 115.052 39.5173 116.204C38.4155 117.35 38.4418 119.145 39.5711 120.205C40.7064 121.267 42.5199 121.191 43.6193 120.041Z" fill="#EFEFEF"/>
</svg>
