<svg width="546" height="292" viewBox="0 0 546 292" fill="none" xmlns="http://www.w3.org/2000/svg">
<path fill-rule="evenodd" clip-rule="evenodd" d="M487.109 266.84C546.704 235.06 550.498 175.959 543.345 124.467C537.119 79.6448 506.969 36.9023 451.771 12.438C402.248 -9.51109 274.682 3.08352 215.625 8.91414L214.769 8.99868C198.163 10.638 180.706 11.4141 163.227 12.1911C107.198 14.682 50.9548 17.1823 21.8637 48.1601C-18.8683 91.5339 3.12689 149.854 40.4212 194.654C74.6276 235.745 134.179 269.727 200.719 282.412C272.955 296.184 427.948 298.388 487.109 266.84ZM78.85 244.724C45.9279 223.934 30.0383 213.9 6.10352e-05 159.008C37.4862 248.308 93.3385 294.206 178.312 289.039L178.37 289.046C131.09 282.342 121.788 275.225 106.939 263.864C102.456 260.434 97.4681 256.617 90.7766 252.309C86.5507 249.587 82.5904 247.086 78.85 244.724Z" fill="#D9D9D9"/>
</svg>
