<svg width="329" height="289" viewBox="0 0 329 289" fill="none" xmlns="http://www.w3.org/2000/svg">
<path fill-rule="evenodd" clip-rule="evenodd" d="M277.77 45.1C247.232 13.3737 203.158 0.603965 158.311 1.00576C114.077 1.40206 70.9011 15.2072 41.5983 47.216C10.3291 81.3729 -6.27062 126.679 2.19901 171.534C11.1305 218.835 39.3257 265.422 85.9706 282.212C120.604 294.678 154.227 277.411 187.695 260.222L187.695 260.222C196.258 255.825 204.81 251.432 213.367 247.544C222.576 243.36 232.328 239.584 242.1 235.801C277.763 221.992 313.704 208.076 324.614 173.781C339.161 128.054 311.492 80.1343 277.77 45.1ZM220.145 287.85C226.147 285.878 225.577 271.608 223.593 265.784C221.602 259.955 215.901 261.565 209.899 263.537C203.897 265.515 195.405 274.435 197.39 280.265C199.374 286.089 214.143 289.827 220.145 287.85ZM242.325 259.259C243.64 263.121 241.48 267.316 237.499 268.628C233.519 269.939 229.224 267.869 227.903 264.002C226.589 260.14 228.742 255.94 232.723 254.634C236.709 253.322 241.004 255.392 242.325 259.259ZM251.116 260.122C253.16 259.448 256.682 254.915 256.003 252.931C255.33 250.946 250.711 252.255 248.662 252.931C246.617 253.599 245.507 255.759 246.18 257.745C246.859 259.735 249.072 260.797 251.116 260.122Z" fill="#EFEFEF"/>
</svg>
