<svg width="325" height="291" viewBox="0 0 325 291" fill="none" xmlns="http://www.w3.org/2000/svg">
<path fill-rule="evenodd" clip-rule="evenodd" d="M181.735 4.89217C129.252 -4.57483 76.1519 22.8233 42.0245 58.6832C7.18158 95.295 -8.28592 144.276 5.3208 190.262C18.531 234.908 57.5903 275.125 109.254 285.894C142.883 292.904 170.961 273.65 199.126 254.336C208.26 248.072 217.404 241.802 226.75 236.42C231.473 233.699 236.347 231.062 241.225 228.421L241.225 228.421C265.594 215.234 290.083 201.98 296.493 178.054C302.884 154.197 287.83 132.999 272.815 111.856C269.696 107.463 266.578 103.073 263.655 98.6617C257.618 89.5528 252.364 79.5473 247.115 69.5539C231.753 40.3022 216.445 11.1534 181.735 4.89217ZM324.738 183.864C321.492 138.273 308.56 125.343 292.155 108.939C284.669 101.454 276.459 93.2458 268.117 80.8813C261.728 71.4128 259.866 62.713 258.018 54.081C254.501 37.6511 251.036 21.4666 216.511 0.694967L216.561 0.723593C296.559 29.4491 328.253 91.3213 324.738 183.864ZM239.759 284.828C247.3 280.093 248.89 271.141 243.892 264.307C238.883 257.468 229.183 255.335 221.642 260.069C214.104 264.811 205.971 279.889 210.972 286.73C215.969 293.564 232.221 289.569 239.759 284.828Z" fill="#EFEFEF"/>
</svg>
