<svg width="325" height="273" viewBox="0 0 325 273" fill="none" xmlns="http://www.w3.org/2000/svg">
<path fill-rule="evenodd" clip-rule="evenodd" d="M208.064 56.0526L208.064 56.0525C186.065 33.2693 164.496 10.93 133.121 6.67571C88.2664 0.593594 33.2714 2.7977 8.64475 40.8761C-10.1207 69.8917 5.32983 104.108 20.3453 137.361C24.3491 146.228 28.322 155.026 31.607 163.639C43.3336 194.385 57.3277 222.939 84.8995 240.808C118.474 262.567 156.562 279.947 195.201 269.662C244.342 256.581 303.355 231.429 310.004 180.888C314.776 144.612 284.019 120.555 253.282 96.5135C242.118 87.7814 230.957 79.0514 221.501 69.7387C216.949 65.2551 212.498 60.6451 208.064 56.0531L208.064 56.0529L208.064 56.0526ZM269.153 78.3484C289.639 88.5299 305.788 96.5553 324.869 138.944C295.17 49.5404 244.881 1.09435 163.175 0.323082L163.121 0.31231C201.355 8.62963 210.195 22.9078 219.17 37.4025C223.885 45.0179 228.637 52.693 237.708 59.5948C249.553 68.6079 259.805 73.7026 269.153 78.3484ZM198.891 34.9361C197.009 37.2065 193.608 37.462 191.294 35.5057C188.98 33.5494 186.634 26.7024 188.517 24.426C190.399 22.1556 196.58 22.4674 198.89 24.4264C201.207 26.386 200.774 32.6598 198.891 34.9361ZM201.683 40.6794C202.871 41.6835 204.619 41.5533 205.585 40.3847C206.553 39.2193 206.377 37.4548 205.185 36.4473C204 35.4405 202.249 35.5734 201.281 36.7387C200.312 37.91 200.494 39.6752 201.683 40.6794Z" fill="#EFEFEF"/>
</svg>
