<svg width="316" height="288" viewBox="0 0 316 288" fill="none" xmlns="http://www.w3.org/2000/svg">
<path fill-rule="evenodd" clip-rule="evenodd" d="M216.909 46.7384C202.604 24.8953 188.633 3.56097 163.466 0.780449C125.121 -3.45603 94.4789 27.009 67.5737 54.6272C64.4385 57.8455 61.2357 61.0751 58.0121 64.3258L58.0119 64.326C28.02 94.5692 -3.77421 126.63 0.365193 168.203C5.42465 219.017 42.1797 265.544 90.2924 282.8C130.267 297.137 169.842 274.683 207.396 253.376L207.396 253.376C211.366 251.123 215.314 248.883 219.237 246.701C222.228 245.037 225.276 243.368 228.352 241.683L228.353 241.683L228.353 241.682C263.02 222.694 301.406 201.669 305.113 163.312C307.779 135.726 285.907 117.438 263.544 98.7396C253.791 90.5848 243.944 82.3518 235.999 73.2355C229.004 65.2091 222.927 55.9288 216.909 46.7386L216.909 46.7384ZM244.758 63.5349C249.702 73.2078 267.834 74.3979 277.201 69.4797C295.525 59.8579 299.242 49.9092 294.298 40.2363C289.344 30.5663 260.65 22.4398 251.274 27.3608C241.908 32.2789 239.804 53.8649 244.758 63.5349ZM302.806 101.896C296.594 105.155 288.895 102.6 285.609 96.1866C282.323 89.7735 284.699 81.9272 290.918 78.6559C297.129 75.3971 304.835 77.9394 308.111 84.3553C311.4 90.7781 309.024 98.6245 302.806 101.896ZM303.675 124.611C305.364 127.904 309.319 129.219 312.509 127.539C315.703 125.868 316.932 121.833 315.24 118.531C313.561 115.235 309.141 109.882 305.947 111.552C302.747 113.235 301.986 121.318 303.675 124.611Z" fill="#EFEFEF"/>
</svg>
