<svg width="524" height="396" viewBox="0 0 524 396" fill="none" xmlns="http://www.w3.org/2000/svg">
<path fill-rule="evenodd" clip-rule="evenodd" d="M435.152 6.52527C428.289 -2.01421 410.252 -0.61852 401.561 6.52527C392.862 13.6624 389.789 33.3905 396.652 41.93C403.523 50.4761 416.953 39.5369 425.652 32.3997C434.343 25.2559 442.017 15.0794 435.152 6.52527ZM94.4051 88.0053C65.0838 93.1776 32.919 103.839 0.804932 130.502C119.298 17.1062 216.447 14.3696 344.285 54.996C424.784 80.5838 490.335 42.839 523.117 18.617L523.341 19.0041C500.3 148.679 419.639 133.769 347.187 120.377C335.716 118.257 324.451 116.174 313.652 114.71C286.032 110.962 260.315 105.44 235.755 100.166C185.961 89.4746 140.92 79.8035 94.4051 88.0053ZM67.6525 109.21C99.0989 92.8812 117.984 108.164 139.975 125.961C156.125 139.03 173.949 153.454 199.652 157.71C226.167 162.1 261.923 160.155 299.109 158.132C373.255 154.098 453.083 149.755 476.653 194.71C509.144 256.68 463.673 299.526 440.991 320.899C436.98 324.678 433.681 327.786 431.653 330.21C390.195 379.737 349.232 393.211 284.653 395.71C231.619 397.762 174.74 376.355 130.652 346.662C120.616 339.902 111.052 333.939 102.078 328.345L102.073 328.342L102.072 328.341C82.2113 315.959 65.2422 305.379 52.4461 291.958C44.5094 292.566 35.5523 288.689 28.6926 278.936C11.8963 255.065 13.0397 226.836 25.1592 202.112C24.5159 195.28 23.7874 189.165 23.1281 183.632C18.6524 146.066 17.3719 135.318 67.6525 109.21ZM367.72 35.3327C360.825 32.4782 357.543 24.7451 360.386 18.0604C363.242 11.3676 371.142 8.25759 378.047 11.1141C384.944 13.9583 388.214 21.6997 385.371 28.3844C382.515 35.0772 374.615 38.1871 367.72 35.3327ZM339.152 5.98757C337.685 9.4217 341.612 20.9629 345.152 22.4303C348.693 23.8977 352.272 18.3076 353.741 14.8633C355.198 11.427 353.512 7.44477 349.969 5.98755C346.418 4.51803 340.609 2.55135 339.152 5.98757ZM192.781 143.563C201.219 146.263 212.33 136.458 214.869 128.213C219.836 112.083 216.218 104.213 207.781 101.513C199.339 98.8203 178.144 110.748 175.601 119C173.062 127.245 184.34 140.87 192.781 143.563ZM248.339 132.035C246.653 137.501 240.75 140.486 235.151 138.701C229.553 136.915 226.38 131.031 228.062 125.553C229.747 120.087 235.647 117.091 241.242 118.883C246.848 120.673 250.021 126.558 248.339 132.035ZM261.979 144.589C264.854 145.505 267.888 143.973 268.75 141.162C269.62 138.354 267.992 135.324 265.109 134.405C262.238 133.482 256.6 132.961 255.731 135.769C254.865 138.587 259.103 143.674 261.979 144.589Z" fill="#ECF8FD"/>
</svg>
