<svg width="523" height="426" viewBox="0 0 523 426" fill="none" xmlns="http://www.w3.org/2000/svg">
<path fill-rule="evenodd" clip-rule="evenodd" d="M422.283 36.4446C419.047 46.1305 408.383 51.2139 398.474 47.7813C388.56 44.3571 349.88 27.4886 353.117 17.8027C357.617 -7.19732 402.703 0.378563 412.617 3.80276C422.526 7.23536 425.516 26.7454 422.283 36.4446ZM429.168 142.665C458.489 147.837 490.654 158.499 522.768 185.162C504.321 167.508 488.01 151.107 473.137 136.152C392.471 55.0407 354.055 16.4119 246.119 50.7135C165.62 76.3013 33.2383 97.4985 0.45548 73.2765L0.232 73.6636C78.2857 137.686 139.2 180.236 218.201 169.523C246.877 165.631 272.528 159.81 296.657 154.334C342.886 143.842 383.53 134.618 429.168 142.665ZM469.615 196.951C516.493 240.223 517.298 249.546 506.76 283.347C509.18 300.494 505.87 317.978 494.88 333.596C482.602 351.052 463.605 349.685 455.766 337.467C403.385 343.307 376.421 366.325 351.774 387.366C321.667 413.066 295.015 435.818 229.716 420.714C140.496 400.078 82.6173 359.714 39.6177 312.214C37.3637 308.722 35.1127 305.322 32.906 301.988L32.9044 301.986C15.3725 275.504 0.63415 253.243 9.39362 222.627C42.3182 181.962 93.6783 190.61 147.717 199.708C175.044 204.31 203.057 209.026 229.716 207.539C245.089 205.099 263.386 199.505 283.288 193.419L283.288 193.419C342.818 175.217 416.705 152.625 469.615 196.951ZM441.519 47.3319C448.094 49.6025 455.164 46.2359 457.312 39.8143C459.457 33.3795 455.867 26.3262 449.284 24.0507C442.713 21.7717 435.647 25.1517 433.498 31.5733C431.354 38.0081 434.943 45.0613 441.519 47.3319ZM476.163 45.7553C475.063 49.0582 471.43 50.7856 468.053 49.621C464.675 48.4564 462.821 44.8283 463.925 41.5171C465.033 38.2191 468.671 36.4832 472.044 37.6562C475.429 38.8257 477.27 42.4573 476.163 45.7553ZM46.1152 178.586C55.8291 182.538 66.2429 180.582 75.1169 163.303C78.8578 153.788 71.3304 138.754 61.6166 134.803C51.8974 130.859 39.0395 144.716 35.2904 154.225C31.5465 163.726 36.396 174.643 46.1152 178.586ZM105.303 173.566C102.818 179.865 95.5798 182.853 89.1337 180.238C82.6877 177.623 79.4758 170.39 81.9576 164.078C84.4422 157.779 91.6778 154.777 98.1185 157.4C104.573 160.02 107.785 167.254 105.303 173.566ZM115.5 184.101C118.811 185.442 128.345 184.543 129.617 181.302C130.897 178.068 123.437 173.71 120.118 172.364C116.812 171.014 113.087 172.555 111.806 175.79C110.529 179.038 112.189 182.759 115.5 184.101Z" fill="#ECF8FD"/>
</svg>
