<svg width="20" height="20" viewBox="0 0 20 20" fill="none" xmlns="http://www.w3.org/2000/svg">
<g id="star">
<path id="Vector" d="M9.25275 3.18042C9.55844 2.56112 10.4416 2.56112 10.7473 3.18042L12.3813 6.49081C12.5026 6.73651 12.7369 6.90689 13.008 6.94652L16.6635 7.48083C17.3468 7.5807 17.6191 8.42057 17.1244 8.90237L14.4807 11.4774C14.2841 11.6689 14.1944 11.9448 14.2408 12.2152L14.8645 15.8521C14.9813 16.5329 14.2667 17.052 13.6553 16.7305L10.3879 15.0122C10.1451 14.8845 9.85495 14.8845 9.61213 15.0122L6.3447 16.7305C5.73334 17.052 5.01871 16.5329 5.13548 15.8521L5.75924 12.2152C5.80563 11.9448 5.71591 11.6689 5.51935 11.4774L2.87557 8.90237C2.38091 8.42057 2.65323 7.5807 3.33649 7.48083L6.99198 6.94652C7.2631 6.90689 7.49743 6.73651 7.61871 6.49081L9.25275 3.18042Z" fill="#0098DB"/>
</g>
</svg>
