<svg width="32" height="33" viewBox="0 0 32 33" fill="none" xmlns="http://www.w3.org/2000/svg">
<rect y="0.310547" width="32" height="32" rx="5" fill="#0098DB"/>
<path d="M10.3385 19.4267C11.4724 19.4267 12.3916 18.5126 12.3916 17.3852C12.3916 16.2577 11.4724 15.3438 10.3385 15.3438C9.2046 15.3438 8.28539 16.2577 8.28539 17.3852C8.28539 18.5126 9.2046 19.4267 10.3385 19.4267Z" fill="white"/>
<path d="M15.7936 10.0938C15.7936 10.0938 20.1346 9.74398 23.1262 12.0188H26.7043L25.2668 13.4476C25.2668 13.4476 26.6458 14.5848 26.6458 17.3265C26.6458 20.0676 24.5927 22.6342 21.3078 22.6342C18.0224 22.6342 16.9668 20.8261 16.9668 20.8261L15.8226 22.3425L14.7376 20.8261C14.7376 20.8261 13.6819 22.6342 10.3965 22.6342C7.11167 22.6342 5.05855 20.0676 5.05855 17.3265C5.05855 14.5848 6.43696 13.4476 6.43696 13.4476L5 12.0188H8.57817C11.5697 9.74398 15.9107 10.0938 15.9107 10.0938H15.7936ZM10.338 13.1854C8.00525 13.1854 6.11412 15.0658 6.11412 17.3852C6.11412 19.7048 8.00525 21.5846 10.338 21.5846C12.6707 21.5846 14.5613 19.7048 14.5613 17.3852C14.5618 15.0652 12.6707 13.1854 10.338 13.1854ZM21.2487 13.1854C18.916 13.1854 17.0248 15.0658 17.0248 17.3852C17.0248 19.7048 18.916 21.5846 21.2487 21.5846C23.5815 21.5846 25.4726 19.7048 25.4726 17.3852C25.4726 15.0652 23.5815 13.1854 21.2487 13.1854Z" fill="white"/>
<path d="M21.2487 19.4267C22.3826 19.4267 23.3018 18.5126 23.3018 17.3852C23.3018 16.2577 22.3826 15.3438 21.2487 15.3438C20.1148 15.3438 19.1955 16.2577 19.1955 17.3852C19.1955 18.5126 20.1148 19.4267 21.2487 19.4267Z" fill="white"/>
</svg>
