<svg width="32" height="33" viewBox="0 0 32 33" fill="none" xmlns="http://www.w3.org/2000/svg">
<rect y="0.310547" width="32" height="32" rx="5" fill="#0098DB"/>
<path d="M24.7807 11.5941C24.9091 11.1678 24.7807 10.8552 24.1739 10.8552H22.1637C21.6522 10.8552 21.4184 11.1256 21.2901 11.4226C21.2901 11.4226 20.268 13.9151 18.8197 15.5311C18.3522 16.0014 18.1386 16.1499 17.8837 16.1499C17.7563 16.1499 17.5712 16.0014 17.5712 15.5751V11.5941C17.5712 11.0826 17.4236 10.8552 16.9973 10.8552H13.8385C13.5195 10.8552 13.327 11.0917 13.327 11.3172C13.327 11.8012 14.0512 11.9131 14.1254 13.2771V16.236C14.1254 16.8841 14.009 17.0024 13.7523 17.0024C13.0712 17.0024 11.4139 14.5008 10.4303 11.6371C10.2387 11.0807 10.0453 10.8561 9.53199 10.8561H7.52266C6.94791 10.8561 6.83333 11.1266 6.83333 11.4236C6.83333 11.9571 7.51441 14.597 10.0059 18.0886C11.6669 20.4729 14.0053 21.7654 16.1357 21.7654C17.4126 21.7654 17.5702 21.4784 17.5702 20.9834V19.1813C17.5702 18.6074 17.6922 18.4919 18.0964 18.4919C18.3934 18.4919 18.9049 18.6423 20.0975 19.7909C21.4597 21.153 21.6852 21.7644 22.4506 21.7644H24.4599C25.0337 21.7644 25.3207 21.4775 25.1557 20.911C24.9751 20.3473 24.3242 19.5269 23.4607 18.5561C22.9914 18.0024 22.2902 17.4066 22.0766 17.1087C21.7787 16.7246 21.8648 16.555 22.0766 16.214C22.0766 16.214 24.5259 12.7665 24.7807 11.5941Z" fill="white"/>
</svg>
