<svg width="32" height="33" viewBox="0 0 32 33" fill="none" xmlns="http://www.w3.org/2000/svg">
<rect y="0.310547" width="32" height="32" rx="5" fill="#0098DB"/>
<path fill-rule="evenodd" clip-rule="evenodd" d="M11.4066 9.79343C14.4643 9.55421 17.536 9.55421 20.5937 9.79343L22.6477 9.95412C23.7918 10.0436 24.7277 10.9011 24.9168 12.0329C25.39 14.8649 25.39 17.7559 24.9168 20.588C24.7277 21.7198 23.7918 22.5772 22.6477 22.6668L20.5937 22.8275C17.536 23.0666 14.4643 23.0666 11.4066 22.8275L9.35262 22.6668C8.20855 22.5772 7.27262 21.7198 7.0835 20.588C6.61031 17.7559 6.61031 14.8649 7.0835 12.0329C7.27262 10.9011 8.20855 10.0436 9.35262 9.95412L11.4066 9.79343ZM14.1668 18.5747V14.0462C14.1668 13.8324 14.4 13.7004 14.5832 13.8103L18.3571 16.0747C18.5351 16.1815 18.5351 16.4394 18.3571 16.5462L14.5832 18.8105C14.4 18.9205 14.1668 18.7885 14.1668 18.5747Z" fill="white"/>
</svg>
